SeanSans-NarrowLight.ufo
<glyph name="exclam" format="1">
  <advance width="245"/>
  <unicode hex="0021"/>
  <outline>
    <contour>
      <point x="150" y="229" type="line"/>
      <point x="156" y="722" type="line"/>
      <point x="88" y="722" type="line"/>
      <point x="94" y="229" type="line"/>
    </contour>
    <contour>
      <point x="158" y="26" type="curve"/>
      <point x="158" y="48"/>
      <point x="143" y="59"/>
      <point x="122" y="59" type="curve"/>
      <point x="101" y="59"/>
      <point x="88" y="47"/>
      <point x="88" y="26" type="curve"/>
      <point x="154" y="26"/>
      <point x="92" y="26"/>
      <point x="158" y="26" type="curve"/>
      <point x="158" y="4"/>
      <point x="143" y="-6"/>
      <point x="122" y="-6" type="curve"/>
      <point x="101" y="-6"/>
      <point x="88" y="5"/>
      <point x="88" y="26" type="curve"/>
      <point x="154" y="26"/>
      <point x="92" y="26"/>
    </contour>
  </outline>
</glyph>
<glyph name="quotedbl" format="1">
  <advance width="368"/>
  <unicode hex="0022"/>
  <outline>
    <contour>
      <point x="126" y="615" type="line"/>
      <point x="131" y="812" type="line"/>
      <point x="67" y="812" type="line"/>
      <point x="72" y="615" type="line"/>
    </contour>
    <contour>
      <point x="296" y="615" type="line"/>
      <point x="301" y="812" type="line"/>
      <point x="236" y="812" type="line"/>
      <point x="241" y="615" type="line"/>
    </contour>
  </outline>
</glyph>
<glyph name="numbersign" format="1">
  <advance width="609"/>
  <unicode hex="0023"/>
  <outline>
    <contour>
      <point x="43" y="238" type="curve"/>
      <point x="490" y="238" type="curve"/>
      <point x="503" y="286" type="curve"/>
      <point x="56" y="286" type="curve"/>
    </contour>
    <contour>
      <point x="104" y="474" type="curve"/>
      <point x="553" y="474" type="curve"/>
      <point x="566" y="521" type="curve"/>
      <point x="118" y="521" type="curve"/>
    </contour>
    <contour>
      <point x="361" y="39" type="curve"/>
      <point x="552" y="722" type="curve"/>
      <point x="493" y="722" type="curve"/>
      <point x="302" y="39" type="curve"/>
    </contour>
    <contour>
      <point x="127" y="46" type="curve"/>
      <point x="314" y="722" type="curve"/>
      <point x="255" y="722" type="curve"/>
      <point x="70" y="46" type="curve"/>
    </contour>
  </outline>
</glyph>
<glyph name="dollar" format="1">
  <advance width="501"/>
  <unicode hex="0024"/>
  <outline>
    <contour>
      <point x="262" y="-42" type="curve"/>
      <point x="262" y="-10"/>
      <point x="262" y="37"/>
      <point x="262" y="70" type="curve"/>
      <point x="203" y="70"/>
      <point x="262" y="70"/>
      <point x="203" y="70" type="curve"/>
      <point x="203" y="37"/>
      <point x="203" y="-10"/>
      <point x="203" y="-42" type="curve"/>
      <point x="262" y="-42"/>
      <point x="203" y="-42"/>
    </contour>
    <contour>
      <point x="273" y="660" type="curve"/>
      <point x="273" y="693"/>
      <point x="273" y="740"/>
      <point x="273" y="773" type="curve"/>
      <point x="214" y="773"/>
      <point x="273" y="773"/>
      <point x="214" y="773" type="curve"/>
      <point x="214" y="740"/>
      <point x="214" y="693"/>
      <point x="214" y="660" type="curve"/>
      <point x="273" y="660"/>
      <point x="214" y="660"/>
    </contour>
    <contour>
      <point x="50" y="97" type="curve"/>
      <point x="99" y="70"/>
      <point x="160" y="46"/>
      <point x="230" y="46" type="curve"/>
      <point x="355" y="46"/>
      <point x="451" y="101"/>
      <point x="451" y="205" type="curve"/>
      <point x="451" y="301"/>
      <point x="362" y="349"/>
      <point x="263" y="396" type="curve"/>
      <point x="185" y="433"/>
      <point x="122" y="464"/>
      <point x="122" y="536" type="curve"/>
      <point x="122" y="599"/>
      <point x="173" y="638"/>
      <point x="247" y="638" type="curve"/>
      <point x="306" y="638"/>
      <point x="347" y="621"/>
      <point x="399" y="592" type="curve"/>
      <point x="427" y="632"/>
      <point x="399" y="592"/>
      <point x="427" y="632" type="curve"/>
      <point x="369" y="666"/>
      <point x="319" y="684"/>
      <point x="249" y="684" type="curve"/>
      <point x="140" y="684"/>
      <point x="63" y="630"/>
      <point x="63" y="536" type="curve"/>
      <point x="63" y="443"/>
      <point x="133" y="398"/>
      <point x="228" y="353" type="curve"/>
      <point x="311" y="315"/>
      <point x="392" y="280"/>
      <point x="392" y="202" type="curve"/>
      <point x="392" y="131"/>
      <point x="324" y="93"/>
      <point x="235" y="93" type="curve"/>
      <point x="175" y="93"/>
      <point x="125" y="117"/>
      <point x="81" y="139" type="curve"/>
      <point x="50" y="97"/>
      <point x="81" y="139"/>
    </contour>
  </outline>
</glyph>
<glyph name="percent" format="1">
  <advance width="939"/>
  <unicode hex="0025"/>
  <outline>
    <contour>
      <point x="319" y="-76" type="line"/>
      <point x="694" y="743" type="line"/>
      <point x="636" y="743" type="line"/>
      <point x="262" y="-76" type="line"/>
    </contour>
    <contour>
      <point x="91" y="537" type="curve"/>
      <point x="91" y="631"/>
      <point x="119" y="703"/>
      <point x="204" y="703" type="curve"/>
      <point x="290" y="704"/>
      <point x="318" y="632"/>
      <point x="318" y="537" type="curve"/>
      <point x="318" y="443"/>
      <point x="293" y="369"/>
      <point x="208" y="369" type="curve"/>
      <point x="120" y="369"/>
      <point x="91" y="441"/>
      <point x="91" y="537" type="curve"/>
      <point x="71" y="537"/>
      <point x="58" y="537"/>
      <point x="38" y="537" type="curve"/>
      <point x="38" y="413"/>
      <point x="89" y="324"/>
      <point x="205" y="324" type="curve"/>
      <point x="322" y="324"/>
      <point x="373" y="414"/>
      <point x="373" y="539" type="curve"/>
      <point x="373" y="661"/>
      <point x="321" y="748"/>
      <point x="207" y="748" type="curve"/>
      <point x="91" y="748"/>
      <point x="38" y="660"/>
      <point x="38" y="537" type="curve"/>
      <point x="58" y="537"/>
      <point x="71" y="537"/>
    </contour>
    <contour>
      <point x="619" y="131" type="curve"/>
      <point x="619" y="225"/>
      <point x="647" y="297"/>
      <point x="732" y="297" type="curve"/>
      <point x="818" y="298"/>
      <point x="846" y="226"/>
      <point x="846" y="131" type="curve"/>
      <point x="846" y="37"/>
      <point x="821" y="-37"/>
      <point x="736" y="-37" type="curve"/>
      <point x="648" y="-37"/>
      <point x="619" y="36"/>
      <point x="619" y="131" type="curve"/>
      <point x="599" y="131"/>
      <point x="586" y="131"/>
      <point x="566" y="131" type="curve"/>
      <point x="566" y="8"/>
      <point x="617" y="-81"/>
      <point x="733" y="-81" type="curve"/>
      <point x="850" y="-81"/>
      <point x="901" y="9"/>
      <point x="901" y="134" type="curve"/>
      <point x="901" y="256"/>
      <point x="849" y="342"/>
      <point x="735" y="342" type="curve"/>
      <point x="619" y="342"/>
      <point x="566" y="254"/>
      <point x="566" y="131" type="curve"/>
      <point x="586" y="131"/>
      <point x="599" y="131"/>
    </contour>
  </outline>
</glyph>
<glyph name="ampersand" format="1">
  <advance width="613"/>
  <unicode hex="0026"/>
  <outline>
    <contour>
      <point x="595" y="21" type="line"/>
      <point x="499" y="130"/>
      <point x="402" y="246"/>
      <point x="304" y="357" type="curve"/>
      <point x="249" y="425"/>
      <point x="181" y="479"/>
      <point x="181" y="569" type="curve"/>
      <point x="181" y="631"/>
      <point x="210" y="679"/>
      <point x="266" y="679" type="curve"/>
      <point x="327" y="679"/>
      <point x="361" y="635"/>
      <point x="361" y="571" type="curve"/>
      <point x="361" y="487"/>
      <point x="302" y="443"/>
      <point x="230" y="398" type="curve"/>
      <point x="141" y="339"/>
      <point x="64" y="289"/>
      <point x="64" y="184" type="curve"/>
      <point x="64" y="68"/>
      <point x="143" y="-5"/>
      <point x="260" y="-5" type="curve"/>
      <point x="438" y="-5"/>
      <point x="517" y="137"/>
      <point x="568" y="316" type="curve"/>
      <point x="518" y="328"/>
      <point x="568" y="316"/>
      <point x="518" y="328" type="curve"/>
      <point x="473" y="173"/>
      <point x="410" y="43"/>
      <point x="263" y="43" type="curve"/>
      <point x="178" y="43"/>
      <point x="123" y="98"/>
      <point x="123" y="184" type="curve"/>
      <point x="123" y="270"/>
      <point x="184" y="311"/>
      <point x="257" y="358" type="curve"/>
      <point x="345" y="416"/>
      <point x="420" y="468"/>
      <point x="420" y="571" type="curve"/>
      <point x="420" y="666"/>
      <point x="361" y="727"/>
      <point x="269" y="727" type="curve"/>
      <point x="178" y="727"/>
      <point x="123" y="662"/>
      <point x="123" y="569" type="curve"/>
      <point x="123" y="467"/>
      <point x="196" y="405"/>
      <point x="262" y="329" type="curve"/>
      <point x="357" y="219"/>
      <point x="462" y="97"/>
      <point x="556" y="-10" type="curve"/>
    </contour>
  </outline>
</glyph>
<glyph name="quotesingle" format="1">
  <advance width="198"/>
  <unicode hex="0027"/>
  <outline>
    <contour>
      <point x="126" y="615" type="line"/>
      <point x="131" y="812" type="line"/>
      <point x="67" y="812" type="line"/>
      <point x="72" y="615" type="line"/>
    </contour>
  </outline>
</glyph>
<glyph name="parenleft" format="1">
  <advance width="317"/>
  <unicode hex="0028"/>
  <outline>
    <contour>
      <point x="314" y="-227" type="curve"/>
      <point x="166" y="-57"/>
      <point x="113" y="100"/>
      <point x="113" y="326" type="curve"/>
      <point x="113" y="552"/>
      <point x="167" y="708"/>
      <point x="313" y="881" type="curve"/>
      <point x="277" y="911"/>
      <point x="313" y="881"/>
      <point x="277" y="911" type="curve"/>
      <point x="120" y="731"/>
      <point x="54" y="568"/>
      <point x="54" y="326" type="curve"/>
      <point x="54" y="84"/>
      <point x="121" y="-79"/>
      <point x="278" y="-260" type="curve"/>
      <point x="314" y="-227"/>
      <point x="278" y="-260"/>
    </contour>
  </outline>
</glyph>
<glyph name="parenright" format="1">
  <advance width="327"/>
  <unicode hex="0029"/>
  <outline>
    <contour>
      <point x="37" y="-275" type="curve"/>
      <point x="197" y="-86"/>
      <point x="274" y="77"/>
      <point x="274" y="328" type="curve"/>
      <point x="274" y="571"/>
      <point x="204" y="733"/>
      <point x="41" y="912" type="curve"/>
      <point x="5" y="880"/>
      <point x="41" y="912"/>
      <point x="5" y="880" type="curve"/>
      <point x="156" y="708"/>
      <point x="214" y="553"/>
      <point x="214" y="325" type="curve"/>
      <point x="214" y="92"/>
      <point x="147" y="-64"/>
      <point x="0" y="-244" type="curve"/>
      <point x="37" y="-275"/>
      <point x="0" y="-244"/>
    </contour>
  </outline>
</glyph>
<glyph name="asterisk" format="1">
  <advance width="634"/>
  <unicode hex="002A"/>
  <outline>
    <contour>
      <point x="337" y="592" type="line"/>
      <point x="341" y="790" type="line"/>
      <point x="290" y="790" type="line"/>
      <point x="294" y="592" type="line"/>
    </contour>
    <contour>
      <point x="376" y="535" type="line"/>
      <point x="565" y="594" type="line"/>
      <point x="549" y="643" type="line"/>
      <point x="362" y="576" type="line"/>
    </contour>
    <contour>
      <point x="334" y="480" type="line"/>
      <point x="451" y="320" type="line"/>
      <point x="491" y="352" type="line"/>
      <point x="368" y="506" type="line"/>
    </contour>
    <contour>
      <point x="269" y="505" type="line"/>
      <point x="146" y="349" type="line"/>
      <point x="186" y="318" type="line"/>
      <point x="303" y="478" type="line"/>
    </contour>
    <contour>
      <point x="271" y="573" type="line"/>
      <point x="85" y="640" type="line"/>
      <point x="68" y="591" type="line"/>
      <point x="257" y="532" type="line"/>
    </contour>
  </outline>
</glyph>
<glyph name="plus" format="1">
  <advance width="614"/>
  <unicode hex="002B"/>
  <outline>
    <contour>
      <point x="43" y="285" type="curve"/>
      <point x="570" y="285" type="line"/>
      <point x="570" y="337"/>
      <point x="570" y="285"/>
      <point x="570" y="337" type="curve"/>
      <point x="43" y="337" type="line"/>
      <point x="43" y="285"/>
      <point x="43" y="337"/>
    </contour>
    <contour>
      <point x="334" y="26" type="curve"/>
      <point x="334" y="586" type="line"/>
      <point x="275" y="586"/>
      <point x="337" y="586"/>
      <point x="278" y="586" type="curve"/>
      <point x="278" y="26" type="line"/>
      <point x="337" y="26"/>
      <point x="275" y="26"/>
    </contour>
  </outline>
</glyph>
<glyph name="comma" format="1">
  <advance width="154"/>
  <unicode hex="002C"/>
  <outline>
    <contour>
      <point x="27" y="-111" type="line"/>
      <point x="75" y="-93"/>
      <point x="110" y="-52"/>
      <point x="110" y="13" type="curve"/>
      <point x="110" y="53"/>
      <point x="97" y="79"/>
      <point x="69" y="79" type="curve"/>
      <point x="47" y="79"/>
      <point x="33" y="68"/>
      <point x="33" y="46" type="curve"/>
      <point x="33" y="27"/>
      <point x="43" y="14"/>
      <point x="64" y="11" type="curve"/>
      <point x="63" y="-14"/>
      <point x="54" y="-55"/>
      <point x="15" y="-76" type="curve"/>
    </contour>
  </outline>
</glyph>
<glyph name="hyphen" format="1">
  <advance width="413"/>
  <unicode hex="002D"/>
  <outline>
    <contour>
      <point x="79" y="249" type="curve"/>
      <point x="164" y="249"/>
      <point x="249" y="249"/>
      <point x="334" y="249" type="curve"/>
      <point x="334" y="301"/>
      <point x="334" y="249"/>
      <point x="334" y="301" type="curve"/>
      <point x="249" y="301"/>
      <point x="164" y="301"/>
      <point x="79" y="301" type="curve"/>
      <point x="79" y="249"/>
      <point x="79" y="301"/>
    </contour>
  </outline>
</glyph>
<glyph name="period" format="1">
  <advance width="202"/>
  <unicode hex="002E"/>
  <outline>
    <contour>
      <point x="137" y="26" type="curve"/>
      <point x="137" y="48"/>
      <point x="122" y="59"/>
      <point x="101" y="59" type="curve"/>
      <point x="80" y="59"/>
      <point x="66" y="47"/>
      <point x="66" y="26" type="curve"/>
      <point x="132" y="26"/>
      <point x="71" y="26"/>
      <point x="137" y="26" type="curve"/>
      <point x="137" y="4"/>
      <point x="122" y="-6"/>
      <point x="101" y="-6" type="curve"/>
      <point x="79" y="-6"/>
      <point x="66" y="5"/>
      <point x="66" y="26" type="curve"/>
      <point x="132" y="26"/>
      <point x="71" y="26"/>
    </contour>
  </outline>
</glyph>
<glyph name="slash" format="1">
  <advance width="487"/>
  <unicode hex="002F"/>
  <outline>
    <contour>
      <point x="86" y="-51" type="curve"/>
      <point x="211" y="241"/>
      <point x="336" y="533"/>
      <point x="460" y="825" type="curve"/>
      <point x="401" y="825"/>
      <point x="460" y="825"/>
      <point x="401" y="825" type="curve"/>
      <point x="277" y="533"/>
      <point x="152" y="241"/>
      <point x="27" y="-51" type="curve"/>
      <point x="86" y="-51"/>
      <point x="27" y="-51"/>
    </contour>
  </outline>
</glyph>
<glyph name="zero" format="1">
  <advance width="647"/>
  <unicode hex="0030"/>
  <outline>
    <contour>
      <point x="124" y="360" type="curve"/>
      <point x="124" y="539"/>
      <point x="170" y="677"/>
      <point x="322" y="677" type="curve"/>
      <point x="476" y="677"/>
      <point x="523" y="541"/>
      <point x="523" y="363" type="curve"/>
      <point x="523" y="184"/>
      <point x="476" y="45"/>
      <point x="328" y="45" type="curve"/>
      <point x="177" y="45"/>
      <point x="124" y="181"/>
      <point x="124" y="360" type="curve"/>
      <point x="66" y="360"/>
      <point x="123" y="360"/>
      <point x="65" y="360" type="curve"/>
      <point x="65" y="149"/>
      <point x="135" y="-5"/>
      <point x="325" y="-5" type="curve"/>
      <point x="515" y="-5"/>
      <point x="582" y="151"/>
      <point x="582" y="363" type="curve"/>
      <point x="582" y="573"/>
      <point x="516" y="727"/>
      <point x="328" y="727" type="curve"/>
      <point x="136" y="727"/>
      <point x="65" y="572"/>
      <point x="65" y="360" type="curve"/>
      <point x="123" y="360"/>
      <point x="66" y="360"/>
    </contour>
  </outline>
</glyph>
<glyph name="one" format="1">
  <advance width="345"/>
  <unicode hex="0031"/>
  <outline>
    <contour>
      <point x="56" y="519" type="curve"/>
      <point x="244" y="693"/>
      <point x="56" y="519"/>
      <point x="244" y="693" type="curve"/>
      <point x="198" y="722"/>
      <point x="244" y="693"/>
      <point x="198" y="722" type="curve"/>
      <point x="21" y="558"/>
      <point x="198" y="722"/>
      <point x="21" y="558" type="curve"/>
      <point x="56" y="519"/>
      <point x="21" y="558"/>
    </contour>
    <contour>
      <point x="256" y="0" type="curve"/>
      <point x="256" y="241"/>
      <point x="256" y="481"/>
      <point x="256" y="722" type="curve"/>
      <point x="198" y="722"/>
      <point x="256" y="722"/>
      <point x="198" y="722" type="curve"/>
      <point x="198" y="481"/>
      <point x="198" y="241"/>
      <point x="198" y="0" type="curve"/>
      <point x="256" y="0"/>
      <point x="198" y="0"/>
    </contour>
  </outline>
</glyph>
<glyph name="two" format="1">
  <advance width="508"/>
  <unicode hex="0032"/>
  <outline>
    <contour>
      <point x="43" y="0" type="curve"/>
      <point x="197" y="0"/>
      <point x="324" y="0"/>
      <point x="454" y="0" type="curve"/>
      <point x="454" y="47"/>
      <point x="454" y="0"/>
      <point x="454" y="47" type="curve"/>
      <point x="315" y="47"/>
      <point x="182" y="48"/>
      <point x="43" y="48" type="curve"/>
      <point x="43" y="0"/>
      <point x="43" y="47"/>
    </contour>
    <contour>
      <point x="98" y="549" type="curve"/>
      <point x="137" y="622"/>
      <point x="174" y="677"/>
      <point x="252" y="677" type="curve"/>
      <point x="340" y="677"/>
      <point x="382" y="615"/>
      <point x="382" y="519" type="curve"/>
      <point x="382" y="404"/>
      <point x="305" y="313"/>
      <point x="241" y="251" type="curve"/>
      <point x="175" y="182"/>
      <point x="110" y="115"/>
      <point x="43" y="48" type="curve"/>
      <point x="51" y="0"/>
      <point x="43" y="47"/>
      <point x="51" y="0" type="curve"/>
      <point x="140" y="69"/>
      <point x="209" y="143"/>
      <point x="278" y="215" type="curve"/>
      <point x="356" y="288"/>
      <point x="439" y="385"/>
      <point x="439" y="522" type="curve"/>
      <point x="439" y="648"/>
      <point x="376" y="727"/>
      <point x="255" y="727" type="curve"/>
      <point x="156" y="727"/>
      <point x="96" y="665"/>
      <point x="55" y="574" type="curve"/>
      <point x="98" y="549"/>
      <point x="55" y="574"/>
    </contour>
  </outline>
</glyph>
<glyph name="three" format="1">
  <advance width="499"/>
  <unicode hex="0033"/>
  <outline>
    <contour>
      <point x="51" y="57" type="curve"/>
      <point x="104" y="19"/>
      <point x="151" y="-5"/>
      <point x="219" y="-5" type="curve"/>
      <point x="355" y="-5"/>
      <point x="437" y="63"/>
      <point x="437" y="200" type="curve"/>
      <point x="437" y="330"/>
      <point x="315" y="396"/>
      <point x="144" y="396" type="curve"/>
      <point x="144" y="362"/>
      <point x="144" y="390"/>
      <point x="144" y="356" type="curve"/>
      <point x="273" y="356"/>
      <point x="379" y="302"/>
      <point x="379" y="198" type="curve"/>
      <point x="379" y="96"/>
      <point x="311" y="46"/>
      <point x="222" y="46" type="curve"/>
      <point x="168" y="46"/>
      <point x="130" y="64"/>
      <point x="81" y="94" type="curve"/>
      <point x="51" y="57"/>
      <point x="81" y="94"/>
    </contour>
    <contour>
      <point x="92" y="608" type="curve"/>
      <point x="118" y="641"/>
      <point x="162" y="677"/>
      <point x="217" y="677" type="curve"/>
      <point x="302" y="677"/>
      <point x="350" y="630"/>
      <point x="350" y="544" type="curve"/>
      <point x="350" y="453"/>
      <point x="258" y="404"/>
      <point x="144" y="404" type="curve"/>
      <point x="144" y="370"/>
      <point x="144" y="398"/>
      <point x="144" y="363" type="curve"/>
      <point x="294" y="363"/>
      <point x="408" y="424"/>
      <point x="408" y="546" type="curve"/>
      <point x="408" y="662"/>
      <point x="338" y="727"/>
      <point x="222" y="727" type="curve"/>
      <point x="148" y="727"/>
      <point x="87" y="683"/>
      <point x="55" y="639" type="curve"/>
      <point x="92" y="608"/>
      <point x="55" y="639"/>
    </contour>
  </outline>
</glyph>
<glyph name="four" format="1">
  <advance width="544"/>
  <unicode hex="0034"/>
  <outline>
    <contour>
      <point x="52" y="266" type="line"/>
      <point x="353" y="707" type="line"/>
      <point x="304" y="715" type="line"/>
      <point x="23" y="305" type="line"/>
    </contour>
    <contour>
      <point x="505" y="305" type="line"/>
      <point x="23" y="305" type="line"/>
      <point x="23" y="254" type="line"/>
      <point x="505" y="254" type="line"/>
    </contour>
    <contour>
      <point x="363" y="0" type="line"/>
      <point x="363" y="715" type="line"/>
      <point x="305" y="715" type="line"/>
      <point x="305" y="0" type="line"/>
    </contour>
  </outline>
</glyph>
<glyph name="five" format="1">
  <advance width="486"/>
  <unicode hex="0035"/>
  <outline>
    <contour>
      <point x="88" y="722" type="curve"/>
      <point x="88" y="621"/>
      <point x="88" y="514"/>
      <point x="88" y="396" type="curve"/>
      <point x="145" y="379"/>
      <point x="88" y="396"/>
      <point x="145" y="379" type="curve"/>
      <point x="145" y="477"/>
      <point x="145" y="577"/>
      <point x="145" y="675" type="curve"/>
      <point x="88" y="722"/>
      <point x="145" y="675"/>
    </contour>
    <contour>
      <point x="145" y="379" type="curve"/>
      <point x="162" y="391"/>
      <point x="201" y="404"/>
      <point x="231" y="404" type="curve"/>
      <point x="327" y="404"/>
      <point x="372" y="329"/>
      <point x="372" y="229" type="curve"/>
      <point x="372" y="126"/>
      <point x="316" y="45"/>
      <point x="218" y="45" type="curve"/>
      <point x="166" y="45"/>
      <point x="129" y="59"/>
      <point x="81" y="86" type="curve"/>
      <point x="52" y="44"/>
      <point x="81" y="86"/>
      <point x="52" y="44" type="curve"/>
      <point x="102" y="13"/>
      <point x="155" y="-5"/>
      <point x="219" y="-5" type="curve"/>
      <point x="349" y="-5"/>
      <point x="431" y="94"/>
      <point x="431" y="229" type="curve"/>
      <point x="431" y="359"/>
      <point x="362" y="454"/>
      <point x="237" y="454" type="curve"/>
      <point x="188" y="454"/>
      <point x="133" y="437"/>
      <point x="96" y="399" type="curve"/>
      <point x="145" y="381"/>
      <point x="95" y="397"/>
    </contour>
    <contour>
      <point x="408" y="722" type="curve"/>
      <point x="300" y="722"/>
      <point x="194" y="722"/>
      <point x="88" y="722" type="curve"/>
      <point x="145" y="675"/>
      <point x="88" y="722"/>
      <point x="145" y="675" type="curve"/>
      <point x="232" y="675"/>
      <point x="319" y="675"/>
      <point x="408" y="675" type="curve"/>
      <point x="408" y="722"/>
      <point x="408" y="675"/>
    </contour>
  </outline>
</glyph>
<glyph name="six" format="1">
  <advance width="539"/>
  <unicode hex="0036"/>
  <outline>
    <contour>
      <point x="110" y="225" type="curve"/>
      <point x="136" y="305"/>
      <point x="192" y="371"/>
      <point x="281" y="371" type="curve"/>
      <point x="375" y="371"/>
      <point x="421" y="308"/>
      <point x="421" y="209" type="curve"/>
      <point x="421" y="119"/>
      <point x="375" y="48"/>
      <point x="284" y="48" type="curve"/>
      <point x="173" y="48"/>
      <point x="119" y="129"/>
      <point x="119" y="247" type="curve"/>
      <point x="119" y="478"/>
      <point x="258" y="615"/>
      <point x="478" y="688" type="curve"/>
      <point x="461" y="733"/>
      <point x="478" y="688"/>
      <point x="461" y="733" type="curve"/>
      <point x="220" y="656"/>
      <point x="61" y="506"/>
      <point x="61" y="245" type="curve"/>
      <point x="61" y="94"/>
      <point x="137" y="-7"/>
      <point x="283" y="-7" type="curve"/>
      <point x="411" y="-7"/>
      <point x="481" y="78"/>
      <point x="481" y="210" type="curve"/>
      <point x="481" y="339"/>
      <point x="412" y="421"/>
      <point x="288" y="421" type="curve"/>
      <point x="173" y="421"/>
      <point x="103" y="337"/>
      <point x="75" y="243" type="curve"/>
      <point x="109" y="225"/>
      <point x="77" y="243"/>
    </contour>
  </outline>
</glyph>
<glyph name="seven" format="1">
  <advance width="481"/>
  <unicode hex="0037"/>
  <outline>
    <contour>
      <point x="38" y="675" type="curve"/>
      <point x="466" y="675" type="curve"/>
      <point x="466" y="722" type="curve"/>
      <point x="38" y="722" type="curve"/>
    </contour>
    <contour>
      <point x="429" y="722" type="curve"/>
      <point x="64" y="0" type="curve"/>
      <point x="130" y="0" type="curve"/>
      <point x="466" y="675" type="curve"/>
    </contour>
  </outline>
</glyph>
<glyph name="eight" format="1">
  <advance width="528"/>
  <unicode hex="0038"/>
  <outline>
    <contour>
      <point x="82" y="556" type="curve"/>
      <point x="82" y="450"/>
      <point x="153" y="412"/>
      <point x="246" y="360" type="curve"/>
      <point x="336" y="310"/>
      <point x="403" y="271"/>
      <point x="403" y="176" type="curve"/>
      <point x="403" y="90"/>
      <point x="351" y="45"/>
      <point x="263" y="45" type="curve"/>
      <point x="174" y="45"/>
      <point x="124" y="91"/>
      <point x="124" y="176" type="curve"/>
      <point x="124" y="273"/>
      <point x="193" y="309"/>
      <point x="283" y="360" type="curve"/>
      <point x="374" y="413"/>
      <point x="445" y="451"/>
      <point x="445" y="554" type="curve"/>
      <point x="445" y="668"/>
      <point x="380" y="727"/>
      <point x="263" y="727" type="curve"/>
      <point x="149" y="727"/>
      <point x="82" y="666"/>
      <point x="82" y="556" type="curve"/>
      <point x="140" y="556"/>
      <point x="82" y="556"/>
      <point x="140" y="556" type="curve"/>
      <point x="140" y="632"/>
      <point x="183" y="677"/>
      <point x="261" y="677" type="curve"/>
      <point x="343" y="677"/>
      <point x="387" y="634"/>
      <point x="387" y="554" type="curve"/>
      <point x="387" y="471"/>
      <point x="325" y="438"/>
      <point x="246" y="395" type="curve"/>
      <point x="142" y="337"/>
      <point x="65" y="293"/>
      <point x="65" y="176" type="curve"/>
      <point x="65" y="58"/>
      <point x="138" y="-5"/>
      <point x="260" y="-5" type="curve"/>
      <point x="384" y="-5"/>
      <point x="462" y="55"/>
      <point x="462" y="176" type="curve"/>
      <point x="462" y="292"/>
      <point x="385" y="338"/>
      <point x="283" y="395" type="curve"/>
      <point x="204" y="441"/>
      <point x="140" y="471"/>
      <point x="140" y="556" type="curve"/>
      <point x="82" y="556"/>
      <point x="140" y="556"/>
    </contour>
  </outline>
</glyph>
<glyph name="nine" format="1">
  <advance width="538"/>
  <unicode hex="0039"/>
  <outline>
    <contour>
      <point x="431" y="487" type="curve"/>
      <point x="399" y="410"/>
      <point x="351" y="351"/>
      <point x="260" y="351" type="curve"/>
      <point x="165" y="351"/>
      <point x="116" y="415"/>
      <point x="116" y="515" type="curve"/>
      <point x="116" y="609"/>
      <point x="163" y="674"/>
      <point x="253" y="674" type="curve"/>
      <point x="365" y="674"/>
      <point x="419" y="592"/>
      <point x="419" y="475" type="curve"/>
      <point x="419" y="244"/>
      <point x="290" y="107"/>
      <point x="65" y="34" type="curve"/>
      <point x="85" y="-14"/>
      <point x="65" y="34"/>
      <point x="85" y="-14" type="curve"/>
      <point x="328" y="62"/>
      <point x="476" y="216"/>
      <point x="476" y="477" type="curve"/>
      <point x="476" y="628"/>
      <point x="402" y="729"/>
      <point x="255" y="729" type="curve"/>
      <point x="127" y="729"/>
      <point x="58" y="644"/>
      <point x="58" y="512" type="curve"/>
      <point x="58" y="383"/>
      <point x="128" y="301"/>
      <point x="255" y="301" type="curve"/>
      <point x="366" y="301"/>
      <point x="426" y="375"/>
      <point x="461" y="473" type="curve"/>
      <point x="431" y="487"/>
      <point x="461" y="473"/>
    </contour>
  </outline>
</glyph>
<glyph name="colon" format="1">
  <advance width="222"/>
  <unicode hex="003A"/>
  <outline>
    <contour>
      <point x="143" y="408" type="curve"/>
      <point x="143" y="430"/>
      <point x="128" y="441"/>
      <point x="107" y="441" type="curve"/>
      <point x="86" y="441"/>
      <point x="72" y="428"/>
      <point x="72" y="408" type="curve"/>
      <point x="138" y="408"/>
      <point x="77" y="408"/>
      <point x="143" y="408" type="curve"/>
      <point x="143" y="386"/>
      <point x="128" y="375"/>
      <point x="107" y="375" type="curve"/>
      <point x="85" y="375"/>
      <point x="72" y="386"/>
      <point x="72" y="408" type="curve"/>
      <point x="138" y="408"/>
      <point x="77" y="408"/>
    </contour>
    <contour>
      <point x="143" y="28" type="curve"/>
      <point x="143" y="50"/>
      <point x="128" y="61"/>
      <point x="107" y="61" type="curve"/>
      <point x="86" y="61"/>
      <point x="72" y="48"/>
      <point x="72" y="28" type="curve"/>
      <point x="138" y="28"/>
      <point x="77" y="28"/>
      <point x="143" y="28" type="curve"/>
      <point x="143" y="6"/>
      <point x="128" y="-5"/>
      <point x="107" y="-5" type="curve"/>
      <point x="85" y="-5"/>
      <point x="72" y="6"/>
      <point x="72" y="28" type="curve"/>
      <point x="138" y="28"/>
      <point x="77" y="28"/>
    </contour>
  </outline>
</glyph>
<glyph name="semicolon" format="1">
  <advance width="183"/>
  <unicode hex="003B"/>
  <outline>
    <contour>
      <point x="41" y="-125" type="line"/>
      <point x="91" y="-107"/>
      <point x="128" y="-66"/>
      <point x="128" y="-1" type="curve"/>
      <point x="128" y="38"/>
      <point x="114" y="65"/>
      <point x="85" y="65" type="curve"/>
      <point x="62" y="65"/>
      <point x="47" y="54"/>
      <point x="47" y="32" type="curve"/>
      <point x="47" y="13"/>
      <point x="58" y="0"/>
      <point x="79" y="-3" type="curve"/>
      <point x="79" y="-29"/>
      <point x="70" y="-70"/>
      <point x="30" y="-90" type="curve"/>
    </contour>
    <contour>
      <point x="121" y="413" type="curve"/>
      <point x="121" y="435"/>
      <point x="106" y="446"/>
      <point x="85" y="446" type="curve"/>
      <point x="64" y="446"/>
      <point x="51" y="434"/>
      <point x="51" y="413" type="curve"/>
      <point x="117" y="413"/>
      <point x="55" y="413"/>
      <point x="121" y="413" type="curve"/>
      <point x="121" y="391"/>
      <point x="107" y="380"/>
      <point x="85" y="380" type="curve"/>
      <point x="64" y="380"/>
      <point x="51" y="392"/>
      <point x="51" y="413" type="curve"/>
      <point x="117" y="413"/>
      <point x="55" y="413"/>
    </contour>
  </outline>
</glyph>
<glyph name="less" format="1">
  <advance width="634"/>
  <unicode hex="003C"/>
  <outline>
    <contour>
      <point x="571" y="596" type="curve"/>
      <point x="393" y="506"/>
      <point x="215" y="416"/>
      <point x="37" y="326" type="curve"/>
      <point x="37" y="274"/>
      <point x="37" y="326"/>
      <point x="37" y="274" type="curve"/>
      <point x="215" y="364"/>
      <point x="393" y="454"/>
      <point x="571" y="544" type="curve"/>
      <point x="571" y="596"/>
      <point x="571" y="544"/>
    </contour>
    <contour>
      <point x="580" y="62" type="curve"/>
      <point x="399" y="150"/>
      <point x="218" y="238"/>
      <point x="37" y="326" type="curve"/>
      <point x="37" y="274"/>
      <point x="37" y="326"/>
      <point x="37" y="274" type="curve"/>
      <point x="218" y="186"/>
      <point x="399" y="98"/>
      <point x="580" y="10" type="curve"/>
      <point x="580" y="62"/>
      <point x="580" y="10"/>
    </contour>
  </outline>
</glyph>
<glyph name="equal" format="1">
  <advance width="660"/>
  <unicode hex="003D"/>
  <outline>
    <contour>
      <point x="63" y="192" type="curve"/>
      <point x="247" y="192"/>
      <point x="431" y="192"/>
      <point x="615" y="192" type="curve"/>
      <point x="615" y="243"/>
      <point x="615" y="192"/>
      <point x="615" y="243" type="curve"/>
      <point x="431" y="243"/>
      <point x="247" y="243"/>
      <point x="63" y="243" type="curve"/>
      <point x="63" y="192"/>
      <point x="63" y="243"/>
    </contour>
    <contour>
      <point x="63" y="414" type="curve"/>
      <point x="247" y="414"/>
      <point x="431" y="414"/>
      <point x="615" y="414" type="curve"/>
      <point x="615" y="465"/>
      <point x="615" y="414"/>
      <point x="615" y="465" type="curve"/>
      <point x="431" y="465"/>
      <point x="247" y="465"/>
      <point x="63" y="465" type="curve"/>
      <point x="63" y="414"/>
      <point x="63" y="465"/>
    </contour>
  </outline>
</glyph>
<glyph name="question" format="1">
  <advance width="462"/>
  <unicode hex="003F"/>
  <outline>
    <contour>
      <point x="181" y="347" type="curve"/>
      <point x="181" y="310"/>
      <point x="181" y="258"/>
      <point x="181" y="221" type="curve"/>
      <point x="238" y="221"/>
      <point x="181" y="221"/>
      <point x="238" y="221" type="curve"/>
      <point x="238" y="258"/>
      <point x="238" y="310"/>
      <point x="238" y="347" type="curve"/>
      <point x="181" y="347"/>
      <point x="238" y="347"/>
    </contour>
    <contour>
      <point x="86" y="610" type="line"/>
      <point x="114" y="645"/>
      <point x="155" y="672"/>
      <point x="210" y="672" type="curve"/>
      <point x="300" y="672"/>
      <point x="351" y="611"/>
      <point x="351" y="519" type="curve"/>
      <point x="351" y="417"/>
      <point x="291" y="347"/>
      <point x="188" y="347" type="curve"/>
      <point x="188" y="322"/>
      <point x="188" y="325"/>
      <point x="188" y="300" type="curve"/>
      <point x="324" y="300"/>
      <point x="408" y="387"/>
      <point x="408" y="519" type="curve"/>
      <point x="408" y="642"/>
      <point x="333" y="722"/>
      <point x="213" y="722" type="curve"/>
      <point x="139" y="722"/>
      <point x="89" y="691"/>
      <point x="52" y="645" type="curve"/>
    </contour>
    <contour>
      <point x="244" y="23" type="curve"/>
      <point x="244" y="44"/>
      <point x="230" y="55"/>
      <point x="209" y="55" type="curve"/>
      <point x="188" y="55"/>
      <point x="175" y="43"/>
      <point x="175" y="23" type="curve"/>
      <point x="244" y="23"/>
      <point x="175" y="23"/>
      <point x="244" y="23" type="curve"/>
      <point x="244" y="1"/>
      <point x="230" y="-9"/>
      <point x="209" y="-9" type="curve"/>
      <point x="188" y="-9"/>
      <point x="175" y="2"/>
      <point x="175" y="23" type="curve"/>
      <point x="244" y="23"/>
      <point x="175" y="23"/>
    </contour>
  </outline>
</glyph>
<glyph name="at" format="1">
  <advance width="758"/>
  <unicode hex="0040"/>
  <outline>
    <contour>
      <point x="521" y="-69" type="curve"/>
      <point x="477" y="-96"/>
      <point x="443" y="-104"/>
      <point x="390" y="-104" type="curve"/>
      <point x="209" y="-104"/>
      <point x="114" y="15"/>
      <point x="114" y="202" type="curve"/>
      <point x="114" y="385"/>
      <point x="209" y="501"/>
      <point x="386" y="501" type="curve"/>
      <point x="553" y="501"/>
      <point x="640" y="385"/>
      <point x="640" y="213" type="curve"/>
      <point x="640" y="138"/>
      <point x="633" y="73"/>
      <point x="584" y="73" type="curve"/>
      <point x="531" y="73"/>
      <point x="522" y="134"/>
      <point x="522" y="207" type="curve"/>
      <point x="522" y="312"/>
      <point x="476" y="386"/>
      <point x="376" y="386" type="curve"/>
      <point x="270" y="386"/>
      <point x="220" y="315"/>
      <point x="220" y="206" type="curve"/>
      <point x="220" y="93"/>
      <point x="264" y="16"/>
      <point x="370" y="16" type="curve"/>
      <point x="466" y="16"/>
      <point x="500" y="91"/>
      <point x="513" y="194" type="curve"/>
      <point x="477" y="202"/>
      <point x="513" y="194"/>
      <point x="477" y="202" type="curve"/>
      <point x="461" y="129"/>
      <point x="443" y="64"/>
      <point x="377" y="64" type="curve"/>
      <point x="301" y="64"/>
      <point x="275" y="124"/>
      <point x="275" y="209" type="curve"/>
      <point x="275" y="285"/>
      <point x="302" y="338"/>
      <point x="372" y="338" type="curve"/>
      <point x="444" y="338"/>
      <point x="469" y="282"/>
      <point x="469" y="204" type="curve"/>
      <point x="469" y="106"/>
      <point x="490" y="28"/>
      <point x="579" y="28" type="curve"/>
      <point x="672" y="28"/>
      <point x="694" y="109"/>
      <point x="694" y="215" type="curve"/>
      <point x="694" y="420"/>
      <point x="590" y="551"/>
      <point x="388" y="551" type="curve"/>
      <point x="174" y="551"/>
      <point x="59" y="417"/>
      <point x="59" y="199" type="curve"/>
      <point x="59" y="-17"/>
      <point x="174" y="-151"/>
      <point x="387" y="-151" type="curve"/>
      <point x="451" y="-151"/>
      <point x="493" y="-141"/>
      <point x="545" y="-110" type="curve"/>
      <point x="521" y="-69"/>
      <point x="545" y="-110"/>
    </contour>
  </outline>
</glyph>
<glyph name="B" format="1">
  <advance width="578"/>
  <unicode hex="0042"/>
  <outline>
    <contour>
      <point x="132" y="675" type="curve"/>
      <point x="191" y="675"/>
      <point x="239" y="675"/>
      <point x="298" y="675" type="curve"/>
      <point x="376" y="675"/>
      <point x="421" y="627"/>
      <point x="421" y="549" type="curve"/>
      <point x="421" y="472"/>
      <point x="367" y="432"/>
      <point x="290" y="432" type="curve"/>
      <point x="233" y="432"/>
      <point x="188" y="432"/>
      <point x="132" y="432" type="curve"/>
      <point x="132" y="406"/>
      <point x="132" y="410"/>
      <point x="132" y="384" type="curve"/>
      <point x="179" y="384"/>
      <point x="219" y="384"/>
      <point x="267" y="384" type="curve"/>
      <point x="379" y="384"/>
      <point x="480" y="433"/>
      <point x="480" y="548" type="curve"/>
      <point x="480" y="659"/>
      <point x="412" y="722"/>
      <point x="300" y="722" type="curve"/>
      <point x="240" y="722"/>
      <point x="192" y="722"/>
      <point x="132" y="722" type="curve"/>
      <point x="132" y="696"/>
      <point x="132" y="700"/>
    </contour>
    <contour>
      <point x="172" y="0" type="curve"/>
      <point x="172" y="241"/>
      <point x="172" y="481"/>
      <point x="172" y="722" type="curve"/>
      <point x="110" y="722"/>
      <point x="172" y="722"/>
      <point x="110" y="722" type="curve"/>
      <point x="110" y="481"/>
      <point x="110" y="241"/>
      <point x="110" y="0" type="curve"/>
      <point x="172" y="0"/>
      <point x="110" y="0"/>
    </contour>
    <contour>
      <point x="132" y="384" type="curve"/>
      <point x="188" y="384"/>
      <point x="233" y="384"/>
      <point x="290" y="384" type="curve"/>
      <point x="399" y="384"/>
      <point x="463" y="321"/>
      <point x="463" y="211" type="curve"/>
      <point x="463" y="108"/>
      <point x="403" y="47"/>
      <point x="299" y="47" type="curve"/>
      <point x="239" y="47"/>
      <point x="192" y="47"/>
      <point x="132" y="47" type="curve"/>
      <point x="132" y="22"/>
      <point x="132" y="26"/>
      <point x="132" y="0" type="curve"/>
      <point x="192" y="0"/>
      <point x="240" y="0"/>
      <point x="301" y="0" type="curve"/>
      <point x="438" y="0"/>
      <point x="522" y="75"/>
      <point x="522" y="210" type="curve"/>
      <point x="522" y="359"/>
      <point x="413" y="432"/>
      <point x="267" y="432" type="curve"/>
      <point x="219" y="432"/>
      <point x="179" y="432"/>
      <point x="132" y="432" type="curve"/>
      <point x="132" y="406"/>
      <point x="132" y="410"/>
    </contour>
  </outline>
</glyph>
<glyph name="C" format="1">
  <advance width="615"/>
  <unicode hex="0043"/>
  <outline>
    <contour>
      <point x="572" y="655" type="curve"/>
      <point x="512" y="695"/>
      <point x="443" y="727"/>
      <point x="363" y="727" type="curve"/>
      <point x="154" y="727"/>
      <point x="62" y="571"/>
      <point x="62" y="344" type="curve"/>
      <point x="62" y="136"/>
      <point x="149" y="-5"/>
      <point x="344" y="-5" type="curve"/>
      <point x="449" y="-5"/>
      <point x="515" y="30"/>
      <point x="587" y="96" type="curve"/>
      <point x="554" y="133"/>
      <point x="586" y="96"/>
      <point x="553" y="133" type="curve"/>
      <point x="490" y="77"/>
      <point x="434" y="46"/>
      <point x="347" y="46" type="curve"/>
      <point x="185" y="46"/>
      <point x="121" y="171"/>
      <point x="121" y="346" type="curve"/>
      <point x="121" y="538"/>
      <point x="188" y="677"/>
      <point x="361" y="677" type="curve"/>
      <point x="429" y="677"/>
      <point x="489" y="652"/>
      <point x="542" y="617" type="curve"/>
      <point x="572" y="655"/>
      <point x="542" y="617"/>
    </contour>
    <contour>
      <point x="358" y="812" type="move" name="top"/>
    </contour>
    <contour>
      <point x="355" y="1" type="move" name="bottom"/>
    </contour>
  </outline>
</glyph>
<glyph name="D" format="1">
  <advance width="676"/>
  <unicode hex="0044"/>
  <outline>
    <contour>
      <point x="110" y="722" type="curve"/>
      <point x="110" y="481"/>
      <point x="110" y="241"/>
      <point x="110" y="0" type="curve"/>
      <point x="169" y="0"/>
      <point x="110" y="0"/>
      <point x="169" y="0" type="curve"/>
      <point x="169" y="241"/>
      <point x="169" y="481"/>
      <point x="169" y="722" type="curve"/>
      <point x="110" y="722"/>
      <point x="169" y="722"/>
    </contour>
    <contour>
      <point x="141" y="0" type="curve"/>
      <point x="198" y="0"/>
      <point x="246" y="0"/>
      <point x="304" y="0" type="curve"/>
      <point x="514" y="0"/>
      <point x="613" y="136"/>
      <point x="613" y="354" type="curve"/>
      <point x="613" y="581"/>
      <point x="511" y="722"/>
      <point x="295" y="722" type="curve"/>
      <point x="241" y="722"/>
      <point x="195" y="722"/>
      <point x="141" y="722" type="curve"/>
      <point x="141" y="682"/>
      <point x="141" y="715"/>
      <point x="141" y="675" type="curve"/>
      <point x="194" y="675"/>
      <point x="239" y="675"/>
      <point x="292" y="675" type="curve"/>
      <point x="476" y="675"/>
      <point x="554" y="548"/>
      <point x="554" y="353" type="curve"/>
      <point x="554" y="169"/>
      <point x="482" y="47"/>
      <point x="309" y="47" type="curve"/>
      <point x="250" y="47"/>
      <point x="200" y="47"/>
      <point x="141" y="47" type="curve"/>
      <point x="141" y="7"/>
      <point x="141" y="40"/>
    </contour>
    <contour>
      <point x="277" y="812" type="move" name="top"/>
    </contour>
  </outline>
</glyph>
<glyph name="E" format="1">
  <advance width="542"/>
  <unicode hex="0045"/>
  <outline>
    <contour>
      <point x="144" y="350" type="curve"/>
      <point x="240" y="350"/>
      <point x="336" y="350"/>
      <point x="433" y="350" type="curve"/>
      <point x="433" y="397"/>
      <point x="433" y="350"/>
      <point x="433" y="397" type="curve"/>
      <point x="336" y="397"/>
      <point x="240" y="397"/>
      <point x="144" y="397" type="curve"/>
      <point x="144" y="350"/>
      <point x="144" y="397"/>
    </contour>
    <contour>
      <point x="131" y="675" type="curve"/>
      <point x="250" y="675"/>
      <point x="369" y="675"/>
      <point x="488" y="675" type="curve"/>
      <point x="488" y="722"/>
      <point x="488" y="675"/>
      <point x="488" y="722" type="curve"/>
      <point x="369" y="722"/>
      <point x="250" y="722"/>
      <point x="131" y="722" type="curve"/>
      <point x="131" y="675"/>
      <point x="131" y="722"/>
    </contour>
    <contour>
      <point x="169" y="0" type="curve"/>
      <point x="169" y="722" type="line"/>
      <point x="110" y="722"/>
      <point x="169" y="722"/>
      <point x="110" y="722" type="curve"/>
      <point x="110" y="481"/>
      <point x="110" y="241"/>
      <point x="110" y="0" type="curve"/>
      <point x="169" y="0"/>
      <point x="110" y="0"/>
    </contour>
    <contour>
      <point x="131" y="0" type="curve"/>
      <point x="260" y="0"/>
      <point x="388" y="0"/>
      <point x="517" y="0" type="curve"/>
      <point x="517" y="47"/>
      <point x="517" y="0"/>
      <point x="517" y="47" type="curve"/>
      <point x="388" y="47"/>
      <point x="260" y="47"/>
      <point x="131" y="47" type="curve"/>
      <point x="131" y="0"/>
      <point x="131" y="47"/>
    </contour>
    <contour>
      <point x="273" y="812" type="move" name="top"/>
    </contour>
    <contour>
      <point x="504" y="3" type="move" name="bottom"/>
    </contour>
  </outline>
</glyph>
<glyph name="F" format="1">
  <advance width="512"/>
  <unicode hex="0046"/>
  <outline>
    <contour>
      <point x="143" y="350" type="curve"/>
      <point x="238" y="350"/>
      <point x="332" y="350"/>
      <point x="426" y="350" type="curve"/>
      <point x="426" y="397"/>
      <point x="426" y="350"/>
      <point x="426" y="397" type="curve"/>
      <point x="332" y="397"/>
      <point x="238" y="397"/>
      <point x="143" y="397" type="curve"/>
      <point x="143" y="350"/>
      <point x="143" y="397"/>
    </contour>
    <contour>
      <point x="169" y="0" type="curve"/>
      <point x="169" y="722" type="line"/>
      <point x="110" y="722"/>
      <point x="169" y="722"/>
      <point x="110" y="722" type="curve"/>
      <point x="110" y="481"/>
      <point x="110" y="241"/>
      <point x="110" y="0" type="curve"/>
      <point x="169" y="0"/>
      <point x="110" y="0"/>
    </contour>
    <contour>
      <point x="130" y="675" type="curve"/>
      <point x="250" y="675"/>
      <point x="370" y="675"/>
      <point x="491" y="675" type="curve"/>
      <point x="491" y="722"/>
      <point x="491" y="675"/>
      <point x="491" y="722" type="curve"/>
      <point x="370" y="722"/>
      <point x="250" y="722"/>
      <point x="130" y="722" type="curve"/>
      <point x="130" y="675"/>
      <point x="130" y="722"/>
    </contour>
  </outline>
</glyph>
<glyph name="G" format="1">
  <advance width="704"/>
  <unicode hex="0047"/>
  <outline>
    <contour>
      <point x="620" y="334" type="curve"/>
      <point x="556" y="334"/>
      <point x="491" y="334"/>
      <point x="427" y="334" type="curve"/>
      <point x="427" y="286"/>
      <point x="427" y="334"/>
      <point x="427" y="286" type="curve"/>
      <point x="491" y="286"/>
      <point x="556" y="286"/>
      <point x="620" y="286" type="curve"/>
      <point x="620" y="334"/>
      <point x="620" y="286"/>
    </contour>
    <contour>
      <point x="637" y="78" type="curve"/>
      <point x="637" y="163"/>
      <point x="637" y="248"/>
      <point x="637" y="334" type="curve"/>
      <point x="584" y="334"/>
      <point x="637" y="334"/>
      <point x="584" y="334" type="curve"/>
      <point x="584" y="248"/>
      <point x="584" y="163"/>
      <point x="584" y="78" type="curve"/>
      <point x="637" y="78"/>
      <point x="584" y="78"/>
    </contour>
    <contour>
      <point x="622" y="643" type="curve"/>
      <point x="543" y="699"/>
      <point x="468" y="727"/>
      <point x="370" y="727" type="curve"/>
      <point x="162" y="727"/>
      <point x="61" y="584"/>
      <point x="61" y="364" type="curve"/>
      <point x="61" y="138"/>
      <point x="166" y="-5"/>
      <point x="379" y="-5" type="curve"/>
      <point x="484" y="-5"/>
      <point x="550" y="23"/>
      <point x="637" y="78" type="curve"/>
      <point x="606" y="115"/>
      <point x="637" y="78"/>
      <point x="606" y="115" type="curve"/>
      <point x="538" y="71"/>
      <point x="470" y="46"/>
      <point x="380" y="46" type="curve"/>
      <point x="199" y="46"/>
      <point x="121" y="175"/>
      <point x="121" y="368" type="curve"/>
      <point x="121" y="551"/>
      <point x="198" y="677"/>
      <point x="370" y="677" type="curve"/>
      <point x="456" y="677"/>
      <point x="522" y="652"/>
      <point x="594" y="603" type="curve"/>
      <point x="622" y="643"/>
      <point x="594" y="603"/>
    </contour>
    <contour>
      <point x="368" y="812" type="move" name="top"/>
    </contour>
    <contour>
      <point x="393" y="-40" type="move" name="bottom"/>
    </contour>
  </outline>
</glyph>
<glyph name="H" format="1">
  <advance width="720"/>
  <unicode hex="0048"/>
  <outline>
    <contour>
      <point x="169" y="0" type="curve"/>
      <point x="169" y="722" type="line"/>
      <point x="110" y="722"/>
      <point x="169" y="722"/>
      <point x="110" y="722" type="curve"/>
      <point x="110" y="481"/>
      <point x="110" y="241"/>
      <point x="110" y="0" type="curve"/>
      <point x="169" y="0"/>
      <point x="110" y="0"/>
    </contour>
    <contour>
      <point x="579" y="387" type="curve"/>
      <point x="432" y="387"/>
      <point x="286" y="387"/>
      <point x="139" y="387" type="curve"/>
      <point x="139" y="339"/>
      <point x="139" y="387"/>
      <point x="139" y="339" type="curve"/>
      <point x="286" y="339"/>
      <point x="432" y="339"/>
      <point x="579" y="339" type="curve"/>
      <point x="579" y="387"/>
      <point x="579" y="339"/>
    </contour>
    <contour>
      <point x="610" y="1" type="curve"/>
      <point x="610" y="232"/>
      <point x="610" y="490"/>
      <point x="610" y="721" type="curve"/>
      <point x="552" y="721"/>
      <point x="610" y="721"/>
      <point x="552" y="721" type="curve"/>
      <point x="552" y="1" type="line"/>
      <point x="610" y="1"/>
      <point x="552" y="1"/>
    </contour>
  </outline>
</glyph>
<glyph name="J" format="1">
  <advance width="408"/>
  <unicode hex="004A"/>
  <outline>
    <contour>
      <point x="11" y="41" type="curve"/>
      <point x="40" y="18"/>
      <point x="78" y="-4"/>
      <point x="127" y="-4" type="curve"/>
      <point x="253" y="-4"/>
      <point x="306" y="81"/>
      <point x="306" y="224" type="curve"/>
      <point x="306" y="401"/>
      <point x="306" y="544"/>
      <point x="306" y="722" type="curve"/>
      <point x="254" y="722"/>
      <point x="298" y="722"/>
      <point x="246" y="722" type="curve"/>
      <point x="246" y="544"/>
      <point x="246" y="401"/>
      <point x="246" y="224" type="curve"/>
      <point x="246" y="121"/>
      <point x="220" y="44"/>
      <point x="127" y="44" type="curve"/>
      <point x="90" y="44"/>
      <point x="66" y="61"/>
      <point x="39" y="78" type="curve"/>
      <point x="15" y="47"/>
      <point x="35" y="73"/>
    </contour>
  </outline>
</glyph>
<glyph name="K" format="1">
  <advance width="547"/>
  <unicode hex="004B"/>
  <outline>
    <contour>
      <point x="446" y="722" type="curve"/>
      <point x="151" y="380" type="line"/>
      <point x="223" y="380"/>
      <point x="152" y="380"/>
      <point x="224" y="380" type="curve"/>
      <point x="521" y="722" type="line"/>
      <point x="455" y="722"/>
      <point x="512" y="722"/>
    </contour>
    <contour>
      <point x="169" y="0" type="curve"/>
      <point x="169" y="722" type="line"/>
      <point x="110" y="722"/>
      <point x="169" y="722"/>
      <point x="110" y="722" type="curve"/>
      <point x="110" y="481"/>
      <point x="110" y="241"/>
      <point x="110" y="0" type="curve"/>
      <point x="169" y="0"/>
      <point x="110" y="0"/>
    </contour>
    <contour>
      <point x="542" y="0" type="curve"/>
      <point x="224" y="380" type="line"/>
      <point x="152" y="380"/>
      <point x="223" y="380"/>
      <point x="151" y="380" type="curve"/>
      <point x="466" y="0" type="line"/>
      <point x="535" y="0"/>
      <point x="473" y="0"/>
    </contour>
    <contour>
      <point x="340" y="-41" type="move" name="bottom"/>
    </contour>
  </outline>
</glyph>
<glyph name="L" format="1">
  <advance width="520"/>
  <unicode hex="004C"/>
  <outline>
    <contour>
      <point x="169" y="0" type="curve"/>
      <point x="169" y="241"/>
      <point x="169" y="481"/>
      <point x="169" y="722" type="curve"/>
      <point x="110" y="722"/>
      <point x="169" y="722"/>
      <point x="110" y="722" type="curve"/>
      <point x="110" y="481"/>
      <point x="110" y="241"/>
      <point x="110" y="0" type="curve"/>
      <point x="169" y="0"/>
      <point x="110" y="0"/>
    </contour>
    <contour>
      <point x="138" y="0" type="curve"/>
      <point x="262" y="0"/>
      <point x="386" y="0"/>
      <point x="510" y="0" type="curve"/>
      <point x="510" y="47"/>
      <point x="510" y="0"/>
      <point x="510" y="47" type="curve"/>
      <point x="386" y="47"/>
      <point x="262" y="47"/>
      <point x="138" y="47" type="curve"/>
      <point x="138" y="0"/>
      <point x="138" y="47"/>
    </contour>
    <contour>
      <point x="140" y="812" type="move" name="top"/>
    </contour>
    <contour>
      <point x="292" y="-40" type="move" name="bottom"/>
    </contour>
  </outline>
</glyph>
<glyph name="M" format="1">
  <advance width="818"/>
  <unicode hex="004D"/>
  <outline>
    <contour>
      <point x="742" y="0" type="curve"/>
      <point x="724" y="241"/>
      <point x="704" y="481"/>
      <point x="686" y="722" type="curve"/>
      <point x="632" y="722"/>
      <point x="686" y="722"/>
      <point x="632" y="722" type="curve"/>
      <point x="650" y="481"/>
      <point x="666" y="241"/>
      <point x="683" y="0" type="curve"/>
      <point x="742" y="0"/>
      <point x="683" y="0"/>
    </contour>
    <contour>
      <point x="133" y="0" type="curve"/>
      <point x="149" y="241"/>
      <point x="166" y="481"/>
      <point x="182" y="722" type="curve"/>
      <point x="130" y="722"/>
      <point x="182" y="722"/>
      <point x="130" y="722" type="curve"/>
      <point x="112" y="481"/>
      <point x="95" y="241"/>
      <point x="78" y="0" type="curve"/>
      <point x="133" y="0"/>
      <point x="78" y="0"/>
    </contour>
    <contour>
      <point x="432" y="0" type="curve"/>
      <point x="350" y="241"/>
      <point x="267" y="481"/>
      <point x="185" y="722" type="curve"/>
      <point x="132" y="722"/>
      <point x="185" y="722"/>
      <point x="131" y="722" type="curve"/>
      <point x="214" y="481"/>
      <point x="296" y="241"/>
      <point x="378" y="0" type="curve"/>
      <point x="432" y="0"/>
      <point x="378" y="0"/>
    </contour>
    <contour>
      <point x="440" y="0" type="curve"/>
      <point x="521" y="241"/>
      <point x="601" y="481"/>
      <point x="682" y="722" type="curve"/>
      <point x="629" y="722"/>
      <point x="681" y="722"/>
      <point x="629" y="722" type="curve"/>
      <point x="547" y="481"/>
      <point x="466" y="241"/>
      <point x="384" y="0" type="curve"/>
      <point x="440" y="0"/>
      <point x="385" y="0"/>
    </contour>
  </outline>
</glyph>
<glyph name="P" format="1">
  <advance width="536"/>
  <unicode hex="0050"/>
  <outline>
    <contour>
      <point x="132" y="317" type="curve"/>
      <point x="179" y="290"/>
      <point x="228" y="271"/>
      <point x="284" y="271" type="curve"/>
      <point x="412" y="274"/>
      <point x="488" y="354"/>
      <point x="488" y="489" type="curve"/>
      <point x="488" y="630"/>
      <point x="399" y="722"/>
      <point x="258" y="722" type="curve"/>
      <point x="220" y="722"/>
      <point x="181" y="722"/>
      <point x="143" y="722" type="curve"/>
      <point x="143" y="675"/>
      <point x="143" y="722"/>
      <point x="143" y="675" type="curve"/>
      <point x="179" y="675"/>
      <point x="215" y="675"/>
      <point x="250" y="675" type="curve"/>
      <point x="362" y="675"/>
      <point x="429" y="602"/>
      <point x="429" y="490" type="curve"/>
      <point x="429" y="388"/>
      <point x="375" y="318"/>
      <point x="280" y="318" type="curve"/>
      <point x="229" y="318"/>
      <point x="195" y="334"/>
      <point x="151" y="358" type="curve"/>
      <point x="133" y="318"/>
      <point x="151" y="358"/>
    </contour>
    <contour>
      <point x="169" y="0" type="curve"/>
      <point x="169" y="241"/>
      <point x="169" y="481"/>
      <point x="169" y="722" type="curve"/>
      <point x="110" y="722"/>
      <point x="169" y="722"/>
      <point x="110" y="722" type="curve"/>
      <point x="110" y="481"/>
      <point x="110" y="241"/>
      <point x="110" y="0" type="curve"/>
      <point x="169" y="0"/>
      <point x="110" y="0"/>
    </contour>
  </outline>
</glyph>
<glyph name="Q" format="1">
  <advance width="758"/>
  <unicode hex="0051"/>
  <outline>
    <contour>
      <point x="328" y="11" type="curve"/>
      <point x="415" y="-159"/>
      <point x="521" y="-232"/>
      <point x="701" y="-232" type="curve"/>
      <point x="701" y="-182"/>
      <point x="701" y="-232"/>
      <point x="701" y="-182" type="curve"/>
      <point x="545" y="-182"/>
      <point x="456" y="-115"/>
      <point x="379" y="34" type="curve"/>
      <point x="328" y="11"/>
      <point x="379" y="34"/>
    </contour>
    <contour>
      <point x="121" y="360" type="curve"/>
      <point x="121" y="537"/>
      <point x="182" y="675"/>
      <point x="344" y="675" type="curve"/>
      <point x="506" y="675"/>
      <point x="570" y="539"/>
      <point x="570" y="362" type="curve"/>
      <point x="570" y="185"/>
      <point x="511" y="45"/>
      <point x="349" y="45" type="curve"/>
      <point x="184" y="45"/>
      <point x="121" y="182"/>
      <point x="121" y="360" type="curve"/>
      <point x="62" y="360"/>
      <point x="121" y="360"/>
      <point x="62" y="360" type="curve"/>
      <point x="62" y="150"/>
      <point x="151" y="-5"/>
      <point x="346" y="-5" type="curve"/>
      <point x="542" y="-5"/>
      <point x="629" y="153"/>
      <point x="629" y="365" type="curve"/>
      <point x="629" y="574"/>
      <point x="543" y="728"/>
      <point x="348" y="728" type="curve"/>
      <point x="152" y="728"/>
      <point x="62" y="571"/>
      <point x="62" y="360" type="curve"/>
      <point x="121" y="360"/>
      <point x="62" y="360"/>
    </contour>
  </outline>
</glyph>
<glyph name="T" format="1">
  <advance width="566"/>
  <unicode hex="0054"/>
  <outline>
    <contour>
      <point x="313" y="0" type="curve"/>
      <point x="313" y="237"/>
      <point x="313" y="473"/>
      <point x="313" y="710" type="curve"/>
      <point x="254" y="710"/>
      <point x="313" y="710"/>
      <point x="254" y="710" type="curve"/>
      <point x="254" y="473"/>
      <point x="254" y="237"/>
      <point x="254" y="0" type="curve"/>
      <point x="313" y="0"/>
      <point x="254" y="0"/>
    </contour>
    <contour>
      <point x="11" y="671" type="curve"/>
      <point x="192" y="671"/>
      <point x="374" y="671"/>
      <point x="556" y="671" type="curve"/>
      <point x="556" y="723"/>
      <point x="556" y="670"/>
      <point x="556" y="722" type="curve"/>
      <point x="374" y="722"/>
      <point x="192" y="722"/>
      <point x="11" y="722" type="curve"/>
      <point x="11" y="670"/>
      <point x="11" y="723"/>
    </contour>
    <contour>
      <point x="282" y="812" type="move" name="top"/>
    </contour>
    <contour>
      <point x="302" y="-42" type="move" name="bottom"/>
    </contour>
  </outline>
</glyph>
<glyph name="W" format="1">
  <advance width="780"/>
  <unicode hex="0057"/>
  <outline>
    <contour>
      <point x="244" y="0" type="curve"/>
      <point x="303" y="241"/>
      <point x="361" y="481"/>
      <point x="420" y="722" type="curve"/>
      <point x="367" y="722"/>
      <point x="421" y="722"/>
      <point x="367" y="722" type="curve"/>
      <point x="311" y="481"/>
      <point x="254" y="241"/>
      <point x="197" y="0" type="curve"/>
      <point x="246" y="0"/>
      <point x="196" y="0"/>
    </contour>
    <contour>
      <point x="375" y="722" type="curve"/>
      <point x="428" y="481"/>
      <point x="480" y="241"/>
      <point x="533" y="0" type="curve"/>
      <point x="582" y="0"/>
      <point x="530" y="0"/>
      <point x="579" y="0" type="curve"/>
      <point x="529" y="242"/>
      <point x="478" y="481"/>
      <point x="427" y="722" type="curve"/>
      <point x="373" y="722"/>
      <point x="428" y="722"/>
    </contour>
    <contour>
      <point x="30" y="722" type="curve"/>
      <point x="83" y="481"/>
      <point x="137" y="241"/>
      <point x="190" y="0" type="curve"/>
      <point x="239" y="0"/>
      <point x="191" y="0"/>
      <point x="240" y="0" type="curve"/>
      <point x="188" y="241"/>
      <point x="137" y="481"/>
      <point x="85" y="722" type="curve"/>
      <point x="30" y="722"/>
      <point x="85" y="722"/>
    </contour>
    <contour>
      <point x="699" y="722" type="curve"/>
      <point x="645" y="481"/>
      <point x="591" y="241"/>
      <point x="538" y="0" type="curve"/>
      <point x="587" y="0"/>
      <point x="538" y="0"/>
      <point x="587" y="0" type="curve"/>
      <point x="643" y="241"/>
      <point x="699" y="481"/>
      <point x="755" y="722" type="curve"/>
      <point x="699" y="722"/>
      <point x="755" y="722"/>
    </contour>
  </outline>
</glyph>
<glyph name="X" format="1">
  <advance width="538"/>
  <unicode hex="0058"/>
  <outline>
    <contour>
      <point x="445" y="722" type="curve"/>
      <point x="300" y="482"/>
      <point x="151" y="240"/>
      <point x="5" y="0" type="curve"/>
      <point x="69" y="0"/>
      <point x="9" y="0"/>
      <point x="73" y="0" type="curve"/>
      <point x="217" y="240"/>
      <point x="364" y="482"/>
      <point x="509" y="722" type="curve"/>
      <point x="449" y="722"/>
      <point x="506" y="722"/>
    </contour>
    <contour>
      <point x="32" y="722" type="curve"/>
      <point x="175" y="482"/>
      <point x="321" y="240"/>
      <point x="464" y="0" type="curve"/>
      <point x="527" y="0"/>
      <point x="467" y="0"/>
      <point x="530" y="0" type="curve"/>
      <point x="386" y="240"/>
      <point x="239" y="482"/>
      <point x="95" y="722" type="curve"/>
      <point x="35" y="722"/>
      <point x="92" y="722"/>
    </contour>
  </outline>
</glyph>
<glyph name="Y" format="1">
  <advance width="518"/>
  <unicode hex="0059"/>
  <outline>
    <contour>
      <point x="21" y="722" type="curve"/>
      <point x="89" y="595"/>
      <point x="160" y="465"/>
      <point x="228" y="337" type="curve"/>
      <point x="289" y="337"/>
      <point x="223" y="338"/>
      <point x="285" y="338" type="curve"/>
      <point x="218" y="467"/>
      <point x="152" y="594"/>
      <point x="85" y="722" type="curve"/>
      <point x="25" y="722"/>
      <point x="81" y="722"/>
    </contour>
    <contour>
      <point x="446" y="722" type="curve"/>
      <point x="375" y="593"/>
      <point x="305" y="466"/>
      <point x="233" y="338" type="curve"/>
      <point x="294" y="338"/>
      <point x="230" y="337"/>
      <point x="291" y="337" type="curve"/>
      <point x="363" y="465"/>
      <point x="437" y="595"/>
      <point x="509" y="722" type="curve"/>
      <point x="449" y="722"/>
      <point x="506" y="722"/>
    </contour>
    <contour>
      <point x="292" y="0" type="curve"/>
      <point x="292" y="115"/>
      <point x="292" y="229"/>
      <point x="292" y="344" type="curve"/>
      <point x="227" y="344"/>
      <point x="292" y="344"/>
      <point x="227" y="344" type="curve"/>
      <point x="227" y="229"/>
      <point x="227" y="115"/>
      <point x="227" y="0" type="curve"/>
      <point x="292" y="0"/>
      <point x="227" y="0"/>
    </contour>
    <contour>
      <point x="262" y="812" type="move" name="top"/>
    </contour>
  </outline>
</glyph>
<glyph name="bracketleft" format="1">
  <advance width="273"/>
  <unicode hex="005B"/>
  <outline>
    <contour>
      <point x="242" y="770" type="curve"/>
      <point x="198" y="770"/>
      <point x="153" y="770"/>
      <point x="108" y="770" type="curve"/>
      <point x="102" y="770"/>
      <point x="91" y="770"/>
      <point x="84" y="770" type="curve"/>
      <point x="84" y="764"/>
      <point x="84" y="757"/>
      <point x="84" y="750" type="curve"/>
      <point x="84" y="466"/>
      <point x="84" y="182"/>
      <point x="84" y="-102" type="curve"/>
      <point x="84" y="-108"/>
      <point x="84" y="-114"/>
      <point x="84" y="-121" type="curve"/>
      <point x="90" y="-121"/>
      <point x="101" y="-121"/>
      <point x="107" y="-121" type="curve"/>
      <point x="152" y="-121"/>
      <point x="197" y="-121"/>
      <point x="242" y="-121" type="curve"/>
      <point x="242" y="-69"/>
      <point x="242" y="-121"/>
      <point x="242" y="-69" type="curve"/>
      <point x="197" y="-69"/>
      <point x="152" y="-69"/>
      <point x="107" y="-69" type="curve"/>
      <point x="144" y="-69"/>
      <point x="107" y="-69"/>
      <point x="144" y="-69" type="curve"/>
      <point x="144" y="-102"/>
      <point x="144" y="-69"/>
      <point x="144" y="-102" type="curve"/>
      <point x="144" y="182"/>
      <point x="144" y="466"/>
      <point x="144" y="750" type="curve"/>
      <point x="144" y="718"/>
      <point x="144" y="750"/>
      <point x="144" y="718" type="curve"/>
      <point x="108" y="718"/>
      <point x="144" y="718"/>
      <point x="108" y="718" type="curve"/>
      <point x="153" y="718"/>
      <point x="198" y="718"/>
      <point x="242" y="718" type="curve"/>
      <point x="242" y="770"/>
      <point x="242" y="718"/>
    </contour>
  </outline>
</glyph>
<glyph name="backslash" format="1">
  <advance width="464"/>
  <unicode hex="005C"/>
  <outline>
    <contour>
      <point x="435" y="-68" type="curve"/>
      <point x="321" y="236"/>
      <point x="206" y="540"/>
      <point x="91" y="844" type="curve"/>
      <point x="29" y="844"/>
      <point x="91" y="844"/>
      <point x="29" y="844" type="curve"/>
      <point x="144" y="540"/>
      <point x="259" y="236"/>
      <point x="374" y="-68" type="curve"/>
      <point x="435" y="-68"/>
      <point x="374" y="-68"/>
    </contour>
  </outline>
</glyph>
<glyph name="bracketright" format="1">
  <advance width="273"/>
  <unicode hex="005D"/>
  <outline>
    <contour>
      <point x="31" y="718" type="curve"/>
      <point x="76" y="718"/>
      <point x="121" y="718"/>
      <point x="166" y="718" type="curve"/>
      <point x="160" y="724"/>
      <point x="151" y="726"/>
      <point x="146" y="732" type="curve"/>
      <point x="140" y="738"/>
      <point x="135" y="745"/>
      <point x="130" y="750" type="curve"/>
      <point x="130" y="466"/>
      <point x="129" y="182"/>
      <point x="130" y="-102" type="curve"/>
      <point x="135" y="-96"/>
      <point x="142" y="-90"/>
      <point x="148" y="-83" type="curve"/>
      <point x="153" y="-78"/>
      <point x="161" y="-75"/>
      <point x="166" y="-69" type="curve"/>
      <point x="121" y="-69"/>
      <point x="76" y="-69"/>
      <point x="31" y="-69" type="curve"/>
      <point x="31" y="-121"/>
      <point x="31" y="-69"/>
      <point x="31" y="-121" type="curve"/>
      <point x="76" y="-121"/>
      <point x="121" y="-121"/>
      <point x="166" y="-121" type="curve"/>
      <point x="189" y="-121"/>
      <point x="166" y="-121"/>
      <point x="189" y="-121" type="curve"/>
      <point x="189" y="-102"/>
      <point x="189" y="-121"/>
      <point x="189" y="-102" type="curve"/>
      <point x="189" y="182"/>
      <point x="189" y="466"/>
      <point x="189" y="750" type="curve"/>
      <point x="189" y="770"/>
      <point x="189" y="750"/>
      <point x="189" y="770" type="curve"/>
      <point x="166" y="770"/>
      <point x="189" y="770"/>
      <point x="166" y="770" type="curve"/>
      <point x="121" y="770"/>
      <point x="76" y="770"/>
      <point x="31" y="770" type="curve"/>
      <point x="31" y="718"/>
      <point x="31" y="770"/>
    </contour>
  </outline>
</glyph>
<glyph name="asciicircum" format="1">
  <advance width="472"/>
  <unicode hex="005E"/>
  <outline>
    <contour>
      <point x="112" y="462" type="curve"/>
      <point x="163" y="573"/>
      <point x="214" y="683"/>
      <point x="265" y="794" type="curve"/>
      <point x="206" y="794"/>
      <point x="264" y="794"/>
      <point x="206" y="794" type="curve"/>
      <point x="154" y="683"/>
      <point x="103" y="573"/>
      <point x="52" y="462" type="curve"/>
      <point x="111" y="462"/>
      <point x="53" y="462"/>
    </contour>
    <contour>
      <point x="420" y="462" type="curve"/>
      <point x="370" y="570"/>
      <point x="315" y="686"/>
      <point x="265" y="794" type="curve"/>
      <point x="206" y="794"/>
      <point x="265" y="794"/>
      <point x="206" y="794" type="curve"/>
      <point x="256" y="686"/>
      <point x="310" y="570"/>
      <point x="361" y="462" type="curve"/>
      <point x="419" y="462"/>
      <point x="361" y="462"/>
    </contour>
  </outline>
</glyph>
<glyph name="grave" format="1">
  <advance width="310"/>
  <unicode hex="0060"/>
  <outline>
    <contour>
      <point x="273" y="586" type="line"/>
      <point x="174" y="752" type="line"/>
      <point x="98" y="752" type="line"/>
      <point x="215" y="586" type="line"/>
    </contour>
    <contour>
      <point x="241" y="586" type="move" name="_top"/>
    </contour>
  </outline>
</glyph>
<glyph name="b" format="1">
  <advance width="579"/>
  <unicode hex="0062"/>
  <outline>
    <contour>
      <point x="138" y="386" type="curve"/>
      <point x="167" y="433"/>
      <point x="227" y="489"/>
      <point x="306" y="489" type="curve"/>
      <point x="415" y="489"/>
      <point x="463" y="390"/>
      <point x="463" y="266" type="curve"/>
      <point x="464" y="147"/>
      <point x="411" y="43"/>
      <point x="306" y="44" type="curve"/>
      <point x="237" y="44"/>
      <point x="182" y="84"/>
      <point x="142" y="143" type="curve"/>
      <point x="112" y="121"/>
      <point x="139" y="137"/>
      <point x="109" y="115" type="curve"/>
      <point x="159" y="44"/>
      <point x="221" y="-5"/>
      <point x="312" y="-5" type="curve"/>
      <point x="453" y="-5"/>
      <point x="522" y="112"/>
      <point x="522" y="268" type="curve"/>
      <point x="522" y="421"/>
      <point x="454" y="538"/>
      <point x="312" y="538" type="curve"/>
      <point x="216" y="538"/>
      <point x="148" y="477"/>
      <point x="111" y="418" type="curve"/>
      <point x="135" y="394"/>
      <point x="115" y="410"/>
    </contour>
    <contour>
      <point x="152" y="0" type="curve"/>
      <point x="152" y="270"/>
      <point x="152" y="530"/>
      <point x="152" y="800" type="curve"/>
      <point x="101" y="800"/>
      <point x="145" y="800"/>
      <point x="93" y="800" type="curve"/>
      <point x="93" y="530"/>
      <point x="93" y="270"/>
      <point x="93" y="0" type="curve"/>
      <point x="145" y="0"/>
      <point x="101" y="0"/>
    </contour>
  </outline>
</glyph>
<glyph name="d" format="1">
  <advance width="582"/>
  <unicode hex="0064"/>
  <outline>
    <contour>
      <point x="466" y="439" type="curve"/>
      <point x="424" y="500"/>
      <point x="358" y="537"/>
      <point x="278" y="537" type="curve"/>
      <point x="131" y="537"/>
      <point x="56" y="420"/>
      <point x="56" y="263" type="curve"/>
      <point x="56" y="109"/>
      <point x="134" y="-4"/>
      <point x="279" y="-4" type="curve"/>
      <point x="367" y="-4"/>
      <point x="426" y="45"/>
      <point x="466" y="126" type="curve"/>
      <point x="440" y="157"/>
      <point x="465" y="126"/>
      <point x="439" y="157" type="curve"/>
      <point x="403" y="88"/>
      <point x="356" y="43"/>
      <point x="286" y="43" type="curve"/>
      <point x="172" y="43"/>
      <point x="115" y="140"/>
      <point x="115" y="266" type="curve"/>
      <point x="115" y="392"/>
      <point x="173" y="490"/>
      <point x="287" y="490" type="curve"/>
      <point x="350" y="490"/>
      <point x="407" y="456"/>
      <point x="440" y="405" type="curve"/>
      <point x="466" y="438"/>
      <point x="439" y="405"/>
    </contour>
    <contour>
      <point x="488" y="0" type="curve"/>
      <point x="488" y="267"/>
      <point x="488" y="533"/>
      <point x="488" y="800" type="curve"/>
      <point x="427" y="800"/>
      <point x="488" y="800"/>
      <point x="427" y="800" type="curve"/>
      <point x="427" y="533"/>
      <point x="427" y="267"/>
      <point x="427" y="0" type="curve"/>
      <point x="488" y="0"/>
      <point x="427" y="0"/>
    </contour>
  </outline>
</glyph>
<glyph name="f" format="1">
  <advance width="398"/>
  <unicode hex="0066"/>
  <outline>
    <contour>
      <point x="22" y="486" type="curve"/>
      <point x="373" y="486" type="line"/>
      <point x="373" y="533"/>
      <point x="373" y="486"/>
      <point x="373" y="533" type="curve"/>
      <point x="22" y="533" type="line"/>
      <point x="22" y="486"/>
      <point x="22" y="533"/>
    </contour>
    <contour>
      <point x="213" y="0" type="curve"/>
      <point x="213" y="630" type="line"/>
      <point x="213" y="703"/>
      <point x="240" y="759"/>
      <point x="306" y="759" type="curve"/>
      <point x="334" y="759"/>
      <point x="360" y="749"/>
      <point x="384" y="736" type="curve"/>
      <point x="408" y="773"/>
      <point x="384" y="736"/>
      <point x="408" y="773" type="curve"/>
      <point x="377" y="791"/>
      <point x="342" y="805"/>
      <point x="306" y="805" type="curve"/>
      <point x="207" y="805"/>
      <point x="153" y="732"/>
      <point x="154" y="630" type="curve"/>
      <point x="154" y="0" type="line"/>
      <point x="213" y="0"/>
      <point x="154" y="0"/>
    </contour>
  </outline>
</glyph>
<glyph name="g" format="1">
  <advance width="474"/>
  <unicode hex="0067"/>
  <outline>
    <contour>
      <point x="326" y="480" type="curve"/>
      <point x="459" y="554" type="line"/>
      <point x="452" y="564"/>
      <point x="440" y="588"/>
      <point x="433" y="598" type="curve"/>
      <point x="295" y="516" type="line"/>
      <point x="326" y="480"/>
      <point x="295" y="517"/>
    </contour>
    <contour>
      <point x="110" y="352" type="curve"/>
      <point x="110" y="431"/>
      <point x="156" y="491"/>
      <point x="235" y="491" type="curve"/>
      <point x="314" y="491"/>
      <point x="356" y="434"/>
      <point x="356" y="353" type="curve"/>
      <point x="356" y="278"/>
      <point x="312" y="222"/>
      <point x="234" y="222" type="curve"/>
      <point x="158" y="222"/>
      <point x="110" y="274"/>
      <point x="110" y="352" type="curve"/>
      <point x="51" y="349"/>
      <point x="110" y="352"/>
      <point x="51" y="349" type="curve"/>
      <point x="51" y="243"/>
      <point x="123" y="175"/>
      <point x="230" y="175" type="curve"/>
      <point x="341" y="175"/>
      <point x="415" y="245"/>
      <point x="415" y="355" type="curve"/>
      <point x="415" y="465"/>
      <point x="344" y="538"/>
      <point x="235" y="538" type="curve"/>
      <point x="122" y="538"/>
      <point x="51" y="462"/>
      <point x="51" y="349" type="curve"/>
      <point x="110" y="352"/>
      <point x="51" y="349"/>
    </contour>
    <contour>
      <point x="131" y="233" type="curve"/>
      <point x="85" y="203"/>
      <point x="55" y="166"/>
      <point x="55" y="110" type="curve"/>
      <point x="55" y="24"/>
      <point x="132" y="-10"/>
      <point x="225" y="-19" type="curve"/>
      <point x="321" y="-28"/>
      <point x="407" y="-50"/>
      <point x="407" y="-137" type="curve"/>
      <point x="407" y="-220"/>
      <point x="328" y="-257"/>
      <point x="232" y="-257" type="curve"/>
      <point x="142" y="-257"/>
      <point x="73" y="-210"/>
      <point x="73" y="-125" type="curve"/>
      <point x="73" y="-62"/>
      <point x="103" y="-18"/>
      <point x="158" y="8" type="curve"/>
      <point x="129" y="38"/>
      <point x="158" y="8"/>
      <point x="129" y="38" type="curve"/>
      <point x="58" y="4"/>
      <point x="14" y="-47"/>
      <point x="14" y="-127" type="curve"/>
      <point x="14" y="-244"/>
      <point x="107" y="-304"/>
      <point x="230" y="-304" type="curve"/>
      <point x="358" y="-304"/>
      <point x="462" y="-252"/>
      <point x="461" y="-132" type="curve"/>
      <point x="461" y="-20"/>
      <point x="356" y="15"/>
      <point x="236" y="26" type="curve"/>
      <point x="169" y="31"/>
      <point x="114" y="54"/>
      <point x="114" y="115" type="curve"/>
      <point x="114" y="154"/>
      <point x="129" y="181"/>
      <point x="162" y="203" type="curve"/>
      <point x="131" y="233"/>
      <point x="162" y="203"/>
    </contour>
    <contour>
      <point x="233" y="654" type="move" name="top"/>
    </contour>
  </outline>
</glyph>
<glyph name="h" format="1">
  <advance width="566"/>
  <unicode hex="0068"/>
  <outline>
    <contour>
      <point x="139" y="336" type="curve"/>
      <point x="162" y="415"/>
      <point x="224" y="490"/>
      <point x="304" y="490" type="curve"/>
      <point x="392" y="490"/>
      <point x="420" y="423"/>
      <point x="420" y="330" type="curve"/>
      <point x="420" y="220"/>
      <point x="420" y="111"/>
      <point x="420" y="0" type="curve"/>
      <point x="479" y="0"/>
      <point x="420" y="0"/>
      <point x="479" y="0" type="curve"/>
      <point x="479" y="112"/>
      <point x="479" y="224"/>
      <point x="479" y="337" type="curve"/>
      <point x="479" y="458"/>
      <point x="433" y="537"/>
      <point x="317" y="537" type="curve"/>
      <point x="219" y="537"/>
      <point x="141" y="459"/>
      <point x="117" y="362" type="curve"/>
      <point x="141" y="337"/>
      <point x="115" y="361"/>
    </contour>
    <contour>
      <point x="152" y="0" type="curve"/>
      <point x="152" y="267"/>
      <point x="152" y="533"/>
      <point x="152" y="800" type="curve"/>
      <point x="93" y="800"/>
      <point x="152" y="800"/>
      <point x="93" y="800" type="curve"/>
      <point x="93" y="533"/>
      <point x="93" y="267"/>
      <point x="93" y="0" type="curve"/>
      <point x="152" y="0"/>
      <point x="93" y="0"/>
    </contour>
  </outline>
</glyph>
<glyph name="i" format="1">
  <advance width="253"/>
  <unicode hex="0069"/>
  <outline>
    <contour>
      <point x="157" y="0" type="curve"/>
      <point x="157" y="178"/>
      <point x="157" y="355"/>
      <point x="157" y="533" type="curve"/>
      <point x="95" y="533"/>
      <point x="157" y="533"/>
      <point x="95" y="533" type="curve"/>
      <point x="95" y="355"/>
      <point x="95" y="178"/>
      <point x="95" y="0" type="curve"/>
      <point x="157" y="0"/>
      <point x="95" y="0"/>
    </contour>
    <contour>
      <point x="161" y="685" type="curve"/>
      <point x="161" y="707"/>
      <point x="145" y="719"/>
      <point x="124" y="719" type="curve"/>
      <point x="102" y="719"/>
      <point x="88" y="706"/>
      <point x="88" y="685" type="curve"/>
      <point x="156" y="685"/>
      <point x="93" y="685"/>
      <point x="161" y="685" type="curve"/>
      <point x="161" y="662"/>
      <point x="146" y="651"/>
      <point x="124" y="651" type="curve"/>
      <point x="101" y="651"/>
      <point x="88" y="663"/>
      <point x="88" y="685" type="curve"/>
      <point x="156" y="685"/>
      <point x="93" y="685"/>
    </contour>
    <contour>
      <point x="124" y="654" type="move" name="top"/>
    </contour>
    <contour>
      <point x="154" y="2" type="move" name="bottom"/>
    </contour>
  </outline>
</glyph>
<glyph name="j" format="1">
  <advance width="234"/>
  <unicode hex="006A"/>
  <outline>
    <contour>
      <point x="-34" y="-302" type="curve"/>
      <point x="-27" y="-303"/>
      <point x="-17" y="-304"/>
      <point x="-6" y="-304" type="curve"/>
      <point x="90" y="-304"/>
      <point x="153" y="-234"/>
      <point x="153" y="-136" type="curve"/>
      <point x="153" y="87"/>
      <point x="153" y="310"/>
      <point x="153" y="533" type="curve"/>
      <point x="94" y="533"/>
      <point x="153" y="533"/>
      <point x="94" y="533" type="curve"/>
      <point x="94" y="310"/>
      <point x="94" y="87"/>
      <point x="94" y="-136" type="curve"/>
      <point x="94" y="-200"/>
      <point x="59" y="-256"/>
      <point x="-4" y="-256" type="curve"/>
      <point x="-11" y="-256"/>
      <point x="-20" y="-255"/>
      <point x="-25" y="-254" type="curve"/>
      <point x="-34" y="-300"/>
      <point x="-26" y="-256"/>
    </contour>
    <contour>
      <point x="162" y="684" type="curve"/>
      <point x="162" y="706"/>
      <point x="146" y="718"/>
      <point x="124" y="718" type="curve"/>
      <point x="102" y="718"/>
      <point x="89" y="705"/>
      <point x="89" y="684" type="curve"/>
      <point x="157" y="684"/>
      <point x="94" y="684"/>
      <point x="162" y="684" type="curve"/>
      <point x="162" y="661"/>
      <point x="146" y="650"/>
      <point x="124" y="650" type="curve"/>
      <point x="102" y="650"/>
      <point x="89" y="661"/>
      <point x="89" y="684" type="curve"/>
      <point x="157" y="684"/>
      <point x="94" y="684"/>
    </contour>
  </outline>
</glyph>
<glyph name="k" format="1">
  <advance width="486"/>
  <unicode hex="006B"/>
  <outline>
    <contour>
      <point x="152" y="0" type="curve"/>
      <point x="152" y="800" type="line"/>
      <point x="93" y="800"/>
      <point x="152" y="800"/>
      <point x="93" y="800" type="curve"/>
      <point x="93" y="533"/>
      <point x="93" y="267"/>
      <point x="93" y="0" type="curve"/>
      <point x="152" y="0"/>
      <point x="93" y="0"/>
    </contour>
    <contour>
      <point x="368" y="533" type="curve"/>
      <point x="135" y="275" type="line"/>
      <point x="205" y="275"/>
      <point x="137" y="275"/>
      <point x="207" y="275" type="curve"/>
      <point x="443" y="533" type="line"/>
      <point x="375" y="533"/>
      <point x="437" y="533"/>
    </contour>
    <contour>
      <point x="465" y="0" type="curve"/>
      <point x="207" y="275" type="line"/>
      <point x="137" y="275"/>
      <point x="205" y="275"/>
      <point x="135" y="275" type="curve"/>
      <point x="390" y="0" type="line"/>
      <point x="457" y="0"/>
      <point x="398" y="0"/>
    </contour>
    <contour>
      <point x="317" y="-42" type="move" name="bottom"/>
    </contour>
  </outline>
</glyph>
<glyph name="m" format="1">
  <advance width="823"/>
  <unicode hex="006D"/>
  <outline>
    <contour>
      <point x="431" y="329" type="curve"/>
      <point x="459" y="413"/>
      <point x="501" y="490"/>
      <point x="577" y="490" type="curve"/>
      <point x="664" y="490"/>
      <point x="677" y="428"/>
      <point x="677" y="331" type="curve"/>
      <point x="677" y="221"/>
      <point x="677" y="111"/>
      <point x="677" y="0" type="curve"/>
      <point x="736" y="0"/>
      <point x="677" y="0"/>
      <point x="736" y="0" type="curve"/>
      <point x="736" y="112"/>
      <point x="736" y="224"/>
      <point x="736" y="337" type="curve"/>
      <point x="736" y="462"/>
      <point x="710" y="538"/>
      <point x="594" y="538" type="curve"/>
      <point x="495" y="538"/>
      <point x="438" y="459"/>
      <point x="408" y="355" type="curve"/>
      <point x="432" y="330"/>
      <point x="407" y="355"/>
    </contour>
    <contour>
      <point x="139" y="330" type="curve"/>
      <point x="165" y="412"/>
      <point x="207" y="490"/>
      <point x="285" y="490" type="curve"/>
      <point x="371" y="490"/>
      <point x="385" y="428"/>
      <point x="385" y="331" type="curve"/>
      <point x="385" y="221"/>
      <point x="385" y="111"/>
      <point x="385" y="0" type="curve"/>
      <point x="444" y="0"/>
      <point x="385" y="0"/>
      <point x="444" y="0" type="curve"/>
      <point x="444" y="112"/>
      <point x="444" y="224"/>
      <point x="444" y="337" type="curve"/>
      <point x="444" y="462"/>
      <point x="419" y="539"/>
      <point x="302" y="539" type="curve"/>
      <point x="201" y="539"/>
      <point x="148" y="461"/>
      <point x="117" y="356" type="curve"/>
      <point x="140" y="330"/>
      <point x="116" y="355"/>
    </contour>
    <contour>
      <point x="152" y="0" type="curve"/>
      <point x="152" y="178"/>
      <point x="152" y="355"/>
      <point x="152" y="533" type="curve"/>
      <point x="93" y="533"/>
      <point x="152" y="533"/>
      <point x="93" y="533" type="curve"/>
      <point x="93" y="355"/>
      <point x="93" y="178"/>
      <point x="93" y="0" type="curve"/>
      <point x="152" y="0"/>
      <point x="93" y="0"/>
    </contour>
  </outline>
</glyph>
<glyph name="p" format="1">
  <advance width="582"/>
  <unicode hex="0070"/>
  <outline>
    <contour>
      <point x="137" y="376" type="curve"/>
      <point x="166" y="432"/>
      <point x="230" y="491"/>
      <point x="307" y="491" type="curve"/>
      <point x="422" y="491"/>
      <point x="467" y="393"/>
      <point x="467" y="272" type="curve"/>
      <point x="469" y="145"/>
      <point x="422" y="42"/>
      <point x="307" y="42" type="curve"/>
      <point x="234" y="42"/>
      <point x="185" y="81"/>
      <point x="140" y="136" type="curve"/>
      <point x="115" y="113"/>
      <point x="137" y="132"/>
      <point x="112" y="109" type="curve"/>
      <point x="164" y="39"/>
      <point x="226" y="-5"/>
      <point x="315" y="-5" type="curve"/>
      <point x="465" y="-5"/>
      <point x="526" y="119"/>
      <point x="525" y="275" type="curve"/>
      <point x="525" y="423"/>
      <point x="462" y="538"/>
      <point x="317" y="538" type="curve"/>
      <point x="223" y="538"/>
      <point x="153" y="479"/>
      <point x="116" y="416" type="curve"/>
      <point x="136" y="382"/>
      <point x="117" y="411"/>
    </contour>
    <contour>
      <point x="152" y="-300" type="curve"/>
      <point x="152" y="-22"/>
      <point x="152" y="255"/>
      <point x="152" y="533" type="curve"/>
      <point x="93" y="533"/>
      <point x="152" y="533"/>
      <point x="93" y="533" type="curve"/>
      <point x="93" y="255"/>
      <point x="93" y="-22"/>
      <point x="93" y="-300" type="curve"/>
      <point x="152" y="-300"/>
      <point x="93" y="-300"/>
    </contour>
  </outline>
</glyph>
<glyph name="q" format="1">
  <advance width="585"/>
  <unicode hex="0071"/>
  <outline>
    <contour>
      <point x="469" y="423" type="curve"/>
      <point x="423" y="496"/>
      <point x="348" y="538"/>
      <point x="267" y="538" type="curve"/>
      <point x="119" y="538"/>
      <point x="57" y="418"/>
      <point x="57" y="264" type="curve"/>
      <point x="57" y="111"/>
      <point x="124" y="-6"/>
      <point x="271" y="-6" type="curve"/>
      <point x="357" y="-6"/>
      <point x="427" y="52"/>
      <point x="470" y="125" type="curve"/>
      <point x="448" y="149"/>
      <point x="467" y="131"/>
      <point x="445" y="155" type="curve"/>
      <point x="409" y="91"/>
      <point x="349" y="42"/>
      <point x="278" y="42" type="curve"/>
      <point x="164" y="42"/>
      <point x="117" y="142"/>
      <point x="117" y="266" type="curve"/>
      <point x="117" y="390"/>
      <point x="163" y="490"/>
      <point x="275" y="490" type="curve"/>
      <point x="342" y="490"/>
      <point x="405" y="455"/>
      <point x="448" y="391" type="curve"/>
      <point x="465" y="417"/>
      <point x="452" y="397"/>
    </contour>
    <contour>
      <point x="491" y="-300" type="curve"/>
      <point x="491" y="-20"/>
      <point x="491" y="253"/>
      <point x="491" y="533" type="curve"/>
      <point x="438" y="533"/>
      <point x="483" y="533"/>
      <point x="430" y="533" type="curve"/>
      <point x="430" y="253"/>
      <point x="430" y="-20"/>
      <point x="430" y="-300" type="curve"/>
      <point x="483" y="-300"/>
      <point x="438" y="-300"/>
    </contour>
  </outline>
</glyph>
<glyph name="r" format="1">
  <advance width="357"/>
  <unicode hex="0072"/>
  <outline>
    <contour>
      <point x="152" y="0" type="curve"/>
      <point x="152" y="180"/>
      <point x="152" y="353"/>
      <point x="152" y="533" type="curve"/>
      <point x="101" y="533"/>
      <point x="145" y="533"/>
      <point x="93" y="533" type="curve"/>
      <point x="93" y="353"/>
      <point x="93" y="180"/>
      <point x="93" y="0" type="curve"/>
      <point x="145" y="0"/>
      <point x="101" y="0"/>
    </contour>
    <contour>
      <point x="138" y="340" type="curve"/>
      <point x="172" y="442"/>
      <point x="253" y="488"/>
      <point x="345" y="488" type="curve"/>
      <point x="345" y="534"/>
      <point x="345" y="492"/>
      <point x="345" y="538" type="curve"/>
      <point x="240" y="538"/>
      <point x="152" y="476"/>
      <point x="116" y="374" type="curve"/>
      <point x="137" y="349"/>
      <point x="120" y="363"/>
    </contour>
    <contour>
      <point x="133" y="654" type="move" name="top"/>
    </contour>
    <contour>
      <point x="144" y="-39" type="move" name="bottom"/>
    </contour>
  </outline>
</glyph>
<glyph name="t" format="1">
  <advance width="368"/>
  <unicode hex="0074"/>
  <outline>
    <contour>
      <point x="17" y="485" type="curve"/>
      <point x="357" y="485" type="line"/>
      <point x="357" y="533"/>
      <point x="357" y="485"/>
      <point x="357" y="533" type="curve"/>
      <point x="17" y="533" type="line"/>
      <point x="17" y="485"/>
      <point x="17" y="533"/>
    </contour>
    <contour>
      <point x="332" y="69" type="curve"/>
      <point x="307" y="54"/>
      <point x="287" y="45"/>
      <point x="257" y="45" type="curve"/>
      <point x="200" y="45"/>
      <point x="182" y="87"/>
      <point x="182" y="154" type="curve"/>
      <point x="182" y="680" type="line"/>
      <point x="148" y="659"/>
      <point x="157" y="661"/>
      <point x="123" y="640" type="curve"/>
      <point x="123" y="151" type="line"/>
      <point x="123" y="53"/>
      <point x="161" y="-5"/>
      <point x="250" y="-5" type="curve"/>
      <point x="292" y="-5"/>
      <point x="320" y="7"/>
      <point x="355" y="26" type="curve"/>
      <point x="332" y="69"/>
      <point x="355" y="26"/>
    </contour>
    <contour>
      <point x="263" y="-40" type="move" name="bottom"/>
    </contour>
  </outline>
</glyph>
<glyph name="v" format="1">
  <advance width="491"/>
  <unicode hex="0076"/>
  <outline>
    <contour>
      <point x="27" y="533" type="curve"/>
      <point x="89" y="355"/>
      <point x="150" y="178"/>
      <point x="210" y="0" type="curve"/>
      <point x="267" y="0"/>
      <point x="210" y="0"/>
      <point x="267" y="0" type="curve"/>
      <point x="207" y="178"/>
      <point x="149" y="355"/>
      <point x="89" y="533" type="curve"/>
      <point x="27" y="533"/>
      <point x="89" y="533"/>
    </contour>
    <contour>
      <point x="410" y="533" type="curve"/>
      <point x="220" y="0" type="line"/>
      <point x="278" y="0"/>
      <point x="220" y="0"/>
      <point x="278" y="0" type="curve"/>
      <point x="342" y="178"/>
      <point x="406" y="355"/>
      <point x="470" y="533" type="curve"/>
      <point x="410" y="533"/>
      <point x="470" y="533"/>
    </contour>
  </outline>
</glyph>
<glyph name="w" format="1">
  <advance width="780"/>
  <unicode hex="0077"/>
  <outline>
    <contour>
      <point x="244" y="0" type="curve"/>
      <point x="304" y="178"/>
      <point x="364" y="355"/>
      <point x="423" y="533" type="curve"/>
      <point x="366" y="533"/>
      <point x="423" y="533"/>
      <point x="366" y="533" type="curve"/>
      <point x="308" y="355"/>
      <point x="249" y="178"/>
      <point x="190" y="0" type="curve"/>
      <point x="244" y="0"/>
      <point x="190" y="0"/>
    </contour>
    <contour>
      <point x="697" y="533" type="curve"/>
      <point x="643" y="355"/>
      <point x="588" y="178"/>
      <point x="533" y="0" type="curve"/>
      <point x="587" y="0"/>
      <point x="533" y="0"/>
      <point x="587" y="0" type="curve"/>
      <point x="643" y="178"/>
      <point x="699" y="355"/>
      <point x="755" y="533" type="curve"/>
      <point x="697" y="533"/>
      <point x="755" y="533"/>
    </contour>
    <contour>
      <point x="372" y="533" type="curve"/>
      <point x="425" y="355"/>
      <point x="478" y="178"/>
      <point x="532" y="0" type="curve"/>
      <point x="586" y="0"/>
      <point x="532" y="0"/>
      <point x="586" y="0" type="curve"/>
      <point x="533" y="178"/>
      <point x="480" y="355"/>
      <point x="427" y="533" type="curve"/>
      <point x="372" y="533"/>
      <point x="427" y="533"/>
    </contour>
    <contour>
      <point x="29" y="533" type="curve"/>
      <point x="83" y="355"/>
      <point x="136" y="178"/>
      <point x="190" y="0" type="curve"/>
      <point x="243" y="0"/>
      <point x="190" y="0"/>
      <point x="243" y="0" type="curve"/>
      <point x="191" y="178"/>
      <point x="138" y="355"/>
      <point x="86" y="533" type="curve"/>
      <point x="29" y="533"/>
      <point x="86" y="533"/>
    </contour>
  </outline>
</glyph>
<glyph name="x" format="1">
  <advance width="487"/>
  <unicode hex="0078"/>
  <outline>
    <contour>
      <point x="470" y="0" type="curve"/>
      <point x="383" y="128"/>
      <point x="179" y="405"/>
      <point x="92" y="533" type="curve"/>
      <point x="21" y="533"/>
      <point x="99" y="533"/>
      <point x="28" y="533" type="curve"/>
      <point x="114" y="405"/>
      <point x="317" y="128"/>
      <point x="403" y="0" type="curve"/>
      <point x="470" y="0"/>
      <point x="403" y="0"/>
    </contour>
    <contour>
      <point x="398" y="533" type="curve"/>
      <point x="309" y="405"/>
      <point x="102" y="128"/>
      <point x="14" y="0" type="curve"/>
      <point x="82" y="0"/>
      <point x="14" y="0"/>
      <point x="82" y="0" type="curve"/>
      <point x="169" y="128"/>
      <point x="374" y="405"/>
      <point x="461" y="533" type="curve"/>
      <point x="388" y="533"/>
      <point x="471" y="533"/>
    </contour>
  </outline>
</glyph>
<glyph name="y" format="1">
  <advance width="520"/>
  <unicode hex="0079"/>
  <outline>
    <contour>
      <point x="286" y="0" type="curve"/>
      <point x="253" y="72"/>
      <point x="117" y="461"/>
      <point x="84" y="533" type="curve"/>
      <point x="22" y="533"/>
      <point x="84" y="533"/>
      <point x="22" y="533" type="curve"/>
      <point x="56" y="461"/>
      <point x="197" y="65"/>
      <point x="231" y="-6" type="curve"/>
      <point x="286" y="-6"/>
      <point x="231" y="0"/>
    </contour>
    <contour>
      <point x="167" y="-300" type="curve"/>
      <point x="222" y="-189"/>
      <point x="452" y="422"/>
      <point x="508" y="533" type="curve"/>
      <point x="446" y="533"/>
      <point x="508" y="533"/>
      <point x="446" y="533" type="curve"/>
      <point x="390" y="422"/>
      <point x="160" y="-189"/>
      <point x="104" y="-300" type="curve"/>
      <point x="167" y="-300"/>
      <point x="104" y="-300"/>
    </contour>
    <contour>
      <point x="271" y="654" type="move" name="top"/>
    </contour>
  </outline>
</glyph>
<glyph name="braceleft" format="1">
  <advance width="252"/>
  <unicode hex="007B"/>
  <outline>
    <contour>
      <point x="222" y="-72" type="curve"/>
      <point x="164" y="-72"/>
      <point x="147" y="-24"/>
      <point x="147" y="38" type="curve"/>
      <point x="147" y="94"/>
      <point x="147" y="151"/>
      <point x="147" y="208" type="curve"/>
      <point x="147" y="298"/>
      <point x="104" y="364"/>
      <point x="18" y="364" type="curve"/>
      <point x="18" y="315"/>
      <point x="18" y="364"/>
      <point x="18" y="315" type="curve"/>
      <point x="72" y="315"/>
      <point x="93" y="271"/>
      <point x="93" y="212" type="curve"/>
      <point x="93" y="155"/>
      <point x="93" y="97"/>
      <point x="93" y="40" type="curve"/>
      <point x="93" y="-53"/>
      <point x="134" y="-119"/>
      <point x="222" y="-119" type="curve"/>
      <point x="222" y="-72"/>
      <point x="222" y="-119"/>
    </contour>
    <contour>
      <point x="222" y="797" type="curve"/>
      <point x="134" y="797"/>
      <point x="93" y="732"/>
      <point x="93" y="640" type="curve"/>
      <point x="93" y="581"/>
      <point x="93" y="522"/>
      <point x="93" y="464" type="curve"/>
      <point x="93" y="406"/>
      <point x="72" y="364"/>
      <point x="18" y="364" type="curve"/>
      <point x="18" y="315"/>
      <point x="18" y="364"/>
      <point x="18" y="315" type="curve"/>
      <point x="105" y="315"/>
      <point x="146" y="379"/>
      <point x="146" y="471" type="curve"/>
      <point x="146" y="527"/>
      <point x="146" y="583"/>
      <point x="146" y="640" type="curve"/>
      <point x="146" y="702"/>
      <point x="164" y="750"/>
      <point x="222" y="750" type="curve"/>
      <point x="222" y="797"/>
      <point x="222" y="750"/>
    </contour>
  </outline>
</glyph>
<glyph name="braceright" format="1">
  <advance width="253"/>
  <unicode hex="007D"/>
  <outline>
    <contour>
      <point x="30" y="-119" type="curve"/>
      <point x="118" y="-119"/>
      <point x="159" y="-53"/>
      <point x="159" y="40" type="curve"/>
      <point x="159" y="97"/>
      <point x="159" y="155"/>
      <point x="159" y="212" type="curve"/>
      <point x="159" y="271"/>
      <point x="179" y="314"/>
      <point x="233" y="314" type="curve"/>
      <point x="233" y="364"/>
      <point x="233" y="314"/>
      <point x="233" y="364" type="curve"/>
      <point x="148" y="364"/>
      <point x="106" y="298"/>
      <point x="106" y="208" type="curve"/>
      <point x="106" y="151"/>
      <point x="106" y="94"/>
      <point x="106" y="38" type="curve"/>
      <point x="106" y="-24"/>
      <point x="88" y="-72"/>
      <point x="30" y="-72" type="curve"/>
      <point x="30" y="-119"/>
      <point x="30" y="-72"/>
    </contour>
    <contour>
      <point x="30" y="749" type="curve"/>
      <point x="88" y="749"/>
      <point x="105" y="702"/>
      <point x="105" y="640" type="curve"/>
      <point x="105" y="583"/>
      <point x="105" y="527"/>
      <point x="105" y="471" type="curve"/>
      <point x="105" y="379"/>
      <point x="147" y="314"/>
      <point x="233" y="314" type="curve"/>
      <point x="233" y="364"/>
      <point x="233" y="314"/>
      <point x="233" y="364" type="curve"/>
      <point x="180" y="364"/>
      <point x="159" y="406"/>
      <point x="159" y="464" type="curve"/>
      <point x="159" y="522"/>
      <point x="159" y="581"/>
      <point x="159" y="640" type="curve"/>
      <point x="159" y="732"/>
      <point x="118" y="797"/>
      <point x="30" y="797" type="curve"/>
      <point x="30" y="749"/>
      <point x="30" y="797"/>
    </contour>
  </outline>
</glyph>
<glyph name="asciitilde" format="1">
  <advance width="628"/>
  <unicode hex="007E"/>
  <outline>
    <contour>
      <point x="501" y="354" type="curve"/>
      <point x="487" y="309"/>
      <point x="471" y="260"/>
      <point x="423" y="260" type="curve"/>
      <point x="384" y="260"/>
      <point x="361" y="275"/>
      <point x="332" y="302" type="curve"/>
      <point x="295" y="337"/>
      <point x="265" y="359"/>
      <point x="213" y="359" type="curve"/>
      <point x="132" y="359"/>
      <point x="99" y="309"/>
      <point x="80" y="230" type="curve"/>
      <point x="106" y="221"/>
      <point x="99" y="223"/>
      <point x="126" y="214" type="curve"/>
      <point x="139" y="266"/>
      <point x="158" y="310"/>
      <point x="211" y="310" type="curve"/>
      <point x="246" y="310"/>
      <point x="266" y="295"/>
      <point x="291" y="272" type="curve"/>
      <point x="332" y="234"/>
      <point x="364" y="212"/>
      <point x="420" y="212" type="curve"/>
      <point x="499" y="212"/>
      <point x="526" y="266"/>
      <point x="549" y="339" type="curve"/>
      <point x="521" y="347"/>
      <point x="529" y="346"/>
    </contour>
  </outline>
</glyph>
<glyph name="exclamdown" format="1">
  <advance width="244"/>
  <unicode hex="00A1"/>
  <outline>
    <contour>
      <point x="95" y="301" type="line"/>
      <point x="89" y="-192" type="line"/>
      <point x="157" y="-192" type="line"/>
      <point x="152" y="301" type="line"/>
    </contour>
    <contour>
      <point x="87" y="504" type="curve"/>
      <point x="87" y="482"/>
      <point x="102" y="471"/>
      <point x="123" y="471" type="curve"/>
      <point x="144" y="471"/>
      <point x="158" y="483"/>
      <point x="158" y="504" type="curve"/>
      <point x="92" y="504"/>
      <point x="153" y="504"/>
      <point x="87" y="504" type="curve"/>
      <point x="87" y="526"/>
      <point x="102" y="537"/>
      <point x="123" y="536" type="curve"/>
      <point x="145" y="536"/>
      <point x="158" y="525"/>
      <point x="158" y="504" type="curve"/>
      <point x="92" y="504"/>
      <point x="153" y="504"/>
    </contour>
  </outline>
</glyph>
<glyph name="cent" format="1">
  <advance width="576"/>
  <unicode hex="00A2"/>
  <outline>
    <contour>
      <point x="332" y="-53" type="curve"/>
      <point x="332" y="-13"/>
      <point x="332" y="27"/>
      <point x="332" y="67" type="curve"/>
      <point x="273" y="67"/>
      <point x="332" y="67"/>
      <point x="273" y="67" type="curve"/>
      <point x="273" y="27"/>
      <point x="273" y="-13"/>
      <point x="273" y="-53" type="curve"/>
      <point x="332" y="-53"/>
      <point x="273" y="-53"/>
    </contour>
    <contour>
      <point x="291" y="778" type="curve"/>
      <point x="291" y="742"/>
      <point x="291" y="706"/>
      <point x="291" y="670" type="curve"/>
      <point x="350" y="670"/>
      <point x="291" y="670"/>
      <point x="350" y="670" type="curve"/>
      <point x="350" y="706"/>
      <point x="350" y="742"/>
      <point x="350" y="778" type="curve"/>
      <point x="291" y="778"/>
      <point x="350" y="778"/>
    </contour>
    <contour>
      <point x="523" y="607" type="curve"/>
      <point x="460" y="659"/>
      <point x="405" y="681"/>
      <point x="326" y="681" type="curve"/>
      <point x="146" y="681"/>
      <point x="52" y="553"/>
      <point x="52" y="365" type="curve"/>
      <point x="52" y="184"/>
      <point x="129" y="51"/>
      <point x="299" y="51" type="curve"/>
      <point x="391" y="51"/>
      <point x="454" y="82"/>
      <point x="522" y="147" type="curve"/>
      <point x="486" y="183"/>
      <point x="522" y="147"/>
      <point x="486" y="183" type="curve"/>
      <point x="429" y="131"/>
      <point x="381" y="101"/>
      <point x="304" y="101" type="curve"/>
      <point x="168" y="101"/>
      <point x="111" y="216"/>
      <point x="111" y="368" type="curve"/>
      <point x="111" y="522"/>
      <point x="181" y="632"/>
      <point x="321" y="632" type="curve"/>
      <point x="390" y="632"/>
      <point x="437" y="612"/>
      <point x="491" y="569" type="curve"/>
      <point x="523" y="607"/>
      <point x="491" y="569"/>
    </contour>
  </outline>
</glyph>
<glyph name="sterling" format="1">
  <advance width="466"/>
  <unicode hex="00A3"/>
  <outline>
    <contour>
      <point x="397" y="48" type="curve"/>
      <point x="277" y="48"/>
      <point x="159" y="48"/>
      <point x="41" y="48" type="curve"/>
      <point x="41" y="0"/>
      <point x="41" y="48"/>
      <point x="41" y="0" type="curve"/>
      <point x="159" y="0"/>
      <point x="279" y="0"/>
      <point x="397" y="0" type="curve"/>
      <point x="397" y="48"/>
      <point x="397" y="0"/>
    </contour>
    <contour>
      <point x="354" y="400" type="curve"/>
      <point x="260" y="400"/>
      <point x="163" y="400"/>
      <point x="70" y="400" type="curve"/>
      <point x="70" y="353"/>
      <point x="70" y="400"/>
      <point x="70" y="353" type="curve"/>
      <point x="163" y="353"/>
      <point x="260" y="353"/>
      <point x="354" y="353" type="curve"/>
      <point x="354" y="400"/>
      <point x="354" y="353"/>
    </contour>
    <contour>
      <point x="414" y="672" type="curve"/>
      <point x="373" y="708"/>
      <point x="339" y="724"/>
      <point x="287" y="724" type="curve"/>
      <point x="131" y="724"/>
      <point x="104" y="561"/>
      <point x="139" y="371" type="curve"/>
      <point x="170" y="203"/>
      <point x="169" y="48"/>
      <point x="41" y="48" type="curve"/>
      <point x="41" y="0"/>
      <point x="41" y="48"/>
      <point x="41" y="0" type="curve"/>
      <point x="214" y="0"/>
      <point x="231" y="178"/>
      <point x="195" y="381" type="curve"/>
      <point x="167" y="536"/>
      <point x="175" y="677"/>
      <point x="284" y="677" type="curve"/>
      <point x="326" y="677"/>
      <point x="352" y="662"/>
      <point x="383" y="637" type="curve"/>
      <point x="414" y="672"/>
      <point x="383" y="637"/>
    </contour>
  </outline>
</glyph>
<glyph name="yen" format="1">
  <advance width="570"/>
  <unicode hex="00A5"/>
  <outline>
    <contour>
      <point x="484" y="387" type="curve"/>
      <point x="422" y="387"/>
      <point x="360" y="387"/>
      <point x="298" y="387" type="curve"/>
      <point x="298" y="335"/>
      <point x="298" y="387"/>
      <point x="298" y="335" type="curve"/>
      <point x="360" y="335"/>
      <point x="422" y="335"/>
      <point x="484" y="335" type="curve"/>
      <point x="484" y="387"/>
      <point x="484" y="335"/>
    </contour>
    <contour>
      <point x="273" y="387" type="curve"/>
      <point x="212" y="387"/>
      <point x="151" y="387"/>
      <point x="91" y="387" type="curve"/>
      <point x="91" y="335"/>
      <point x="91" y="387"/>
      <point x="91" y="335" type="curve"/>
      <point x="151" y="335"/>
      <point x="212" y="335"/>
      <point x="273" y="335" type="curve"/>
      <point x="273" y="387"/>
      <point x="273" y="335"/>
    </contour>
    <contour>
      <point x="484" y="259" type="curve"/>
      <point x="353" y="259"/>
      <point x="222" y="259"/>
      <point x="91" y="259" type="curve"/>
      <point x="91" y="207"/>
      <point x="91" y="259"/>
      <point x="91" y="207" type="curve"/>
      <point x="222" y="207"/>
      <point x="353" y="207"/>
      <point x="484" y="207" type="curve"/>
      <point x="484" y="259"/>
      <point x="484" y="207"/>
    </contour>
    <contour>
      <point x="44" y="722" type="curve"/>
      <point x="112" y="595"/>
      <point x="183" y="465"/>
      <point x="251" y="337" type="curve"/>
      <point x="312" y="337"/>
      <point x="247" y="338"/>
      <point x="308" y="338" type="curve"/>
      <point x="241" y="467"/>
      <point x="175" y="594"/>
      <point x="108" y="722" type="curve"/>
      <point x="48" y="722"/>
      <point x="104" y="722"/>
    </contour>
    <contour>
      <point x="469" y="722" type="curve"/>
      <point x="398" y="593"/>
      <point x="328" y="466"/>
      <point x="256" y="338" type="curve"/>
      <point x="317" y="338"/>
      <point x="254" y="337"/>
      <point x="315" y="337" type="curve"/>
      <point x="386" y="465"/>
      <point x="460" y="595"/>
      <point x="532" y="722" type="curve"/>
      <point x="472" y="722"/>
      <point x="529" y="722"/>
    </contour>
    <contour>
      <point x="315" y="0" type="curve"/>
      <point x="315" y="115"/>
      <point x="315" y="229"/>
      <point x="315" y="344" type="curve"/>
      <point x="251" y="344"/>
      <point x="315" y="344"/>
      <point x="251" y="344" type="curve"/>
      <point x="251" y="229"/>
      <point x="251" y="115"/>
      <point x="251" y="0" type="curve"/>
      <point x="315" y="0"/>
      <point x="251" y="0"/>
    </contour>
  </outline>
</glyph>
<glyph name="section" format="1">
  <advance width="457"/>
  <unicode hex="00A7"/>
  <outline>
    <contour>
      <point x="368" y="706" type="curve"/>
      <point x="321" y="735"/>
      <point x="285" y="751"/>
      <point x="231" y="751" type="curve"/>
      <point x="143" y="751"/>
      <point x="88" y="701"/>
      <point x="88" y="617" type="curve"/>
      <point x="88" y="541"/>
      <point x="133" y="497"/>
      <point x="206" y="468" type="curve"/>
      <point x="275" y="441"/>
      <point x="345" y="428"/>
      <point x="345" y="360" type="curve"/>
      <point x="345" y="297"/>
      <point x="309" y="258"/>
      <point x="244" y="244" type="curve"/>
      <point x="279" y="206"/>
      <point x="244" y="244"/>
      <point x="279" y="206" type="curve"/>
      <point x="360" y="228"/>
      <point x="404" y="279"/>
      <point x="404" y="361" type="curve"/>
      <point x="403" y="453"/>
      <point x="325" y="480"/>
      <point x="235" y="512" type="curve"/>
      <point x="182" y="533"/>
      <point x="145" y="563"/>
      <point x="145" y="617" type="curve"/>
      <point x="145" y="669"/>
      <point x="174" y="704"/>
      <point x="229" y="704" type="curve"/>
      <point x="274" y="704"/>
      <point x="303" y="691"/>
      <point x="340" y="668" type="curve"/>
      <point x="368" y="706"/>
      <point x="340" y="668"/>
    </contour>
    <contour>
      <point x="178" y="517" type="curve"/>
      <point x="102" y="491"/>
      <point x="58" y="445"/>
      <point x="58" y="367" type="curve"/>
      <point x="58" y="279"/>
      <point x="124" y="243"/>
      <point x="211" y="212" type="curve"/>
      <point x="270" y="189"/>
      <point x="321" y="168"/>
      <point x="321" y="109" type="curve"/>
      <point x="321" y="54"/>
      <point x="287" y="19"/>
      <point x="231" y="19" type="curve"/>
      <point x="179" y="19"/>
      <point x="148" y="36"/>
      <point x="106" y="66" type="curve"/>
      <point x="74" y="31"/>
      <point x="106" y="66"/>
      <point x="74" y="31" type="curve"/>
      <point x="124" y="-10"/>
      <point x="167" y="-29"/>
      <point x="230" y="-29" type="curve"/>
      <point x="319" y="-29"/>
      <point x="379" y="21"/>
      <point x="379" y="109" type="curve"/>
      <point x="377" y="188"/>
      <point x="325" y="229"/>
      <point x="248" y="257" type="curve"/>
      <point x="180" y="283"/>
      <point x="116" y="302"/>
      <point x="116" y="368" type="curve"/>
      <point x="116" y="427"/>
      <point x="149" y="461"/>
      <point x="207" y="482" type="curve"/>
      <point x="178" y="517"/>
      <point x="207" y="482"/>
    </contour>
  </outline>
</glyph>
<glyph name="dieresis" format="1">
  <advance width="401"/>
  <unicode hex="00A8"/>
  <outline>
    <contour>
      <point x="155" y="662" type="curve"/>
      <point x="155" y="683"/>
      <point x="140" y="695"/>
      <point x="118" y="695" type="curve"/>
      <point x="97" y="695"/>
      <point x="84" y="682"/>
      <point x="84" y="662" type="curve"/>
      <point x="150" y="662"/>
      <point x="88" y="662"/>
      <point x="155" y="662" type="curve"/>
      <point x="155" y="640"/>
      <point x="140" y="629"/>
      <point x="118" y="629" type="curve"/>
      <point x="97" y="629"/>
      <point x="84" y="640"/>
      <point x="84" y="662" type="curve"/>
      <point x="150" y="662"/>
      <point x="88" y="662"/>
    </contour>
    <contour>
      <point x="289" y="662" type="curve"/>
      <point x="289" y="683"/>
      <point x="274" y="695"/>
      <point x="253" y="695" type="curve"/>
      <point x="232" y="695"/>
      <point x="219" y="682"/>
      <point x="219" y="662" type="curve"/>
      <point x="285" y="662"/>
      <point x="223" y="662"/>
      <point x="289" y="662" type="curve"/>
      <point x="289" y="640"/>
      <point x="274" y="629"/>
      <point x="253" y="629" type="curve"/>
      <point x="232" y="629"/>
      <point x="219" y="640"/>
      <point x="219" y="662" type="curve"/>
      <point x="285" y="662"/>
      <point x="223" y="662"/>
    </contour>
    <contour>
      <point x="186" y="632" type="move" name="_top"/>
    </contour>
  </outline>
</glyph>
<glyph name="copyright" format="1">
  <advance width="708"/>
  <unicode hex="00A9"/>
  <outline>
    <contour>
      <point x="113" y="320" type="curve"/>
      <point x="113" y="484"/>
      <point x="201" y="605"/>
      <point x="357" y="605" type="curve"/>
      <point x="510" y="605"/>
      <point x="595" y="482"/>
      <point x="595" y="319" type="curve"/>
      <point x="595" y="161"/>
      <point x="513" y="39"/>
      <point x="363" y="39" type="curve"/>
      <point x="207" y="39"/>
      <point x="113" y="157"/>
      <point x="113" y="320" type="curve"/>
      <point x="62" y="320"/>
      <point x="114" y="320"/>
      <point x="62" y="320" type="curve"/>
      <point x="62" y="133"/>
      <point x="177" y="-2"/>
      <point x="361" y="-2" type="curve"/>
      <point x="540" y="-2"/>
      <point x="645" y="135"/>
      <point x="645" y="321" type="curve"/>
      <point x="645" y="509"/>
      <point x="537" y="646"/>
      <point x="357" y="646" type="curve"/>
      <point x="174" y="646"/>
      <point x="62" y="510"/>
      <point x="62" y="320" type="curve"/>
      <point x="114" y="320"/>
      <point x="62" y="320"/>
    </contour>
    <contour>
      <point x="474" y="458" type="curve"/>
      <point x="441" y="488"/>
      <point x="407" y="501"/>
      <point x="362" y="501" type="curve"/>
      <point x="259" y="501"/>
      <point x="205" y="428"/>
      <point x="205" y="320" type="curve"/>
      <point x="205" y="216"/>
      <point x="252" y="144"/>
      <point x="350" y="144" type="curve"/>
      <point x="404" y="144"/>
      <point x="441" y="156"/>
      <point x="481" y="195" type="curve"/>
      <point x="451" y="222"/>
      <point x="481" y="195"/>
      <point x="451" y="222" type="curve"/>
      <point x="420" y="197"/>
      <point x="393" y="185"/>
      <point x="352" y="185" type="curve"/>
      <point x="280" y="185"/>
      <point x="254" y="244"/>
      <point x="254" y="322" type="curve"/>
      <point x="254" y="402"/>
      <point x="285" y="460"/>
      <point x="360" y="460" type="curve"/>
      <point x="391" y="460"/>
      <point x="416" y="453"/>
      <point x="445" y="433" type="curve"/>
      <point x="476" y="459"/>
      <point x="443" y="432"/>
    </contour>
  </outline>
</glyph>
<glyph name="ordfeminine" format="1">
  <advance width="382"/>
  <unicode hex="00AA"/>
  <outline>
    <contour>
      <point x="302" y="428" type="curve"/>
      <point x="302" y="517"/>
      <point x="302" y="587"/>
      <point x="302" y="676" type="curve"/>
      <point x="302" y="740"/>
      <point x="254" y="768"/>
      <point x="188" y="768" type="curve"/>
      <point x="139" y="768"/>
      <point x="104" y="748"/>
      <point x="75" y="719" type="curve"/>
      <point x="88" y="697"/>
      <point x="81" y="711"/>
      <point x="95" y="688" type="curve"/>
      <point x="115" y="709"/>
      <point x="143" y="731"/>
      <point x="183" y="731" type="curve"/>
      <point x="227" y="731"/>
      <point x="257" y="711"/>
      <point x="257" y="668" type="curve"/>
      <point x="257" y="581"/>
      <point x="257" y="514"/>
      <point x="257" y="428" type="curve"/>
      <point x="291" y="428"/>
      <point x="268" y="428"/>
    </contour>
    <contour>
      <point x="278" y="637" type="curve"/>
      <point x="236" y="631"/>
      <point x="208" y="629"/>
      <point x="166" y="623" type="curve"/>
      <point x="104" y="613"/>
      <point x="60" y="584"/>
      <point x="60" y="522" type="curve"/>
      <point x="60" y="460"/>
      <point x="99" y="425"/>
      <point x="164" y="425" type="curve"/>
      <point x="225" y="425"/>
      <point x="257" y="466"/>
      <point x="290" y="515" type="curve"/>
      <point x="274" y="529"/>
      <point x="285" y="521"/>
      <point x="268" y="535" type="curve"/>
      <point x="244" y="495"/>
      <point x="220" y="461"/>
      <point x="173" y="461" type="curve"/>
      <point x="130" y="461"/>
      <point x="103" y="484"/>
      <point x="103" y="524" type="curve"/>
      <point x="103" y="563"/>
      <point x="130" y="584"/>
      <point x="166" y="590" type="curve"/>
      <point x="209" y="596"/>
      <point x="237" y="600"/>
      <point x="280" y="606" type="curve"/>
      <point x="279" y="629"/>
      <point x="279" y="615"/>
    </contour>
  </outline>
</glyph>
<glyph name="guillemotleft" format="1">
  <advance width="532"/>
  <unicode hex="00AB"/>
  <outline>
    <contour>
      <point x="253" y="424" type="curve"/>
      <point x="239" y="414"/>
      <point x="61" y="317"/>
      <point x="47" y="307" type="curve"/>
      <point x="47" y="255"/>
      <point x="47" y="303"/>
      <point x="47" y="251" type="curve"/>
      <point x="61" y="261"/>
      <point x="239" y="360"/>
      <point x="253" y="370" type="curve"/>
      <point x="253" y="422"/>
      <point x="253" y="372"/>
    </contour>
    <contour>
      <point x="254" y="189" type="curve"/>
      <point x="239" y="199"/>
      <point x="61" y="297"/>
      <point x="47" y="307" type="curve"/>
      <point x="47" y="255"/>
      <point x="47" y="303"/>
      <point x="47" y="251" type="curve"/>
      <point x="61" y="241"/>
      <point x="239" y="145"/>
      <point x="254" y="136" type="curve"/>
      <point x="254" y="187"/>
      <point x="254" y="138"/>
    </contour>
    <contour>
      <point x="456" y="424" type="curve"/>
      <point x="442" y="414"/>
      <point x="264" y="317"/>
      <point x="250" y="307" type="curve"/>
      <point x="250" y="255"/>
      <point x="250" y="303"/>
      <point x="250" y="251" type="curve"/>
      <point x="264" y="261"/>
      <point x="442" y="360"/>
      <point x="456" y="370" type="curve"/>
      <point x="456" y="422"/>
      <point x="456" y="372"/>
    </contour>
    <contour>
      <point x="457" y="189" type="curve"/>
      <point x="442" y="199"/>
      <point x="264" y="297"/>
      <point x="250" y="307" type="curve"/>
      <point x="250" y="255"/>
      <point x="250" y="303"/>
      <point x="250" y="251" type="curve"/>
      <point x="264" y="241"/>
      <point x="442" y="145"/>
      <point x="457" y="136" type="curve"/>
      <point x="457" y="187"/>
      <point x="457" y="138"/>
    </contour>
  </outline>
</glyph>
<glyph name="logicalnot" format="1">
  <advance width="643"/>
  <unicode hex="00AC"/>
  <outline>
    <contour>
      <point x="83" y="285" type="curve"/>
      <point x="557" y="285" type="line"/>
      <point x="557" y="337"/>
      <point x="557" y="285"/>
      <point x="557" y="337" type="curve"/>
      <point x="83" y="337" type="line"/>
      <point x="83" y="285"/>
      <point x="83" y="337"/>
    </contour>
    <contour>
      <point x="557" y="149" type="curve"/>
      <point x="557" y="337" type="line"/>
      <point x="498" y="337"/>
      <point x="558" y="337"/>
      <point x="499" y="337" type="curve"/>
      <point x="499" y="149" type="line"/>
      <point x="558" y="149"/>
      <point x="498" y="149"/>
    </contour>
  </outline>
</glyph>
<glyph name="registered" format="1">
  <advance width="712"/>
  <unicode hex="00AE"/>
  <outline>
    <contour>
      <point x="110" y="320" type="curve"/>
      <point x="110" y="488"/>
      <point x="199" y="608"/>
      <point x="360" y="608" type="curve"/>
      <point x="517" y="608"/>
      <point x="603" y="486"/>
      <point x="603" y="319" type="curve"/>
      <point x="603" y="156"/>
      <point x="520" y="36"/>
      <point x="366" y="36" type="curve"/>
      <point x="205" y="36"/>
      <point x="110" y="152"/>
      <point x="110" y="320" type="curve"/>
      <point x="82" y="320"/>
      <point x="92" y="320"/>
      <point x="64" y="320" type="curve"/>
      <point x="64" y="130"/>
      <point x="177" y="-2"/>
      <point x="363" y="-2" type="curve"/>
      <point x="545" y="-2"/>
      <point x="649" y="132"/>
      <point x="649" y="321" type="curve"/>
      <point x="649" y="511"/>
      <point x="543" y="645"/>
      <point x="360" y="645" type="curve"/>
      <point x="174" y="645"/>
      <point x="64" y="512"/>
      <point x="64" y="320" type="curve"/>
      <point x="92" y="320"/>
      <point x="82" y="320"/>
    </contour>
    <contour>
      <point x="351" y="312" type="curve"/>
      <point x="366" y="279"/>
      <point x="419" y="179"/>
      <point x="433" y="147" type="curve"/>
      <point x="460" y="147"/>
      <point x="451" y="147"/>
      <point x="481" y="147" type="curve"/>
      <point x="467" y="179"/>
      <point x="415" y="277"/>
      <point x="400" y="311" type="curve"/>
      <point x="344" y="310"/>
      <point x="407" y="313"/>
    </contour>
    <contour>
      <point x="315" y="147" type="curve"/>
      <point x="315" y="256"/>
      <point x="315" y="387"/>
      <point x="315" y="496" type="curve"/>
      <point x="284" y="496"/>
      <point x="298" y="496"/>
      <point x="266" y="496" type="curve"/>
      <point x="266" y="387"/>
      <point x="266" y="255"/>
      <point x="266" y="147" type="curve"/>
      <point x="299" y="147"/>
      <point x="280" y="147"/>
    </contour>
    <contour>
      <point x="294" y="287" type="curve"/>
      <point x="311" y="287"/>
      <point x="329" y="287"/>
      <point x="346" y="287" type="curve"/>
      <point x="418" y="287"/>
      <point x="465" y="319"/>
      <point x="465" y="392" type="curve"/>
      <point x="465" y="457"/>
      <point x="423" y="496"/>
      <point x="359" y="496" type="curve"/>
      <point x="345" y="496"/>
      <point x="308" y="496"/>
      <point x="294" y="496" type="curve"/>
      <point x="267" y="463"/>
      <point x="317" y="496"/>
      <point x="266" y="455" type="curve"/>
      <point x="294" y="455"/>
      <point x="322" y="455"/>
      <point x="350" y="455" type="curve"/>
      <point x="391" y="455"/>
      <point x="417" y="431"/>
      <point x="417" y="389" type="curve"/>
      <point x="417" y="348"/>
      <point x="394" y="328"/>
      <point x="354" y="328" type="curve"/>
      <point x="334" y="328"/>
      <point x="313" y="328"/>
      <point x="294" y="328" type="curve"/>
      <point x="294" y="287"/>
      <point x="294" y="328"/>
    </contour>
  </outline>
</glyph>
<glyph name="macron" format="1">
  <advance width="304"/>
  <unicode hex="00AF"/>
  <outline>
    <contour>
      <point x="234" y="679" type="curve"/>
      <point x="168" y="679"/>
      <point x="102" y="679"/>
      <point x="37" y="679" type="curve"/>
      <point x="37" y="633"/>
      <point x="37" y="679"/>
      <point x="37" y="633" type="curve"/>
      <point x="102" y="633"/>
      <point x="168" y="633"/>
      <point x="234" y="633" type="curve"/>
      <point x="234" y="679"/>
      <point x="234" y="633"/>
    </contour>
    <contour>
      <point x="137" y="633" type="move" name="_top"/>
    </contour>
  </outline>
</glyph>
<glyph name="degree" format="1">
  <advance width="439"/>
  <unicode hex="00B0"/>
  <outline>
    <contour>
      <point x="377" y="475" type="curve"/>
      <point x="377" y="591"/>
      <point x="328" y="675"/>
      <point x="219" y="675" type="curve"/>
      <point x="111" y="675"/>
      <point x="63" y="591"/>
      <point x="63" y="477" type="curve"/>
      <point x="99" y="477"/>
      <point x="78" y="477"/>
      <point x="114" y="477" type="curve"/>
      <point x="114" y="562"/>
      <point x="138" y="630"/>
      <point x="217" y="630" type="curve"/>
      <point x="296" y="630"/>
      <point x="325" y="563"/>
      <point x="325" y="475" type="curve"/>
      <point x="325" y="385"/>
      <point x="301" y="315"/>
      <point x="220" y="315" type="curve"/>
      <point x="138" y="315"/>
      <point x="114" y="387"/>
      <point x="114" y="477" type="curve"/>
      <point x="78" y="477"/>
      <point x="99" y="477"/>
      <point x="63" y="477" type="curve"/>
      <point x="63" y="358"/>
      <point x="108" y="270"/>
      <point x="219" y="270" type="curve"/>
      <point x="330" y="270"/>
      <point x="377" y="357"/>
    </contour>
  </outline>
</glyph>
<glyph name="plusminus" format="1">
  <advance width="655"/>
  <unicode hex="00B1"/>
  <outline>
    <contour>
      <point x="64" y="26" type="line"/>
      <point x="591" y="26" type="line"/>
      <point x="591" y="78" type="line"/>
      <point x="64" y="78" type="line"/>
    </contour>
    <contour>
      <point x="64" y="285" type="curve"/>
      <point x="591" y="285" type="line"/>
      <point x="591" y="337"/>
      <point x="591" y="285"/>
      <point x="591" y="337" type="curve"/>
      <point x="64" y="337" type="line"/>
      <point x="64" y="285"/>
      <point x="64" y="337"/>
    </contour>
    <contour>
      <point x="355" y="26" type="curve"/>
      <point x="355" y="586" type="line"/>
      <point x="296" y="586"/>
      <point x="358" y="586"/>
      <point x="299" y="586" type="curve"/>
      <point x="299" y="26" type="line"/>
      <point x="358" y="26"/>
      <point x="296" y="26"/>
    </contour>
  </outline>
</glyph>
<glyph name="twosuperior" format="1">
  <advance width="425"/>
  <unicode hex="00B2"/>
  <outline>
    <contour>
      <point x="58" y="305" type="curve"/>
      <point x="163" y="305"/>
      <point x="264" y="305"/>
      <point x="358" y="305" type="curve"/>
      <point x="358" y="328"/>
      <point x="358" y="326"/>
      <point x="358" y="348" type="curve"/>
      <point x="261" y="348"/>
      <point x="155" y="348"/>
      <point x="58" y="348" type="curve"/>
      <point x="58" y="305"/>
      <point x="58" y="348"/>
    </contour>
    <contour>
      <point x="120" y="616" type="curve"/>
      <point x="141" y="655"/>
      <point x="164" y="684"/>
      <point x="210" y="684" type="curve"/>
      <point x="261" y="684"/>
      <point x="289" y="651"/>
      <point x="289" y="600" type="curve"/>
      <point x="289" y="552"/>
      <point x="261" y="527"/>
      <point x="227" y="493" type="curve"/>
      <point x="171" y="445"/>
      <point x="114" y="396"/>
      <point x="58" y="348" type="curve"/>
      <point x="66" y="306"/>
      <point x="59" y="348"/>
      <point x="66" y="306" type="curve"/>
      <point x="132" y="358"/>
      <point x="200" y="409"/>
      <point x="260" y="460" type="curve"/>
      <point x="305" y="505"/>
      <point x="340" y="538"/>
      <point x="340" y="602" type="curve"/>
      <point x="340" y="679"/>
      <point x="291" y="726"/>
      <point x="214" y="726" type="curve"/>
      <point x="150" y="726"/>
      <point x="107" y="697"/>
      <point x="81" y="634" type="curve"/>
      <point x="120" y="616"/>
      <point x="81" y="634"/>
    </contour>
    <contour>
      <point x="223" y="726" type="move" name="_top"/>
    </contour>
    <contour>
      <point x="201" y="305" type="move" name="_bottom"/>
    </contour>
  </outline>
</glyph>
<glyph name="threesuperior" format="1">
  <advance width="380"/>
  <unicode hex="00B3"/>
  <outline>
    <contour>
      <point x="95" y="643" type="curve"/>
      <point x="116" y="665"/>
      <point x="141" y="684"/>
      <point x="172" y="684" type="curve"/>
      <point x="221" y="684"/>
      <point x="253" y="659"/>
      <point x="253" y="611" type="curve"/>
      <point x="253" y="557"/>
      <point x="196" y="539"/>
      <point x="135" y="535" type="curve"/>
      <point x="135" y="499"/>
      <point x="135" y="535"/>
      <point x="135" y="499" type="curve"/>
      <point x="229" y="501"/>
      <point x="306" y="530"/>
      <point x="306" y="614" type="curve"/>
      <point x="306" y="688"/>
      <point x="255" y="725"/>
      <point x="178" y="725" type="curve"/>
      <point x="132" y="725"/>
      <point x="92" y="703"/>
      <point x="64" y="670" type="curve"/>
      <point x="95" y="643"/>
      <point x="64" y="670"/>
    </contour>
    <contour>
      <point x="60" y="334" type="curve"/>
      <point x="93" y="312"/>
      <point x="126" y="300"/>
      <point x="165" y="300" type="curve"/>
      <point x="256" y="297"/>
      <point x="321" y="335"/>
      <point x="320" y="419" type="curve"/>
      <point x="320" y="508"/>
      <point x="234" y="524"/>
      <point x="135" y="527" type="curve"/>
      <point x="135" y="496"/>
      <point x="135" y="527"/>
      <point x="135" y="496" type="curve"/>
      <point x="207" y="491"/>
      <point x="267" y="474"/>
      <point x="267" y="418" type="curve"/>
      <point x="266" y="365"/>
      <point x="227" y="339"/>
      <point x="171" y="341" type="curve"/>
      <point x="140" y="341"/>
      <point x="113" y="350"/>
      <point x="85" y="366" type="curve"/>
      <point x="60" y="334"/>
      <point x="85" y="366"/>
    </contour>
    <contour>
      <point x="194" y="725" type="move" name="_top"/>
    </contour>
    <contour>
      <point x="182" y="300" type="move" name="_bottom"/>
    </contour>
  </outline>
</glyph>
<glyph name="paragraph" format="1">
  <advance width="675"/>
  <unicode hex="00B6"/>
  <outline>
    <contour>
      <point x="389" y="675" type="curve"/>
      <point x="539" y="675"/>
      <point x="389" y="675"/>
      <point x="539" y="675" type="curve"/>
      <point x="539" y="722"/>
      <point x="539" y="675"/>
      <point x="539" y="722" type="curve"/>
      <point x="489" y="722"/>
      <point x="439" y="722"/>
      <point x="389" y="722" type="curve"/>
      <point x="389" y="675"/>
      <point x="389" y="722"/>
    </contour>
    <contour>
      <point x="378" y="358" type="curve"/>
      <point x="335" y="334"/>
      <point x="301" y="318"/>
      <point x="250" y="318" type="curve"/>
      <point x="154" y="318"/>
      <point x="101" y="387"/>
      <point x="101" y="487" type="curve"/>
      <point x="101" y="601"/>
      <point x="168" y="675"/>
      <point x="279" y="675" type="curve"/>
      <point x="315" y="675"/>
      <point x="351" y="675"/>
      <point x="386" y="675" type="curve"/>
      <point x="386" y="722"/>
      <point x="386" y="675"/>
      <point x="386" y="722" type="curve"/>
      <point x="348" y="722"/>
      <point x="310" y="722"/>
      <point x="271" y="722" type="curve"/>
      <point x="131" y="722"/>
      <point x="41" y="631"/>
      <point x="41" y="490" type="curve"/>
      <point x="41" y="354"/>
      <point x="123" y="274"/>
      <point x="255" y="271" type="curve"/>
      <point x="308" y="271"/>
      <point x="352" y="291"/>
      <point x="397" y="317" type="curve"/>
      <point x="378" y="358"/>
      <point x="397" y="318"/>
    </contour>
    <contour>
      <point x="420" y="0" type="curve"/>
      <point x="420" y="241"/>
      <point x="420" y="481"/>
      <point x="420" y="722" type="curve"/>
      <point x="360" y="722"/>
      <point x="420" y="722"/>
      <point x="360" y="722" type="curve"/>
      <point x="360" y="481"/>
      <point x="360" y="241"/>
      <point x="360" y="0" type="curve"/>
      <point x="420" y="0"/>
      <point x="360" y="0"/>
    </contour>
    <contour>
      <point x="586" y="0" type="curve"/>
      <point x="586" y="241"/>
      <point x="586" y="481"/>
      <point x="586" y="722" type="curve"/>
      <point x="527" y="722"/>
      <point x="586" y="722"/>
      <point x="527" y="722" type="curve"/>
      <point x="527" y="481"/>
      <point x="527" y="241"/>
      <point x="527" y="0" type="curve"/>
      <point x="586" y="0"/>
      <point x="527" y="0"/>
    </contour>
  </outline>
</glyph>
<glyph name="periodcentered" format="1">
  <advance width="214"/>
  <unicode hex="00B7"/>
  <outline>
    <contour>
      <point x="142" y="440" type="curve"/>
      <point x="142" y="462"/>
      <point x="127" y="473"/>
      <point x="106" y="473" type="curve"/>
      <point x="85" y="473"/>
      <point x="72" y="461"/>
      <point x="72" y="440" type="curve"/>
      <point x="138" y="440"/>
      <point x="76" y="440"/>
      <point x="142" y="440" type="curve"/>
      <point x="142" y="418"/>
      <point x="128" y="407"/>
      <point x="106" y="407" type="curve"/>
      <point x="85" y="407"/>
      <point x="72" y="419"/>
      <point x="72" y="440" type="curve"/>
      <point x="138" y="440"/>
      <point x="76" y="440"/>
    </contour>
  </outline>
</glyph>
<glyph name="cedilla" format="1">
  <advance width="296"/>
  <unicode hex="00B8"/>
  <outline>
    <contour>
      <point x="153" y="60" type="curve"/>
      <point x="140" y="35"/>
      <point x="116" y="-12"/>
      <point x="104" y="-37" type="curve"/>
      <point x="145" y="-75"/>
      <point x="104" y="-37"/>
      <point x="145" y="-75" type="curve"/>
      <point x="158" y="-48"/>
      <point x="185" y="1"/>
      <point x="198" y="28" type="curve"/>
      <point x="153" y="60"/>
      <point x="198" y="28"/>
    </contour>
    <contour>
      <point x="145" y="-75" type="curve"/>
      <point x="155" y="-67"/>
      <point x="163" y="-64"/>
      <point x="176" y="-64" type="curve"/>
      <point x="201" y="-64"/>
      <point x="212" y="-82"/>
      <point x="212" y="-108" type="curve"/>
      <point x="212" y="-137"/>
      <point x="193" y="-152"/>
      <point x="164" y="-152" type="curve"/>
      <point x="141" y="-152"/>
      <point x="124" y="-148"/>
      <point x="104" y="-135" type="curve"/>
      <point x="83" y="-171"/>
      <point x="104" y="-135"/>
      <point x="83" y="-171" type="curve"/>
      <point x="108" y="-187"/>
      <point x="130" y="-194"/>
      <point x="161" y="-194" type="curve"/>
      <point x="219" y="-194"/>
      <point x="258" y="-164"/>
      <point x="258" y="-107" type="curve"/>
      <point x="258" y="-53"/>
      <point x="227" y="-18"/>
      <point x="175" y="-18" type="curve"/>
      <point x="148" y="-18"/>
      <point x="129" y="-24"/>
      <point x="104" y="-37" type="curve"/>
      <point x="145" y="-75"/>
      <point x="104" y="-37"/>
    </contour>
    <contour>
      <point x="194" y="28" type="move" name="_bottom"/>
    </contour>
  </outline>
</glyph>
<glyph name="onesuperior" format="1">
  <advance width="277"/>
  <unicode hex="00B9"/>
  <outline>
    <contour>
      <point x="56" y="580" type="line"/>
      <point x="191" y="711" type="line"/>
      <point x="139" y="718" type="line"/>
      <point x="26" y="611" type="line"/>
    </contour>
    <contour>
      <point x="192" y="305" type="curve"/>
      <point x="192" y="718" type="line"/>
      <point x="139" y="718" type="line"/>
      <point x="139" y="305" type="line"/>
      <point x="175" y="305"/>
      <point x="158" y="305"/>
    </contour>
    <contour>
      <point x="163" y="716" type="move" name="_top"/>
    </contour>
    <contour>
      <point x="166" y="308" type="move" name="_bottom"/>
    </contour>
  </outline>
</glyph>
<glyph name="ordmasculine" format="1">
  <advance width="387"/>
  <unicode hex="00BA"/>
  <outline>
    <contour>
      <point x="97" y="602" type="curve"/>
      <point x="97" y="677"/>
      <point x="125" y="732"/>
      <point x="194" y="732" type="curve"/>
      <point x="261" y="732"/>
      <point x="288" y="676"/>
      <point x="288" y="601" type="curve"/>
      <point x="288" y="520"/>
      <point x="263" y="459"/>
      <point x="198" y="459" type="curve"/>
      <point x="124" y="459"/>
      <point x="97" y="520"/>
      <point x="97" y="602" type="curve"/>
      <point x="75" y="602"/>
      <point x="77" y="602"/>
      <point x="54" y="602" type="curve"/>
      <point x="54" y="496"/>
      <point x="98" y="422"/>
      <point x="196" y="422" type="curve"/>
      <point x="290" y="422"/>
      <point x="333" y="495"/>
      <point x="333" y="601" type="curve"/>
      <point x="333" y="700"/>
      <point x="290" y="768"/>
      <point x="196" y="768" type="curve"/>
      <point x="99" y="768"/>
      <point x="54" y="700"/>
      <point x="54" y="602" type="curve"/>
      <point x="77" y="602"/>
      <point x="75" y="602"/>
    </contour>
  </outline>
</glyph>
<glyph name="guillemotright" format="1">
  <advance width="544"/>
  <unicode hex="00BB"/>
  <outline>
    <contour>
      <point x="286" y="424" type="curve"/>
      <point x="301" y="414"/>
      <point x="478" y="317"/>
      <point x="493" y="307" type="curve"/>
      <point x="493" y="255"/>
      <point x="493" y="303"/>
      <point x="493" y="251" type="curve"/>
      <point x="478" y="261"/>
      <point x="301" y="360"/>
      <point x="286" y="370" type="curve"/>
      <point x="286" y="422"/>
      <point x="286" y="372"/>
    </contour>
    <contour>
      <point x="286" y="189" type="curve"/>
      <point x="300" y="199"/>
      <point x="478" y="297"/>
      <point x="493" y="307" type="curve"/>
      <point x="493" y="255"/>
      <point x="493" y="303"/>
      <point x="493" y="251" type="curve"/>
      <point x="478" y="241"/>
      <point x="300" y="145"/>
      <point x="286" y="136" type="curve"/>
      <point x="286" y="187"/>
      <point x="286" y="138"/>
    </contour>
    <contour>
      <point x="83" y="424" type="curve"/>
      <point x="98" y="414"/>
      <point x="275" y="317"/>
      <point x="290" y="307" type="curve"/>
      <point x="290" y="255"/>
      <point x="290" y="303"/>
      <point x="290" y="251" type="curve"/>
      <point x="275" y="261"/>
      <point x="98" y="360"/>
      <point x="83" y="370" type="curve"/>
      <point x="83" y="422"/>
      <point x="83" y="372"/>
    </contour>
    <contour>
      <point x="83" y="189" type="curve"/>
      <point x="97" y="199"/>
      <point x="275" y="297"/>
      <point x="290" y="307" type="curve"/>
      <point x="290" y="255"/>
      <point x="290" y="303"/>
      <point x="290" y="251" type="curve"/>
      <point x="275" y="241"/>
      <point x="97" y="145"/>
      <point x="83" y="136" type="curve"/>
      <point x="83" y="187"/>
      <point x="83" y="138"/>
    </contour>
  </outline>
</glyph>
<glyph name="onequarter" format="1">
  <advance width="864"/>
  <unicode hex="00BC"/>
  <outline>
    <contour>
      <point x="272" y="-76" type="line"/>
      <point x="647" y="743" type="line"/>
      <point x="590" y="743" type="line"/>
      <point x="215" y="-76" type="line"/>
    </contour>
    <contour>
      <point x="61" y="608" type="line"/>
      <point x="196" y="739" type="line"/>
      <point x="144" y="746" type="line"/>
      <point x="31" y="640" type="line"/>
    </contour>
    <contour>
      <point x="197" y="334" type="curve"/>
      <point x="197" y="746" type="line"/>
      <point x="144" y="746" type="line"/>
      <point x="144" y="334" type="line"/>
      <point x="180" y="334"/>
      <point x="163" y="334"/>
    </contour>
    <contour>
      <point x="828" y="81" type="line"/>
      <point x="489" y="81" type="line"/>
      <point x="489" y="40" type="line"/>
      <point x="828" y="40" type="line"/>
    </contour>
    <contour>
      <point x="510" y="42" type="line"/>
      <point x="729" y="346" type="line"/>
      <point x="686" y="357" type="line"/>
      <point x="489" y="81" type="line"/>
    </contour>
    <contour>
      <point x="738" y="-77" type="line"/>
      <point x="738" y="357" type="line"/>
      <point x="686" y="357" type="line"/>
      <point x="686" y="-77" type="line"/>
    </contour>
  </outline>
</glyph>
<glyph name="onehalf" format="1">
  <advance width="911"/>
  <unicode hex="00BD"/>
  <outline>
    <contour>
      <point x="288" y="-76" type="line"/>
      <point x="662" y="743" type="line"/>
      <point x="605" y="743" type="line"/>
      <point x="230" y="-76" type="line"/>
    </contour>
    <contour>
      <point x="61" y="608" type="line"/>
      <point x="196" y="739" type="line"/>
      <point x="144" y="746" type="line"/>
      <point x="31" y="640" type="line"/>
    </contour>
    <contour>
      <point x="197" y="334" type="curve"/>
      <point x="197" y="746" type="line"/>
      <point x="144" y="746" type="line"/>
      <point x="144" y="334" type="line"/>
      <point x="180" y="334"/>
      <point x="163" y="334"/>
    </contour>
    <contour>
      <point x="569" y="-76" type="curve"/>
      <point x="674" y="-76"/>
      <point x="775" y="-76"/>
      <point x="869" y="-76" type="curve"/>
      <point x="869" y="-54"/>
      <point x="869" y="-55"/>
      <point x="869" y="-34" type="curve"/>
      <point x="772" y="-34"/>
      <point x="666" y="-34"/>
      <point x="569" y="-34" type="curve"/>
      <point x="569" y="-76"/>
      <point x="569" y="-34"/>
    </contour>
    <contour>
      <point x="631" y="234" type="curve"/>
      <point x="652" y="274"/>
      <point x="675" y="302"/>
      <point x="721" y="302" type="curve"/>
      <point x="772" y="302"/>
      <point x="800" y="269"/>
      <point x="800" y="218" type="curve"/>
      <point x="800" y="171"/>
      <point x="772" y="145"/>
      <point x="738" y="112" type="curve"/>
      <point x="682" y="63"/>
      <point x="625" y="15"/>
      <point x="569" y="-34" type="curve"/>
      <point x="577" y="-76"/>
      <point x="570" y="-34"/>
      <point x="577" y="-76" type="curve"/>
      <point x="643" y="-23"/>
      <point x="711" y="27"/>
      <point x="771" y="79" type="curve"/>
      <point x="816" y="123"/>
      <point x="852" y="157"/>
      <point x="852" y="220" type="curve"/>
      <point x="852" y="298"/>
      <point x="802" y="345"/>
      <point x="725" y="345" type="curve"/>
      <point x="661" y="345"/>
      <point x="618" y="316"/>
      <point x="592" y="253" type="curve"/>
      <point x="631" y="234"/>
      <point x="592" y="253"/>
    </contour>
  </outline>
</glyph>
<glyph name="threequarters" format="1">
  <advance width="889"/>
  <unicode hex="00BE"/>
  <outline>
    <contour>
      <point x="301" y="-76" type="line"/>
      <point x="676" y="743" type="line"/>
      <point x="618" y="743" type="line"/>
      <point x="244" y="-76" type="line"/>
    </contour>
    <contour>
      <point x="82" y="662" type="curve"/>
      <point x="104" y="684"/>
      <point x="129" y="702"/>
      <point x="160" y="702" type="curve"/>
      <point x="209" y="702"/>
      <point x="240" y="677"/>
      <point x="240" y="629" type="curve"/>
      <point x="240" y="576"/>
      <point x="184" y="558"/>
      <point x="122" y="553" type="curve"/>
      <point x="122" y="517"/>
      <point x="122" y="553"/>
      <point x="122" y="517" type="curve"/>
      <point x="216" y="520"/>
      <point x="293" y="549"/>
      <point x="293" y="633" type="curve"/>
      <point x="293" y="707"/>
      <point x="242" y="744"/>
      <point x="165" y="744" type="curve"/>
      <point x="120" y="744"/>
      <point x="79" y="721"/>
      <point x="52" y="689" type="curve"/>
      <point x="82" y="662"/>
      <point x="52" y="689"/>
    </contour>
    <contour>
      <point x="48" y="353" type="curve"/>
      <point x="80" y="331"/>
      <point x="114" y="318"/>
      <point x="153" y="318" type="curve"/>
      <point x="244" y="315"/>
      <point x="308" y="353"/>
      <point x="307" y="438" type="curve"/>
      <point x="307" y="526"/>
      <point x="221" y="543"/>
      <point x="122" y="546" type="curve"/>
      <point x="122" y="514"/>
      <point x="122" y="546"/>
      <point x="122" y="514" type="curve"/>
      <point x="194" y="510"/>
      <point x="254" y="493"/>
      <point x="254" y="436" type="curve"/>
      <point x="253" y="383"/>
      <point x="215" y="358"/>
      <point x="158" y="360" type="curve"/>
      <point x="128" y="360"/>
      <point x="100" y="368"/>
      <point x="73" y="385" type="curve"/>
      <point x="48" y="353"/>
      <point x="73" y="385"/>
    </contour>
    <contour>
      <point x="855" y="81" type="line"/>
      <point x="516" y="81" type="line"/>
      <point x="516" y="40" type="line"/>
      <point x="855" y="40" type="line"/>
    </contour>
    <contour>
      <point x="538" y="42" type="line"/>
      <point x="756" y="346" type="line"/>
      <point x="713" y="357" type="line"/>
      <point x="516" y="81" type="line"/>
    </contour>
    <contour>
      <point x="766" y="-77" type="line"/>
      <point x="766" y="357" type="line"/>
      <point x="713" y="357" type="line"/>
      <point x="713" y="-77" type="line"/>
    </contour>
  </outline>
</glyph>
<glyph name="questiondown" format="1">
  <advance width="461"/>
  <unicode hex="00BF"/>
  <outline>
    <contour>
      <point x="281" y="368" type="curve"/>
      <point x="281" y="405"/>
      <point x="281" y="457"/>
      <point x="281" y="494" type="curve"/>
      <point x="224" y="494"/>
      <point x="281" y="494"/>
      <point x="224" y="494" type="curve"/>
      <point x="224" y="457"/>
      <point x="224" y="405"/>
      <point x="224" y="368" type="curve"/>
      <point x="281" y="368"/>
      <point x="224" y="368"/>
    </contour>
    <contour>
      <point x="376" y="105" type="line"/>
      <point x="348" y="70"/>
      <point x="308" y="43"/>
      <point x="252" y="43" type="curve"/>
      <point x="162" y="43"/>
      <point x="111" y="104"/>
      <point x="111" y="196" type="curve"/>
      <point x="111" y="298"/>
      <point x="171" y="368"/>
      <point x="274" y="368" type="curve"/>
      <point x="274" y="393"/>
      <point x="274" y="390"/>
      <point x="274" y="415" type="curve"/>
      <point x="139" y="415"/>
      <point x="54" y="328"/>
      <point x="54" y="196" type="curve"/>
      <point x="54" y="73"/>
      <point x="129" y="-7"/>
      <point x="249" y="-7" type="curve"/>
      <point x="323" y="-7"/>
      <point x="373" y="24"/>
      <point x="410" y="70" type="curve"/>
    </contour>
    <contour>
      <point x="218" y="692" type="curve"/>
      <point x="218" y="671"/>
      <point x="232" y="660"/>
      <point x="253" y="660" type="curve"/>
      <point x="274" y="660"/>
      <point x="287" y="672"/>
      <point x="287" y="692" type="curve"/>
      <point x="218" y="692"/>
      <point x="287" y="692"/>
      <point x="218" y="692" type="curve"/>
      <point x="218" y="714"/>
      <point x="232" y="724"/>
      <point x="253" y="724" type="curve"/>
      <point x="274" y="724"/>
      <point x="287" y="713"/>
      <point x="287" y="692" type="curve"/>
      <point x="218" y="692"/>
      <point x="287" y="692"/>
    </contour>
  </outline>
</glyph>
<glyph name="Agrave" format="1">
  <advance width="588"/>
  <unicode hex="00C0"/>
  <outline>
    <contour>
      <point x="440" y="284" type="curve"/>
      <point x="342" y="284"/>
      <point x="245" y="284"/>
      <point x="147" y="284" type="curve"/>
      <point x="122" y="233"/>
      <point x="147" y="284"/>
      <point x="122" y="233" type="curve"/>
      <point x="235" y="233"/>
      <point x="347" y="233"/>
      <point x="459" y="233" type="curve"/>
      <point x="440" y="284"/>
      <point x="459" y="233"/>
    </contour>
    <contour>
      <point x="567" y="0" type="curve"/>
      <point x="488" y="241"/>
      <point x="406" y="481"/>
      <point x="327" y="722" type="curve"/>
      <point x="273" y="722"/>
      <point x="327" y="722"/>
      <point x="273" y="722" type="curve"/>
      <point x="351" y="481"/>
      <point x="427" y="241"/>
      <point x="505" y="0" type="curve"/>
      <point x="567" y="0"/>
      <point x="505" y="0"/>
    </contour>
    <contour>
      <point x="67" y="0" type="curve"/>
      <point x="154" y="241"/>
      <point x="238" y="481"/>
      <point x="325" y="722" type="curve"/>
      <point x="272" y="722"/>
      <point x="325" y="722"/>
      <point x="272" y="722" type="curve"/>
      <point x="183" y="481"/>
      <point x="91" y="241"/>
      <point x="3" y="0" type="curve"/>
      <point x="67" y="0"/>
      <point x="3" y="0"/>
    </contour>
    <contour>
      <point x="330" y="812" type="line"/>
      <point x="231" y="978" type="line"/>
      <point x="155" y="978" type="line"/>
      <point x="272" y="812" type="line"/>
    </contour>
  </outline>
</glyph>
<glyph name="Acircumflex" format="1">
  <advance width="588"/>
  <unicode hex="00C2"/>
  <outline>
    <contour>
      <point x="440" y="284" type="curve"/>
      <point x="342" y="284"/>
      <point x="245" y="284"/>
      <point x="147" y="284" type="curve"/>
      <point x="122" y="233"/>
      <point x="147" y="284"/>
      <point x="122" y="233" type="curve"/>
      <point x="235" y="233"/>
      <point x="347" y="233"/>
      <point x="459" y="233" type="curve"/>
      <point x="440" y="284"/>
      <point x="459" y="233"/>
    </contour>
    <contour>
      <point x="567" y="0" type="curve"/>
      <point x="488" y="241"/>
      <point x="406" y="481"/>
      <point x="327" y="722" type="curve"/>
      <point x="273" y="722"/>
      <point x="327" y="722"/>
      <point x="273" y="722" type="curve"/>
      <point x="351" y="481"/>
      <point x="427" y="241"/>
      <point x="505" y="0" type="curve"/>
      <point x="567" y="0"/>
      <point x="505" y="0"/>
    </contour>
    <contour>
      <point x="67" y="0" type="curve"/>
      <point x="154" y="241"/>
      <point x="238" y="481"/>
      <point x="325" y="722" type="curve"/>
      <point x="272" y="722"/>
      <point x="325" y="722"/>
      <point x="272" y="722" type="curve"/>
      <point x="183" y="481"/>
      <point x="91" y="241"/>
      <point x="3" y="0" type="curve"/>
      <point x="67" y="0"/>
      <point x="3" y="0"/>
    </contour>
    <contour>
      <point x="208" y="812" type="line"/>
      <point x="325" y="978" type="line"/>
      <point x="249" y="978" type="line"/>
      <point x="150" y="812" type="line"/>
    </contour>
    <contour>
      <point x="446" y="812" type="line"/>
      <point x="347" y="978" type="line"/>
      <point x="271" y="978" type="line"/>
      <point x="388" y="812" type="line"/>
    </contour>
  </outline>
</glyph>
<glyph name="Atilde" format="1">
  <advance width="588"/>
  <unicode hex="00C3"/>
  <outline>
    <contour>
      <point x="440" y="284" type="curve"/>
      <point x="342" y="284"/>
      <point x="245" y="284"/>
      <point x="147" y="284" type="curve"/>
      <point x="122" y="233"/>
      <point x="147" y="284"/>
      <point x="122" y="233" type="curve"/>
      <point x="235" y="233"/>
      <point x="347" y="233"/>
      <point x="459" y="233" type="curve"/>
      <point x="440" y="284"/>
      <point x="459" y="233"/>
    </contour>
    <contour>
      <point x="567" y="0" type="curve"/>
      <point x="488" y="241"/>
      <point x="406" y="481"/>
      <point x="327" y="722" type="curve"/>
      <point x="273" y="722"/>
      <point x="327" y="722"/>
      <point x="273" y="722" type="curve"/>
      <point x="351" y="481"/>
      <point x="427" y="241"/>
      <point x="505" y="0" type="curve"/>
      <point x="567" y="0"/>
      <point x="505" y="0"/>
    </contour>
    <contour>
      <point x="67" y="0" type="curve"/>
      <point x="154" y="241"/>
      <point x="238" y="481"/>
      <point x="325" y="722" type="curve"/>
      <point x="272" y="722"/>
      <point x="325" y="722"/>
      <point x="272" y="722" type="curve"/>
      <point x="183" y="481"/>
      <point x="91" y="241"/>
      <point x="3" y="0" type="curve"/>
      <point x="67" y="0"/>
      <point x="3" y="0"/>
    </contour>
    <contour>
      <point x="436" y="954" type="curve"/>
      <point x="423" y="907"/>
      <point x="411" y="867"/>
      <point x="377" y="867" type="curve"/>
      <point x="344" y="867"/>
      <point x="327" y="883"/>
      <point x="305" y="908" type="curve"/>
      <point x="279" y="937"/>
      <point x="259" y="957"/>
      <point x="221" y="957" type="curve"/>
      <point x="155" y="957"/>
      <point x="132" y="901"/>
      <point x="116" y="834" type="curve"/>
      <point x="161" y="813"/>
      <point x="116" y="834"/>
      <point x="161" y="813" type="curve"/>
      <point x="174" y="864"/>
      <point x="188" y="902"/>
      <point x="228" y="902" type="curve"/>
      <point x="258" y="902"/>
      <point x="271" y="884"/>
      <point x="290" y="861" type="curve"/>
      <point x="319" y="830"/>
      <point x="341" y="811"/>
      <point x="383" y="811" type="curve"/>
      <point x="448" y="811"/>
      <point x="465" y="869"/>
      <point x="484" y="935" type="curve"/>
      <point x="436" y="954"/>
      <point x="484" y="935"/>
    </contour>
  </outline>
</glyph>
<glyph name="Adieresis" format="1">
  <advance width="588"/>
  <unicode hex="00C4"/>
  <outline>
    <contour>
      <point x="440" y="284" type="curve"/>
      <point x="342" y="284"/>
      <point x="245" y="284"/>
      <point x="147" y="284" type="curve"/>
      <point x="122" y="233"/>
      <point x="147" y="284"/>
      <point x="122" y="233" type="curve"/>
      <point x="235" y="233"/>
      <point x="347" y="233"/>
      <point x="459" y="233" type="curve"/>
      <point x="440" y="284"/>
      <point x="459" y="233"/>
    </contour>
    <contour>
      <point x="567" y="0" type="curve"/>
      <point x="488" y="241"/>
      <point x="406" y="481"/>
      <point x="327" y="722" type="curve"/>
      <point x="273" y="722"/>
      <point x="327" y="722"/>
      <point x="273" y="722" type="curve"/>
      <point x="351" y="481"/>
      <point x="427" y="241"/>
      <point x="505" y="0" type="curve"/>
      <point x="567" y="0"/>
      <point x="505" y="0"/>
    </contour>
    <contour>
      <point x="67" y="0" type="curve"/>
      <point x="154" y="241"/>
      <point x="238" y="481"/>
      <point x="325" y="722" type="curve"/>
      <point x="272" y="722"/>
      <point x="325" y="722"/>
      <point x="272" y="722" type="curve"/>
      <point x="183" y="481"/>
      <point x="91" y="241"/>
      <point x="3" y="0" type="curve"/>
      <point x="67" y="0"/>
      <point x="3" y="0"/>
    </contour>
    <contour>
      <point x="266" y="842" type="curve"/>
      <point x="266" y="864"/>
      <point x="251" y="875"/>
      <point x="230" y="875" type="curve"/>
      <point x="209" y="875"/>
      <point x="196" y="863"/>
      <point x="196" y="842" type="curve"/>
      <point x="262" y="842"/>
      <point x="200" y="842"/>
      <point x="266" y="842" type="curve"/>
      <point x="266" y="820"/>
      <point x="252" y="809"/>
      <point x="230" y="809" type="curve"/>
      <point x="209" y="809"/>
      <point x="196" y="821"/>
      <point x="196" y="842" type="curve"/>
      <point x="262" y="842"/>
      <point x="200" y="842"/>
    </contour>
    <contour>
      <point x="401" y="842" type="curve"/>
      <point x="401" y="864"/>
      <point x="386" y="875"/>
      <point x="365" y="875" type="curve"/>
      <point x="344" y="875"/>
      <point x="331" y="863"/>
      <point x="331" y="842" type="curve"/>
      <point x="397" y="842"/>
      <point x="335" y="842"/>
      <point x="401" y="842" type="curve"/>
      <point x="401" y="820"/>
      <point x="386" y="809"/>
      <point x="365" y="809" type="curve"/>
      <point x="344" y="809"/>
      <point x="331" y="821"/>
      <point x="331" y="842" type="curve"/>
      <point x="397" y="842"/>
      <point x="335" y="842"/>
    </contour>
  </outline>
</glyph>
<glyph name="Aring" format="1">
  <advance width="588"/>
  <unicode hex="00C5"/>
  <outline>
    <contour>
      <point x="440" y="284" type="curve"/>
      <point x="342" y="284"/>
      <point x="245" y="284"/>
      <point x="147" y="284" type="curve"/>
      <point x="122" y="233"/>
      <point x="147" y="284"/>
      <point x="122" y="233" type="curve"/>
      <point x="235" y="233"/>
      <point x="347" y="233"/>
      <point x="459" y="233" type="curve"/>
      <point x="440" y="284"/>
      <point x="459" y="233"/>
    </contour>
    <contour>
      <point x="567" y="0" type="curve"/>
      <point x="488" y="241"/>
      <point x="406" y="481"/>
      <point x="327" y="722" type="curve"/>
      <point x="273" y="722"/>
      <point x="327" y="722"/>
      <point x="273" y="722" type="curve"/>
      <point x="351" y="481"/>
      <point x="427" y="241"/>
      <point x="505" y="0" type="curve"/>
      <point x="567" y="0"/>
      <point x="505" y="0"/>
    </contour>
    <contour>
      <point x="67" y="0" type="curve"/>
      <point x="154" y="241"/>
      <point x="238" y="481"/>
      <point x="325" y="722" type="curve"/>
      <point x="272" y="722"/>
      <point x="325" y="722"/>
      <point x="272" y="722" type="curve"/>
      <point x="183" y="481"/>
      <point x="91" y="241"/>
      <point x="3" y="0" type="curve"/>
      <point x="67" y="0"/>
      <point x="3" y="0"/>
    </contour>
    <contour>
      <point x="180" y="936" type="curve"/>
      <point x="180" y="860"/>
      <point x="224" y="811"/>
      <point x="298" y="811" type="curve"/>
      <point x="374" y="811"/>
      <point x="418" y="859"/>
      <point x="418" y="936" type="curve"/>
      <point x="418" y="1013"/>
      <point x="373" y="1062"/>
      <point x="296" y="1062" type="curve"/>
      <point x="222" y="1062"/>
      <point x="180" y="1012"/>
      <point x="180" y="936" type="curve"/>
      <point x="233" y="936"/>
      <point x="178" y="936"/>
      <point x="231" y="936" type="curve"/>
      <point x="231" y="983"/>
      <point x="250" y="1018"/>
      <point x="296" y="1018" type="curve"/>
      <point x="344" y="1018"/>
      <point x="366" y="985"/>
      <point x="366" y="936" type="curve"/>
      <point x="366" y="888"/>
      <point x="345" y="854"/>
      <point x="298" y="854" type="curve"/>
      <point x="252" y="854"/>
      <point x="231" y="888"/>
      <point x="231" y="936" type="curve"/>
      <point x="178" y="936"/>
      <point x="233" y="936"/>
    </contour>
  </outline>
</glyph>
<glyph name="AE" format="1">
  <advance width="812"/>
  <unicode hex="00C6"/>
  <outline>
    <contour>
      <point x="392" y="271" type="curve"/>
      <point x="293" y="271"/>
      <point x="255" y="271"/>
      <point x="157" y="271" type="curve"/>
      <point x="133" y="221"/>
      <point x="157" y="271"/>
      <point x="133" y="221" type="curve"/>
      <point x="245" y="221"/>
      <point x="298" y="221"/>
      <point x="410" y="221" type="curve"/>
      <point x="392" y="271"/>
      <point x="410" y="221"/>
    </contour>
    <contour>
      <point x="60" y="0" type="curve"/>
      <point x="434" y="722" type="line"/>
      <point x="380" y="722"/>
      <point x="433" y="722"/>
      <point x="379" y="722" type="curve"/>
      <point x="-6" y="0" type="line"/>
      <point x="59" y="0"/>
      <point x="-5" y="0"/>
    </contour>
    <contour>
      <point x="414" y="350" type="curve"/>
      <point x="510" y="350"/>
      <point x="606" y="350"/>
      <point x="702" y="350" type="curve"/>
      <point x="702" y="397"/>
      <point x="702" y="350"/>
      <point x="702" y="397" type="curve"/>
      <point x="606" y="397"/>
      <point x="510" y="397"/>
      <point x="414" y="397" type="curve"/>
      <point x="414" y="350"/>
      <point x="414" y="397"/>
    </contour>
    <contour>
      <point x="400" y="675" type="curve"/>
      <point x="520" y="675"/>
      <point x="638" y="675"/>
      <point x="758" y="675" type="curve"/>
      <point x="758" y="722"/>
      <point x="758" y="675"/>
      <point x="758" y="722" type="curve"/>
      <point x="638" y="722"/>
      <point x="520" y="722"/>
      <point x="400" y="722" type="curve"/>
      <point x="400" y="675"/>
      <point x="400" y="722"/>
    </contour>
    <contour>
      <point x="439" y="0" type="curve"/>
      <point x="439" y="722" type="line"/>
      <point x="380" y="722"/>
      <point x="439" y="722"/>
      <point x="380" y="722" type="curve"/>
      <point x="380" y="481"/>
      <point x="380" y="241"/>
      <point x="380" y="0" type="curve"/>
      <point x="439" y="0"/>
      <point x="380" y="0"/>
    </contour>
    <contour>
      <point x="400" y="0" type="curve"/>
      <point x="530" y="0"/>
      <point x="658" y="0"/>
      <point x="787" y="0" type="curve"/>
      <point x="787" y="47"/>
      <point x="787" y="0"/>
      <point x="787" y="47" type="curve"/>
      <point x="658" y="47"/>
      <point x="530" y="47"/>
      <point x="400" y="47" type="curve"/>
      <point x="400" y="0"/>
      <point x="400" y="47"/>
    </contour>
  </outline>
</glyph>
<glyph name="Ccedilla" format="1">
  <advance width="615"/>
  <unicode hex="00C7"/>
  <outline>
    <contour>
      <point x="572" y="655" type="curve"/>
      <point x="512" y="695"/>
      <point x="443" y="727"/>
      <point x="363" y="727" type="curve"/>
      <point x="154" y="727"/>
      <point x="62" y="571"/>
      <point x="62" y="344" type="curve"/>
      <point x="62" y="136"/>
      <point x="149" y="-5"/>
      <point x="344" y="-5" type="curve"/>
      <point x="449" y="-5"/>
      <point x="515" y="30"/>
      <point x="587" y="96" type="curve"/>
      <point x="554" y="133"/>
      <point x="586" y="96"/>
      <point x="553" y="133" type="curve"/>
      <point x="490" y="77"/>
      <point x="434" y="46"/>
      <point x="347" y="46" type="curve"/>
      <point x="185" y="46"/>
      <point x="121" y="171"/>
      <point x="121" y="346" type="curve"/>
      <point x="121" y="538"/>
      <point x="188" y="677"/>
      <point x="361" y="677" type="curve"/>
      <point x="429" y="677"/>
      <point x="489" y="652"/>
      <point x="542" y="617" type="curve"/>
      <point x="572" y="655"/>
      <point x="542" y="617"/>
    </contour>
    <contour>
      <point x="315" y="32" type="curve"/>
      <point x="302" y="6"/>
      <point x="278" y="-41"/>
      <point x="266" y="-66" type="curve"/>
      <point x="307" y="-104"/>
      <point x="266" y="-66"/>
      <point x="307" y="-104" type="curve"/>
      <point x="320" y="-76"/>
      <point x="347" y="-28"/>
      <point x="360" y="-1" type="curve"/>
      <point x="315" y="32"/>
      <point x="360" y="-1"/>
    </contour>
    <contour>
      <point x="307" y="-104" type="curve"/>
      <point x="317" y="-96"/>
      <point x="325" y="-93"/>
      <point x="338" y="-93" type="curve"/>
      <point x="363" y="-93"/>
      <point x="374" y="-110"/>
      <point x="374" y="-137" type="curve"/>
      <point x="374" y="-166"/>
      <point x="355" y="-181"/>
      <point x="326" y="-181" type="curve"/>
      <point x="303" y="-181"/>
      <point x="286" y="-177"/>
      <point x="266" y="-164" type="curve"/>
      <point x="245" y="-200"/>
      <point x="266" y="-164"/>
      <point x="245" y="-200" type="curve"/>
      <point x="270" y="-216"/>
      <point x="292" y="-223"/>
      <point x="323" y="-223" type="curve"/>
      <point x="381" y="-223"/>
      <point x="420" y="-193"/>
      <point x="420" y="-136" type="curve"/>
      <point x="420" y="-82"/>
      <point x="389" y="-47"/>
      <point x="337" y="-47" type="curve"/>
      <point x="310" y="-47"/>
      <point x="291" y="-53"/>
      <point x="266" y="-66" type="curve"/>
      <point x="307" y="-104"/>
      <point x="266" y="-66"/>
    </contour>
  </outline>
</glyph>
<glyph name="Egrave" format="1">
  <advance width="546"/>
  <unicode hex="00C8"/>
  <outline>
    <contour>
      <point x="148" y="350" type="curve"/>
      <point x="244" y="350"/>
      <point x="340" y="350"/>
      <point x="436" y="350" type="curve"/>
      <point x="436" y="397"/>
      <point x="436" y="350"/>
      <point x="436" y="397" type="curve"/>
      <point x="340" y="397"/>
      <point x="244" y="397"/>
      <point x="148" y="397" type="curve"/>
      <point x="148" y="350"/>
      <point x="148" y="397"/>
    </contour>
    <contour>
      <point x="134" y="675" type="curve"/>
      <point x="254" y="675"/>
      <point x="372" y="675"/>
      <point x="491" y="675" type="curve"/>
      <point x="491" y="722"/>
      <point x="491" y="675"/>
      <point x="491" y="722" type="curve"/>
      <point x="372" y="722"/>
      <point x="254" y="722"/>
      <point x="134" y="722" type="curve"/>
      <point x="134" y="675"/>
      <point x="134" y="722"/>
    </contour>
    <contour>
      <point x="173" y="0" type="curve"/>
      <point x="173" y="722" type="line"/>
      <point x="113" y="722"/>
      <point x="173" y="722"/>
      <point x="113" y="722" type="curve"/>
      <point x="113" y="481"/>
      <point x="113" y="241"/>
      <point x="113" y="0" type="curve"/>
      <point x="173" y="0"/>
      <point x="113" y="0"/>
    </contour>
    <contour>
      <point x="134" y="0" type="curve"/>
      <point x="263" y="0"/>
      <point x="392" y="0"/>
      <point x="521" y="0" type="curve"/>
      <point x="521" y="47"/>
      <point x="521" y="0"/>
      <point x="521" y="47" type="curve"/>
      <point x="392" y="47"/>
      <point x="263" y="47"/>
      <point x="134" y="47" type="curve"/>
      <point x="134" y="0"/>
      <point x="134" y="47"/>
    </contour>
    <contour>
      <point x="308" y="812" type="line"/>
      <point x="209" y="978" type="line"/>
      <point x="133" y="978" type="line"/>
      <point x="250" y="812" type="line"/>
    </contour>
  </outline>
</glyph>
<glyph name="Ecircumflex" format="1">
  <advance width="533"/>
  <unicode hex="00CA"/>
  <outline>
    <contour>
      <point x="139" y="350" type="curve"/>
      <point x="235" y="350"/>
      <point x="331" y="350"/>
      <point x="428" y="350" type="curve"/>
      <point x="428" y="397"/>
      <point x="428" y="350"/>
      <point x="428" y="397" type="curve"/>
      <point x="331" y="397"/>
      <point x="235" y="397"/>
      <point x="139" y="397" type="curve"/>
      <point x="139" y="350"/>
      <point x="139" y="397"/>
    </contour>
    <contour>
      <point x="126" y="675" type="curve"/>
      <point x="245" y="675"/>
      <point x="364" y="675"/>
      <point x="483" y="675" type="curve"/>
      <point x="483" y="722"/>
      <point x="483" y="675"/>
      <point x="483" y="722" type="curve"/>
      <point x="364" y="722"/>
      <point x="245" y="722"/>
      <point x="126" y="722" type="curve"/>
      <point x="126" y="675"/>
      <point x="126" y="722"/>
    </contour>
    <contour>
      <point x="164" y="0" type="curve"/>
      <point x="164" y="722" type="line"/>
      <point x="105" y="722"/>
      <point x="164" y="722"/>
      <point x="105" y="722" type="curve"/>
      <point x="105" y="481"/>
      <point x="105" y="241"/>
      <point x="105" y="0" type="curve"/>
      <point x="164" y="0"/>
      <point x="105" y="0"/>
    </contour>
    <contour>
      <point x="126" y="0" type="curve"/>
      <point x="255" y="0"/>
      <point x="383" y="0"/>
      <point x="513" y="0" type="curve"/>
      <point x="513" y="47"/>
      <point x="513" y="0"/>
      <point x="513" y="47" type="curve"/>
      <point x="383" y="47"/>
      <point x="255" y="47"/>
      <point x="126" y="47" type="curve"/>
      <point x="126" y="0"/>
      <point x="126" y="47"/>
    </contour>
    <contour>
      <point x="178" y="812" type="line"/>
      <point x="294" y="978" type="line"/>
      <point x="218" y="978" type="line"/>
      <point x="119" y="812" type="line"/>
    </contour>
    <contour>
      <point x="416" y="812" type="line"/>
      <point x="316" y="978" type="line"/>
      <point x="240" y="978" type="line"/>
      <point x="357" y="812" type="line"/>
    </contour>
  </outline>
</glyph>
<glyph name="Edieresis" format="1">
  <advance width="541"/>
  <unicode hex="00CB"/>
  <outline>
    <contour>
      <point x="143" y="350" type="curve"/>
      <point x="239" y="350"/>
      <point x="335" y="350"/>
      <point x="432" y="350" type="curve"/>
      <point x="432" y="397"/>
      <point x="432" y="350"/>
      <point x="432" y="397" type="curve"/>
      <point x="335" y="397"/>
      <point x="239" y="397"/>
      <point x="143" y="397" type="curve"/>
      <point x="143" y="350"/>
      <point x="143" y="397"/>
    </contour>
    <contour>
      <point x="130" y="675" type="curve"/>
      <point x="249" y="675"/>
      <point x="368" y="675"/>
      <point x="487" y="675" type="curve"/>
      <point x="487" y="722"/>
      <point x="487" y="675"/>
      <point x="487" y="722" type="curve"/>
      <point x="368" y="722"/>
      <point x="249" y="722"/>
      <point x="130" y="722" type="curve"/>
      <point x="130" y="675"/>
      <point x="130" y="722"/>
    </contour>
    <contour>
      <point x="168" y="0" type="curve"/>
      <point x="168" y="722" type="line"/>
      <point x="109" y="722"/>
      <point x="168" y="722"/>
      <point x="109" y="722" type="curve"/>
      <point x="109" y="481"/>
      <point x="109" y="241"/>
      <point x="109" y="0" type="curve"/>
      <point x="168" y="0"/>
      <point x="109" y="0"/>
    </contour>
    <contour>
      <point x="130" y="0" type="curve"/>
      <point x="259" y="0"/>
      <point x="388" y="0"/>
      <point x="517" y="0" type="curve"/>
      <point x="517" y="47"/>
      <point x="517" y="0"/>
      <point x="517" y="47" type="curve"/>
      <point x="388" y="47"/>
      <point x="259" y="47"/>
      <point x="130" y="47" type="curve"/>
      <point x="130" y="0"/>
      <point x="130" y="47"/>
    </contour>
    <contour>
      <point x="240" y="842" type="curve"/>
      <point x="240" y="864"/>
      <point x="225" y="875"/>
      <point x="204" y="875" type="curve"/>
      <point x="183" y="875"/>
      <point x="169" y="863"/>
      <point x="169" y="842" type="curve"/>
      <point x="235" y="842"/>
      <point x="174" y="842"/>
      <point x="240" y="842" type="curve"/>
      <point x="240" y="820"/>
      <point x="225" y="809"/>
      <point x="204" y="809" type="curve"/>
      <point x="182" y="809"/>
      <point x="169" y="821"/>
      <point x="169" y="842" type="curve"/>
      <point x="235" y="842"/>
      <point x="174" y="842"/>
    </contour>
    <contour>
      <point x="375" y="842" type="curve"/>
      <point x="375" y="864"/>
      <point x="360" y="875"/>
      <point x="339" y="875" type="curve"/>
      <point x="317" y="875"/>
      <point x="304" y="863"/>
      <point x="304" y="842" type="curve"/>
      <point x="370" y="842"/>
      <point x="309" y="842"/>
      <point x="375" y="842" type="curve"/>
      <point x="375" y="820"/>
      <point x="360" y="809"/>
      <point x="339" y="809" type="curve"/>
      <point x="317" y="809"/>
      <point x="304" y="821"/>
      <point x="304" y="842" type="curve"/>
      <point x="370" y="842"/>
      <point x="309" y="842"/>
    </contour>
  </outline>
</glyph>
<glyph name="Igrave" format="1">
  <advance width="289"/>
  <unicode hex="00CC"/>
  <outline>
    <contour>
      <point x="177" y="0" type="curve"/>
      <point x="177" y="241"/>
      <point x="177" y="481"/>
      <point x="177" y="722" type="curve"/>
      <point x="117" y="722"/>
      <point x="177" y="722"/>
      <point x="117" y="722" type="curve"/>
      <point x="117" y="481"/>
      <point x="117" y="241"/>
      <point x="117" y="0" type="curve"/>
      <point x="177" y="0"/>
      <point x="117" y="0"/>
    </contour>
    <contour>
      <point x="180" y="812" type="line"/>
      <point x="81" y="978" type="line"/>
      <point x="5" y="978" type="line"/>
      <point x="122" y="812" type="line"/>
    </contour>
  </outline>
</glyph>
<glyph name="Iacute" format="1">
  <advance width="285"/>
  <unicode hex="00CD"/>
  <outline>
    <contour>
      <point x="169" y="0" type="curve"/>
      <point x="169" y="241"/>
      <point x="169" y="481"/>
      <point x="169" y="722" type="curve"/>
      <point x="110" y="722"/>
      <point x="169" y="722"/>
      <point x="110" y="722" type="curve"/>
      <point x="110" y="481"/>
      <point x="110" y="241"/>
      <point x="110" y="0" type="curve"/>
      <point x="169" y="0"/>
      <point x="110" y="0"/>
    </contour>
    <contour>
      <point x="167" y="812" type="line"/>
      <point x="284" y="978" type="line"/>
      <point x="208" y="978" type="line"/>
      <point x="109" y="812" type="line"/>
    </contour>
  </outline>
</glyph>
<glyph name="Icircumflex" format="1">
  <advance width="287"/>
  <unicode hex="00CE"/>
  <outline>
    <contour>
      <point x="177" y="0" type="curve"/>
      <point x="177" y="241"/>
      <point x="177" y="481"/>
      <point x="177" y="722" type="curve"/>
      <point x="118" y="722"/>
      <point x="177" y="722"/>
      <point x="118" y="722" type="curve"/>
      <point x="118" y="481"/>
      <point x="118" y="241"/>
      <point x="118" y="0" type="curve"/>
      <point x="177" y="0"/>
      <point x="118" y="0"/>
    </contour>
    <contour>
      <point x="59" y="812" type="line"/>
      <point x="175" y="978" type="line"/>
      <point x="99" y="978" type="line"/>
      <point x="0" y="812" type="line"/>
    </contour>
    <contour>
      <point x="296" y="812" type="line"/>
      <point x="197" y="978" type="line"/>
      <point x="121" y="978" type="line"/>
      <point x="238" y="812" type="line"/>
    </contour>
  </outline>
</glyph>
<glyph name="Idieresis" format="1">
  <advance width="244"/>
  <unicode hex="00CF"/>
  <outline>
    <contour>
      <point x="153" y="0" type="curve"/>
      <point x="153" y="241"/>
      <point x="153" y="481"/>
      <point x="153" y="722" type="curve"/>
      <point x="94" y="722"/>
      <point x="153" y="722"/>
      <point x="94" y="722" type="curve"/>
      <point x="94" y="481"/>
      <point x="94" y="241"/>
      <point x="94" y="0" type="curve"/>
      <point x="153" y="0"/>
      <point x="94" y="0"/>
    </contour>
    <contour>
      <point x="93" y="842" type="curve"/>
      <point x="93" y="864"/>
      <point x="78" y="875"/>
      <point x="57" y="875" type="curve"/>
      <point x="35" y="875"/>
      <point x="22" y="863"/>
      <point x="22" y="842" type="curve"/>
      <point x="88" y="842"/>
      <point x="27" y="842"/>
      <point x="93" y="842" type="curve"/>
      <point x="93" y="820"/>
      <point x="78" y="809"/>
      <point x="57" y="809" type="curve"/>
      <point x="35" y="809"/>
      <point x="22" y="821"/>
      <point x="22" y="842" type="curve"/>
      <point x="88" y="842"/>
      <point x="27" y="842"/>
    </contour>
    <contour>
      <point x="227" y="842" type="curve"/>
      <point x="227" y="864"/>
      <point x="213" y="875"/>
      <point x="191" y="875" type="curve"/>
      <point x="170" y="875"/>
      <point x="157" y="863"/>
      <point x="157" y="842" type="curve"/>
      <point x="223" y="842"/>
      <point x="161" y="842"/>
      <point x="227" y="842" type="curve"/>
      <point x="227" y="820"/>
      <point x="213" y="809"/>
      <point x="191" y="809" type="curve"/>
      <point x="170" y="809"/>
      <point x="157" y="821"/>
      <point x="157" y="842" type="curve"/>
      <point x="223" y="842"/>
      <point x="161" y="842"/>
    </contour>
  </outline>
</glyph>
<glyph name="Ntilde" format="1">
  <advance width="756"/>
  <unicode hex="00D1"/>
  <outline>
    <contour>
      <point x="646" y="0" type="curve"/>
      <point x="489" y="241"/>
      <point x="333" y="481"/>
      <point x="177" y="722" type="curve"/>
      <point x="110" y="722"/>
      <point x="176" y="722"/>
      <point x="110" y="722" type="curve"/>
      <point x="266" y="481"/>
      <point x="423" y="241"/>
      <point x="580" y="0" type="curve"/>
      <point x="646" y="0"/>
      <point x="580" y="0"/>
    </contour>
    <contour>
      <point x="587" y="722" type="curve"/>
      <point x="587" y="481"/>
      <point x="587" y="241"/>
      <point x="587" y="0" type="curve"/>
      <point x="647" y="0"/>
      <point x="587" y="0"/>
      <point x="647" y="0" type="curve"/>
      <point x="647" y="241"/>
      <point x="647" y="481"/>
      <point x="647" y="722" type="curve"/>
      <point x="587" y="722"/>
      <point x="647" y="722"/>
    </contour>
    <contour>
      <point x="170" y="0" type="curve"/>
      <point x="170" y="241"/>
      <point x="170" y="481"/>
      <point x="170" y="722" type="curve"/>
      <point x="110" y="722"/>
      <point x="170" y="722"/>
      <point x="110" y="722" type="curve"/>
      <point x="110" y="481"/>
      <point x="110" y="241"/>
      <point x="110" y="0" type="curve"/>
      <point x="170" y="0"/>
      <point x="110" y="0"/>
    </contour>
    <contour>
      <point x="523" y="954" type="curve"/>
      <point x="510" y="907"/>
      <point x="498" y="867"/>
      <point x="464" y="867" type="curve"/>
      <point x="431" y="867"/>
      <point x="414" y="883"/>
      <point x="392" y="908" type="curve"/>
      <point x="366" y="937"/>
      <point x="346" y="957"/>
      <point x="307" y="957" type="curve"/>
      <point x="242" y="957"/>
      <point x="218" y="901"/>
      <point x="203" y="834" type="curve"/>
      <point x="248" y="813"/>
      <point x="203" y="834"/>
      <point x="248" y="813" type="curve"/>
      <point x="261" y="864"/>
      <point x="274" y="902"/>
      <point x="314" y="902" type="curve"/>
      <point x="345" y="902"/>
      <point x="358" y="884"/>
      <point x="377" y="861" type="curve"/>
      <point x="406" y="830"/>
      <point x="428" y="811"/>
      <point x="470" y="811" type="curve"/>
      <point x="535" y="811"/>
      <point x="552" y="869"/>
      <point x="570" y="935" type="curve"/>
      <point x="523" y="954"/>
      <point x="570" y="935"/>
    </contour>
  </outline>
</glyph>
<glyph name="Ograve" format="1">
  <advance width="690"/>
  <unicode hex="00D2"/>
  <outline>
    <contour>
      <point x="121" y="360" type="curve" name="FullCurve"/>
      <point x="121" y="537"/>
      <point x="179" y="677"/>
      <point x="342" y="677" type="curve" name="FullCurve"/>
      <point x="505" y="677"/>
      <point x="568" y="540"/>
      <point x="568" y="363" type="curve" name="FullCurve"/>
      <point x="568" y="187"/>
      <point x="510" y="45"/>
      <point x="347" y="45" type="curve" name="FullCurve"/>
      <point x="183" y="45"/>
      <point x="121" y="182"/>
      <point x="121" y="360" type="curve" name="FullCurve"/>
      <point x="62" y="360"/>
      <point x="121" y="360"/>
      <point x="62" y="360" type="curve" name="FullCurve"/>
      <point x="62" y="150"/>
      <point x="149" y="-5"/>
      <point x="344" y="-5" type="curve" name="FullCurve"/>
      <point x="540" y="-5"/>
      <point x="628" y="152"/>
      <point x="628" y="363" type="curve" name="FullCurve"/>
      <point x="628" y="572"/>
      <point x="541" y="727"/>
      <point x="346" y="727" type="curve" name="FullCurve"/>
      <point x="149" y="727"/>
      <point x="62" y="570"/>
      <point x="62" y="360" type="curve" name="FullCurve"/>
      <point x="121" y="360"/>
      <point x="62" y="360"/>
    </contour>
    <contour>
      <point x="377" y="812" type="line"/>
      <point x="278" y="978" type="line"/>
      <point x="202" y="978" type="line"/>
      <point x="318" y="812" type="line"/>
    </contour>
  </outline>
</glyph>
<glyph name="Otilde" format="1">
  <advance width="690"/>
  <unicode hex="00D5"/>
  <outline>
    <contour>
      <point x="121" y="360" type="curve" name="FullCurve"/>
      <point x="121" y="537"/>
      <point x="179" y="677"/>
      <point x="342" y="677" type="curve" name="FullCurve"/>
      <point x="505" y="677"/>
      <point x="568" y="540"/>
      <point x="568" y="363" type="curve" name="FullCurve"/>
      <point x="568" y="187"/>
      <point x="510" y="45"/>
      <point x="347" y="45" type="curve" name="FullCurve"/>
      <point x="183" y="45"/>
      <point x="121" y="182"/>
      <point x="121" y="360" type="curve" name="FullCurve"/>
      <point x="62" y="360"/>
      <point x="121" y="360"/>
      <point x="62" y="360" type="curve" name="FullCurve"/>
      <point x="62" y="150"/>
      <point x="149" y="-5"/>
      <point x="344" y="-5" type="curve" name="FullCurve"/>
      <point x="540" y="-5"/>
      <point x="628" y="152"/>
      <point x="628" y="363" type="curve" name="FullCurve"/>
      <point x="628" y="572"/>
      <point x="541" y="727"/>
      <point x="346" y="727" type="curve" name="FullCurve"/>
      <point x="149" y="727"/>
      <point x="62" y="570"/>
      <point x="62" y="360" type="curve" name="FullCurve"/>
      <point x="121" y="360"/>
      <point x="62" y="360"/>
    </contour>
    <contour>
      <point x="482" y="954" type="curve"/>
      <point x="470" y="907"/>
      <point x="458" y="867"/>
      <point x="424" y="867" type="curve"/>
      <point x="391" y="867"/>
      <point x="373" y="883"/>
      <point x="352" y="908" type="curve"/>
      <point x="325" y="937"/>
      <point x="306" y="957"/>
      <point x="267" y="957" type="curve"/>
      <point x="202" y="957"/>
      <point x="178" y="901"/>
      <point x="162" y="834" type="curve"/>
      <point x="207" y="813"/>
      <point x="163" y="834"/>
      <point x="207" y="813" type="curve"/>
      <point x="221" y="864"/>
      <point x="234" y="902"/>
      <point x="274" y="902" type="curve"/>
      <point x="304" y="902"/>
      <point x="318" y="884"/>
      <point x="337" y="861" type="curve"/>
      <point x="365" y="830"/>
      <point x="388" y="811"/>
      <point x="430" y="811" type="curve"/>
      <point x="495" y="811"/>
      <point x="512" y="869"/>
      <point x="530" y="935" type="curve"/>
      <point x="482" y="954"/>
      <point x="530" y="935"/>
    </contour>
  </outline>
</glyph>
<glyph name="Odieresis" format="1">
  <advance width="690"/>
  <unicode hex="00D6"/>
  <outline>
    <contour>
      <point x="121" y="360" type="curve" name="FullCurve"/>
      <point x="121" y="537"/>
      <point x="179" y="677"/>
      <point x="342" y="677" type="curve" name="FullCurve"/>
      <point x="505" y="677"/>
      <point x="568" y="540"/>
      <point x="568" y="363" type="curve" name="FullCurve"/>
      <point x="568" y="187"/>
      <point x="510" y="45"/>
      <point x="347" y="45" type="curve" name="FullCurve"/>
      <point x="183" y="45"/>
      <point x="121" y="182"/>
      <point x="121" y="360" type="curve" name="FullCurve"/>
      <point x="62" y="360"/>
      <point x="121" y="360"/>
      <point x="62" y="360" type="curve" name="FullCurve"/>
      <point x="62" y="150"/>
      <point x="149" y="-5"/>
      <point x="344" y="-5" type="curve" name="FullCurve"/>
      <point x="540" y="-5"/>
      <point x="628" y="152"/>
      <point x="628" y="363" type="curve" name="FullCurve"/>
      <point x="628" y="572"/>
      <point x="541" y="727"/>
      <point x="346" y="727" type="curve" name="FullCurve"/>
      <point x="149" y="727"/>
      <point x="62" y="570"/>
      <point x="62" y="360" type="curve" name="FullCurve"/>
      <point x="121" y="360"/>
      <point x="62" y="360"/>
    </contour>
    <contour>
      <point x="313" y="842" type="curve"/>
      <point x="313" y="864"/>
      <point x="298" y="875"/>
      <point x="277" y="875" type="curve"/>
      <point x="256" y="875"/>
      <point x="242" y="863"/>
      <point x="242" y="842" type="curve"/>
      <point x="308" y="842"/>
      <point x="247" y="842"/>
      <point x="313" y="842" type="curve"/>
      <point x="313" y="820"/>
      <point x="298" y="809"/>
      <point x="277" y="809" type="curve"/>
      <point x="255" y="809"/>
      <point x="242" y="821"/>
      <point x="242" y="842" type="curve"/>
      <point x="308" y="842"/>
      <point x="247" y="842"/>
    </contour>
    <contour>
      <point x="448" y="842" type="curve"/>
      <point x="448" y="864"/>
      <point x="433" y="875"/>
      <point x="412" y="875" type="curve"/>
      <point x="390" y="875"/>
      <point x="377" y="863"/>
      <point x="377" y="842" type="curve"/>
      <point x="443" y="842"/>
      <point x="382" y="842"/>
      <point x="448" y="842" type="curve"/>
      <point x="448" y="820"/>
      <point x="433" y="809"/>
      <point x="411" y="809" type="curve"/>
      <point x="390" y="809"/>
      <point x="377" y="821"/>
      <point x="377" y="842" type="curve"/>
      <point x="443" y="842"/>
      <point x="382" y="842"/>
    </contour>
  </outline>
</glyph>
<glyph name="multiply" format="1">
  <advance width="537"/>
  <unicode hex="00D7"/>
  <outline>
    <contour>
      <point x="97" y="100" type="line"/>
      <point x="475" y="483" type="line"/>
      <point x="440" y="519" type="line"/>
      <point x="61" y="136" type="line"/>
    </contour>
    <contour>
      <point x="477" y="135" type="line"/>
      <point x="97" y="518" type="line"/>
      <point x="62" y="483" type="line"/>
      <point x="441" y="99" type="line"/>
    </contour>
  </outline>
</glyph>
<glyph name="Uacute" format="1">
  <advance width="699"/>
  <unicode hex="00DA"/>
  <outline>
    <contour>
      <point x="101" y="721" type="curve"/>
      <point x="101" y="570"/>
      <point x="101" y="424"/>
      <point x="101" y="272" type="curve"/>
      <point x="101" y="93"/>
      <point x="175" y="-5"/>
      <point x="349" y="-5" type="curve"/>
      <point x="522" y="-5"/>
      <point x="598" y="93"/>
      <point x="598" y="270" type="curve"/>
      <point x="598" y="422"/>
      <point x="598" y="570"/>
      <point x="598" y="721" type="curve"/>
      <point x="546" y="721"/>
      <point x="594" y="721"/>
      <point x="543" y="721" type="curve"/>
      <point x="543" y="566"/>
      <point x="543" y="418"/>
      <point x="543" y="263" type="curve"/>
      <point x="543" y="127"/>
      <point x="484" y="47"/>
      <point x="354" y="47" type="curve"/>
      <point x="211" y="47"/>
      <point x="156" y="132"/>
      <point x="156" y="281" type="curve"/>
      <point x="156" y="430"/>
      <point x="156" y="574"/>
      <point x="156" y="721" type="curve"/>
      <point x="104" y="721"/>
      <point x="152" y="721"/>
    </contour>
    <contour>
      <point x="380" y="812" type="line"/>
      <point x="496" y="978" type="line"/>
      <point x="420" y="978" type="line"/>
      <point x="322" y="812" type="line"/>
    </contour>
  </outline>
</glyph>
<glyph name="Udieresis" format="1">
  <advance width="699"/>
  <unicode hex="00DC"/>
  <outline>
    <contour>
      <point x="101" y="721" type="curve"/>
      <point x="101" y="570"/>
      <point x="101" y="424"/>
      <point x="101" y="272" type="curve"/>
      <point x="101" y="93"/>
      <point x="175" y="-5"/>
      <point x="349" y="-5" type="curve"/>
      <point x="522" y="-5"/>
      <point x="598" y="93"/>
      <point x="598" y="270" type="curve"/>
      <point x="598" y="422"/>
      <point x="598" y="570"/>
      <point x="598" y="721" type="curve"/>
      <point x="546" y="721"/>
      <point x="594" y="721"/>
      <point x="543" y="721" type="curve"/>
      <point x="543" y="566"/>
      <point x="543" y="418"/>
      <point x="543" y="263" type="curve"/>
      <point x="543" y="127"/>
      <point x="484" y="47"/>
      <point x="354" y="47" type="curve"/>
      <point x="211" y="47"/>
      <point x="156" y="132"/>
      <point x="156" y="281" type="curve"/>
      <point x="156" y="430"/>
      <point x="156" y="574"/>
      <point x="156" y="721" type="curve"/>
      <point x="104" y="721"/>
      <point x="152" y="721"/>
    </contour>
    <contour>
      <point x="321" y="842" type="curve"/>
      <point x="321" y="864"/>
      <point x="306" y="875"/>
      <point x="285" y="875" type="curve"/>
      <point x="264" y="875"/>
      <point x="251" y="863"/>
      <point x="251" y="842" type="curve"/>
      <point x="317" y="842"/>
      <point x="255" y="842"/>
      <point x="321" y="842" type="curve"/>
      <point x="321" y="820"/>
      <point x="306" y="809"/>
      <point x="285" y="809" type="curve"/>
      <point x="264" y="809"/>
      <point x="251" y="821"/>
      <point x="251" y="842" type="curve"/>
      <point x="317" y="842"/>
      <point x="255" y="842"/>
    </contour>
    <contour>
      <point x="456" y="842" type="curve"/>
      <point x="456" y="864"/>
      <point x="441" y="875"/>
      <point x="420" y="875" type="curve"/>
      <point x="399" y="875"/>
      <point x="385" y="863"/>
      <point x="385" y="842" type="curve"/>
      <point x="451" y="842"/>
      <point x="390" y="842"/>
      <point x="456" y="842" type="curve"/>
      <point x="456" y="820"/>
      <point x="441" y="809"/>
      <point x="420" y="809" type="curve"/>
      <point x="398" y="809"/>
      <point x="385" y="821"/>
      <point x="385" y="842" type="curve"/>
      <point x="451" y="842"/>
      <point x="390" y="842"/>
    </contour>
  </outline>
</glyph>
<glyph name="Thorn" format="1">
  <advance width="530"/>
  <unicode hex="00DE"/>
  <outline>
    <contour>
      <point x="132" y="225" type="curve"/>
      <point x="179" y="198"/>
      <point x="226" y="179"/>
      <point x="283" y="179" type="curve"/>
      <point x="409" y="181"/>
      <point x="486" y="261"/>
      <point x="486" y="394" type="curve"/>
      <point x="486" y="528"/>
      <point x="398" y="615"/>
      <point x="258" y="615" type="curve"/>
      <point x="220" y="615"/>
      <point x="181" y="615"/>
      <point x="143" y="615" type="curve"/>
      <point x="143" y="568"/>
      <point x="143" y="615"/>
      <point x="143" y="568" type="curve"/>
      <point x="179" y="568"/>
      <point x="215" y="568"/>
      <point x="250" y="568" type="curve"/>
      <point x="361" y="568"/>
      <point x="427" y="498"/>
      <point x="427" y="391" type="curve"/>
      <point x="427" y="294"/>
      <point x="375" y="226"/>
      <point x="280" y="226" type="curve"/>
      <point x="229" y="226"/>
      <point x="195" y="241"/>
      <point x="151" y="266" type="curve"/>
      <point x="133" y="226"/>
      <point x="151" y="266"/>
    </contour>
    <contour>
      <point x="169" y="0" type="curve"/>
      <point x="169" y="241"/>
      <point x="169" y="481"/>
      <point x="169" y="722" type="curve"/>
      <point x="110" y="722"/>
      <point x="169" y="722"/>
      <point x="110" y="722" type="curve"/>
      <point x="110" y="481"/>
      <point x="110" y="241"/>
      <point x="110" y="0" type="curve"/>
      <point x="169" y="0"/>
      <point x="110" y="0"/>
    </contour>
  </outline>
</glyph>
<glyph name="germandbls" format="1">
  <advance width="532"/>
  <unicode hex="00DF"/>
  <outline>
    <contour>
      <point x="152" y="0" type="curve"/>
      <point x="152" y="204"/>
      <point x="152" y="406"/>
      <point x="152" y="610" type="curve"/>
      <point x="93" y="610"/>
      <point x="152" y="610"/>
      <point x="93" y="610" type="curve"/>
      <point x="93" y="406"/>
      <point x="93" y="204"/>
      <point x="93" y="0" type="curve"/>
      <point x="152" y="0"/>
      <point x="93" y="0"/>
    </contour>
    <contour>
      <point x="152" y="610" type="curve"/>
      <point x="152" y="694"/>
      <point x="192" y="754"/>
      <point x="271" y="754" type="curve"/>
      <point x="352" y="754"/>
      <point x="402" y="702"/>
      <point x="402" y="617" type="curve"/>
      <point x="402" y="531"/>
      <point x="345" y="478"/>
      <point x="259" y="478" type="curve"/>
      <point x="259" y="439"/>
      <point x="259" y="478"/>
      <point x="259" y="439" type="curve"/>
      <point x="378" y="439"/>
      <point x="459" y="502"/>
      <point x="459" y="619" type="curve"/>
      <point x="459" y="733"/>
      <point x="389" y="802"/>
      <point x="275" y="802" type="curve"/>
      <point x="160" y="802"/>
      <point x="93" y="726"/>
      <point x="93" y="610" type="curve"/>
      <point x="152" y="610"/>
      <point x="93" y="610"/>
    </contour>
    <contour>
      <point x="348" y="84" type="curve"/>
      <point x="438" y="108"/>
      <point x="488" y="171"/>
      <point x="488" y="277" type="curve"/>
      <point x="488" y="405"/>
      <point x="401" y="478"/>
      <point x="259" y="478" type="curve"/>
      <point x="259" y="439"/>
      <point x="259" y="478"/>
      <point x="259" y="439" type="curve"/>
      <point x="354" y="439"/>
      <point x="432" y="381"/>
      <point x="432" y="276" type="curve"/>
      <point x="432" y="199"/>
      <point x="393" y="151"/>
      <point x="331" y="131" type="curve"/>
      <point x="348" y="84"/>
      <point x="331" y="131"/>
    </contour>
  </outline>
</glyph>
<glyph name="atilde" format="1">
  <advance width="510"/>
  <unicode hex="00E3"/>
  <outline>
    <contour>
      <point x="416" y="0" type="curve"/>
      <point x="416" y="128"/>
      <point x="416" y="256"/>
      <point x="416" y="384" type="curve"/>
      <point x="416" y="493"/>
      <point x="355" y="538"/>
      <point x="249" y="538" type="curve"/>
      <point x="168" y="538"/>
      <point x="111" y="504"/>
      <point x="69" y="463" type="curve"/>
      <point x="94" y="424"/>
      <point x="69" y="463"/>
      <point x="95" y="424" type="curve"/>
      <point x="127" y="454"/>
      <point x="175" y="490"/>
      <point x="241" y="490" type="curve"/>
      <point x="318" y="490"/>
      <point x="357" y="455"/>
      <point x="357" y="373" type="curve"/>
      <point x="357" y="248"/>
      <point x="357" y="124"/>
      <point x="357" y="0" type="curve"/>
      <point x="416" y="0"/>
      <point x="357" y="0"/>
    </contour>
    <contour>
      <point x="384" y="328" type="curve"/>
      <point x="316" y="318"/>
      <point x="279" y="314"/>
      <point x="210" y="303" type="curve"/>
      <point x="114" y="288"/>
      <point x="52" y="245"/>
      <point x="52" y="147" type="curve"/>
      <point x="52" y="52"/>
      <point x="100" y="-5"/>
      <point x="197" y="-5" type="curve"/>
      <point x="303" y="-5"/>
      <point x="351" y="69"/>
      <point x="403" y="151" type="curve"/>
      <point x="371" y="178"/>
      <point x="403" y="152"/>
      <point x="372" y="179" type="curve"/>
      <point x="336" y="108"/>
      <point x="290" y="42"/>
      <point x="209" y="42" type="curve"/>
      <point x="139" y="42"/>
      <point x="109" y="83"/>
      <point x="109" y="150" type="curve"/>
      <point x="109" y="216"/>
      <point x="150" y="250"/>
      <point x="209" y="260" type="curve"/>
      <point x="281" y="271"/>
      <point x="316" y="276"/>
      <point x="387" y="287" type="curve"/>
      <point x="384" y="328"/>
      <point x="387" y="287"/>
    </contour>
    <contour>
      <point x="387" y="796" type="curve"/>
      <point x="374" y="749"/>
      <point x="363" y="708"/>
      <point x="328" y="708" type="curve"/>
      <point x="295" y="708"/>
      <point x="278" y="725"/>
      <point x="256" y="750" type="curve"/>
      <point x="230" y="779"/>
      <point x="210" y="799"/>
      <point x="172" y="799" type="curve"/>
      <point x="107" y="799"/>
      <point x="83" y="743"/>
      <point x="67" y="675" type="curve"/>
      <point x="112" y="654"/>
      <point x="67" y="675"/>
      <point x="112" y="654" type="curve"/>
      <point x="125" y="706"/>
      <point x="139" y="743"/>
      <point x="179" y="743" type="curve"/>
      <point x="209" y="743"/>
      <point x="222" y="725"/>
      <point x="241" y="703" type="curve"/>
      <point x="270" y="671"/>
      <point x="293" y="652"/>
      <point x="334" y="652" type="curve"/>
      <point x="399" y="652"/>
      <point x="416" y="710"/>
      <point x="435" y="777" type="curve"/>
      <point x="387" y="796"/>
      <point x="435" y="776"/>
    </contour>
  </outline>
</glyph>
